<svg xmlns="http://www.w3.org/2000/svg" width="336.649" height="360.588" viewBox="0 0 336.649 360.588">
  <g id="icon-oil" transform="translate(1 1)">
    <g id="_004---Oil-Maintenance-" data-name="004---Oil-Maintenance-" transform="translate(0 0)">
      <g id="Shape" transform="translate(0 0)" fill="#fff">
        <path d="M 167.3245086669922 359.08837890625 C 157.5763702392578 359.08837890625 148.1195526123047 357.1790466308594 139.2167816162109 353.4135131835938 C 134.9378662109375 351.6036987304688 130.8109588623047 349.3636779785156 126.950553894043 346.7556457519531 C 123.1270065307617 344.1725158691406 119.5315093994141 341.2059631347656 116.2639617919922 337.9384155273438 C 112.9964141845703 334.6708679199219 110.0298690795898 331.0753784179688 107.4467391967773 327.2518310546875 C 104.8386917114258 323.3914184570313 102.5986938476563 319.2644958496094 100.7888717651367 314.985595703125 C 97.02332305908203 306.0828247070313 95.11400604248047 296.6260070800781 95.11400604248047 286.8778686523438 C 95.11400604248047 286.2718811035156 95.15564727783203 285.6296997070313 95.19586944580078 285.0086975097656 C 95.20057678222656 284.9360961914063 95.20527648925781 284.8634948730469 95.20991516113281 284.7909240722656 C 94.77495574951172 284.5234375 94.33557891845703 284.2622375488281 93.90837097167969 284.0082702636719 C 93.23098754882813 283.6055603027344 92.53343200683594 283.1908874511719 91.83896636962891 282.742919921875 L 73.91764831542969 296.1574401855469 C 71.81862640380859 297.7639465332031 69.20730590820313 298.6485595703125 66.56396484375 298.6485595703125 L 66.49678039550781 298.6483764648438 L 66.49009704589844 298.6483764648438 C 64.84786987304688 298.6483154296875 63.24582672119141 298.3298645019531 61.72837066650391 297.7018127441406 C 60.21078109741211 297.07373046875 58.85219192504883 296.1668395996094 57.69032669067383 295.0062866210938 L 39.64300918579102 276.9589233398438 C 37.51737213134766 274.8351135253906 36.23623657226563 272.0141296386719 36.03573608398438 269.0158386230469 C 35.83523559570313 266.0174560546875 36.72937393188477 263.0510559082031 38.55341720581055 260.6629638671875 L 51.92280960083008 242.7997894287109 C 47.21126174926758 235.6478271484375 43.15994262695313 228.0133514404297 39.87905502319336 220.1033782958984 C 36.59816741943359 212.1934356689453 34.05654144287109 203.9326782226563 32.32280349731445 195.5455169677734 L 10.19573593139648 192.3803253173828 C 7.233644962310791 191.9441375732422 4.523599624633789 190.4595031738281 2.56278133392334 188.1996002197266 C 0.6019177436828613 185.9397277832031 -0.4858095049858093 183.0474243164063 -0.4999913275241852 180.0554656982422 L -0.4999913275241852 154.5958709716797 C -0.4857640564441681 151.6015472412109 0.601963222026825 148.709228515625 2.56278133392334 146.4493713378906 C 4.523599624633789 144.1895141601563 7.233644962310791 142.7048645019531 10.19369029998779 142.2689666748047 L 32.32280349731445 139.1035003662109 C 34.05654144287109 130.7163391113281 36.59816741943359 122.4555816650391 39.87905502319336 114.5456466674805 C 43.15989685058594 106.6357040405273 47.21127319335938 99.00121307373047 51.92282104492188 91.84921264648438 L 38.50264358520508 73.91641998291016 C 36.70032501220703 71.53191375732422 35.82237243652344 68.57427978515625 36.03191757202148 65.59023284912109 C 36.24146270751953 62.6061897277832 37.52418899536133 59.8002815246582 39.64373779296875 57.68941497802734 L 57.69014358520508 39.64300918579102 C 60.03300857543945 37.30018997192383 63.14905548095703 36.00991821289063 66.46427917480469 36.00991821289063 C 69.20459747314453 36.00991821289063 71.80551147460938 36.8894157409668 73.98587036132813 38.55327987670898 L 91.84923553466797 51.92280960083008 C 99.00122833251953 47.21126174926758 106.6357040405273 43.15989685058594 114.5456466674805 39.87905120849609 C 122.4555892944336 36.59816360473633 130.7163391113281 34.05654144287109 139.1035003662109 32.32279968261719 L 142.2687377929688 10.19573497772217 C 142.7049102783203 7.233689308166504 144.1895141601563 4.523598670959473 146.4494171142578 2.562780380249023 C 148.7092742919922 0.6019167304039001 151.6015930175781 -0.4858105480670929 154.5935516357422 -0.4999923706054688 L 180.0531463623047 -0.4999923706054688 C 183.0474700927734 -0.4858105480670929 185.9397888183594 0.6019167304039001 188.1996459960938 2.562780380249023 C 190.4595031738281 4.523598670959473 191.9441375732422 7.233644008636475 192.3800506591797 10.19368934631348 L 195.5455169677734 32.32279968261719 C 203.9326782226563 34.05654144287109 212.1934356689453 36.59816360473633 220.1033782958984 39.87905120849609 C 228.0133514404297 43.15994262695313 235.6478424072266 47.21127319335938 242.7998046875 51.92281723022461 L 260.7326354980469 38.50264358520508 C 262.8972778320313 36.8680534362793 265.4758605957031 36.00337219238281 268.1879577636719 36.00337219238281 C 269.8031921386719 36.00337219238281 271.3786315917969 36.3117790222168 272.8705444335938 36.92005157470703 C 274.4065856933594 37.54627990722656 275.7823181152344 38.46264266967773 276.9595031738281 39.6435546875 L 295.0060424804688 57.69014358520508 C 297.1316833496094 59.81391525268555 298.412841796875 62.63487243652344 298.6133117675781 65.63318634033203 C 298.8138122558594 68.63155364990234 297.919677734375 71.59796142578125 296.0956420898438 73.98605346679688 L 282.7261962890625 91.84922790527344 C 287.437744140625 99.00122833251953 291.4891052246094 106.6357040405273 294.7699584960938 114.5456466674805 C 298.0508422851563 122.4555816650391 300.5924682617188 130.7163391113281 302.3262023925781 139.1035003662109 L 324.4532775878906 142.2686920166016 C 327.4153747558594 142.7048645019531 330.1254577636719 144.1895141601563 332.0862731933594 146.4493713378906 C 334.0471496582031 148.709228515625 335.1348266601563 151.6015472412109 335.1490173339844 154.593505859375 L 335.1490173339844 180.0531005859375 C 335.1377868652344 183.0492401123047 334.051513671875 185.9442749023438 332.09033203125 188.2068786621094 C 330.129150390625 190.4694671630859 327.4176330566406 191.9557342529297 324.455322265625 192.3920135498047 L 302.3262023925781 195.5574645996094 C 300.5924682617188 203.9446411132813 298.0508422851563 212.2053833007813 294.7699584960938 220.1153259277344 C 291.4891052246094 228.0252685546875 287.437744140625 235.6597595214844 282.7261962890625 242.8117523193359 L 296.1463623046875 260.7445678710938 C 297.9486999511719 263.1290588378906 298.82666015625 266.0867004394531 298.6170959472656 269.0707397460938 C 298.4075622558594 272.0547790527344 297.1248779296875 274.8606567382813 295.0053405761719 276.9715576171875 L 276.9589233398438 295.0179748535156 C 274.6169128417969 297.3619995117188 271.5009765625 298.6530151367188 268.1852416992188 298.6530151367188 C 265.4442749023438 298.6530151367188 262.8431091308594 297.7727661132813 260.6629638671875 296.1075439453125 L 242.8135681152344 282.7455749511719 C 241.9860992431641 283.2921447753906 241.1548156738281 283.7817993164063 240.3480529785156 284.2569274902344 C 240.0497894287109 284.4326171875 239.7436370849609 284.6129455566406 239.4393920898438 284.795166015625 C 239.4439086914063 284.8656921386719 239.448486328125 284.936279296875 239.4530487060547 285.0068359375 C 239.4933319091797 285.6284484863281 239.5350036621094 286.2712707519531 239.5350036621094 286.8778686523438 C 239.5350036621094 296.6260070800781 237.6256866455078 306.0828247070313 233.8601379394531 314.985595703125 C 232.0503234863281 319.2644958496094 229.8103332519531 323.3914184570313 227.2022857666016 327.2518310546875 C 224.619140625 331.0753784179688 221.6526031494141 334.6708679199219 218.3850555419922 337.9384155273438 C 215.1175079345703 341.2059631347656 211.5220031738281 344.1725158691406 207.6984558105469 346.7556457519531 C 203.8380584716797 349.3636779785156 199.7111511230469 351.6036987304688 195.4322357177734 353.4135131835938 C 186.5294647216797 357.1790466308594 177.0726470947266 359.08837890625 167.3245086669922 359.08837890625 Z M 108.065788269043 286.8449401855469 C 108.1048431396484 319.4820861816406 134.6871795654297 346.0649108886719 167.3250579833984 346.1007690429688 C 199.9617919921875 346.0649719238281 226.5441284179688 319.4820861816406 226.5832824707031 286.8449096679688 C 226.5627593994141 285.2987670898438 226.4369812011719 283.7395629882813 226.2094573974609 282.2100524902344 C 226.1746063232422 282.0568237304688 226.1713104248047 281.9136352539063 226.1709899902344 281.7933959960938 C 223.8205718994141 265.8421020507813 211.6493225097656 241.3549652099609 201.8487396240234 223.6147766113281 C 189.6661376953125 201.5628967285156 176.1146850585938 180.6540985107422 167.32470703125 168.1910552978516 C 158.5351867675781 180.6653442382813 144.9868316650391 201.5801696777344 132.8122406005859 223.6147766113281 C 123.0096054077148 241.3565063476563 110.8325805664063 265.8444213867188 108.4661483764648 281.7933349609375 L 108.4661483764648 282.1151123046875 L 108.4661483764648 282.1531982421875 L 108.4603729248047 282.1908569335938 C 108.2250061035156 283.7262573242188 108.0922775268555 285.2919921875 108.065788269043 286.8449401855469 Z M 49.12377548217773 268.1439819335938 L 66.53951263427734 285.5424194335938 L 87.78955078125 269.5901489257813 C 88.91914367675781 268.7439270019531 90.26187133789063 268.2967224121094 91.67292022705078 268.2967224121094 C 93.02814483642578 268.2967224121094 94.32782745361328 268.7125549316406 95.43151092529297 269.4992370605469 L 95.43560028076172 269.5021362304688 L 95.43964385986328 269.5051574707031 C 96.15791320800781 270.0392456054688 96.85994720458984 270.5056762695313 97.65160369873047 271.0144348144531 C 101.0573806762695 259.4638977050781 105.5434417724609 248.1711883544922 110.9921493530273 237.4328765869141 C 103.7354049682617 231.6241760253906 97.45230865478516 224.7709350585938 92.31336975097656 217.0581512451172 C 87.2142333984375 209.4050598144531 83.32669067382813 201.0388641357422 80.75873565673828 192.1920013427734 C 78.19082641601563 183.3450927734375 76.99478149414063 174.1976928710938 77.20387268066406 165.0037841796875 C 77.41764831542969 155.6021423339844 79.10005187988281 146.3175506591797 82.20433044433594 137.4079132080078 C 85.30869293212891 128.4982757568359 89.75996398925781 120.1784591674805 95.43460083007813 112.6795501708984 C 100.9838714599609 105.3462829589844 107.6051940917969 98.92259979248047 115.1146011352539 93.58686828613281 C 122.6240081787109 88.25114440917969 130.8686065673828 84.11200714111328 139.6194152832031 81.28450775146484 C 148.5679168701172 78.39309692382813 157.8891448974609 76.92705535888672 167.3241882324219 76.92705535888672 C 176.7592315673828 76.92705535888672 186.0804595947266 78.39309692382813 195.0290069580078 81.28450775146484 C 203.7798309326172 84.11200714111328 212.0244598388672 88.2510986328125 219.5338745117188 93.58682250976563 C 227.0432739257813 98.92255401611328 233.66455078125 105.3462371826172 239.2138214111328 112.6795043945313 C 244.8884582519531 120.1784133911133 249.3397369384766 128.4982299804688 252.4440612792969 137.4079132080078 C 255.5483245849609 146.3175506591797 257.2307434082031 155.6021423339844 257.4445190429688 165.0037384033203 C 257.6535949707031 174.1976470947266 256.4575500488281 183.3450469970703 253.8896484375 192.1919097900391 C 251.3216857910156 201.0387878417969 247.4341430664063 209.4049682617188 242.3350067138672 217.0580596923828 C 237.1960754394531 224.7708435058594 230.9130096435547 231.6241302490234 223.6562347412109 237.4328765869141 C 229.1032257080078 248.1678161621094 233.5878601074219 259.4557189941406 236.9932403564453 271.00244140625 C 237.0698547363281 270.9517517089844 237.1464233398438 270.9011535644531 237.2229614257813 270.8505554199219 C 237.8780975341797 270.4175415039063 238.5555114746094 269.9698181152344 239.2172393798828 269.4989624023438 C 240.320556640625 268.7125549316406 241.6202392578125 268.2967224121094 242.9754638671875 268.2967224121094 C 244.3865051269531 268.2967224121094 245.7292327880859 268.7439270019531 246.8584136962891 269.5898132324219 L 268.1440124511719 285.5246276855469 L 285.5483093261719 268.1087341308594 L 269.5961303710938 246.8588256835938 C 267.9103698730469 244.6065521240234 267.8661499023438 241.5486907958984 269.4856872558594 239.2490997314453 C 280.1072692871094 224.2745513916016 287.3537292480469 206.7953186035156 290.4426574707031 188.6997375488281 C 290.919189453125 185.9188690185547 293.1156311035156 183.7822418212891 295.9083251953125 183.3827362060547 L 322.1972961425781 179.6196136474609 L 322.1972961425781 155.0293731689453 L 295.9022216796875 151.2603302001953 C 293.1096801757813 150.8607788085938 290.9132385253906 148.7241516113281 290.4366760253906 145.943603515625 C 287.3477783203125 127.8476867675781 280.101318359375 110.3684616088867 269.4806518554688 95.39532470703125 C 267.8601989746094 93.09441375732422 267.9044189453125 90.03655242919922 269.5896911621094 87.78482818603516 L 285.5245971679688 66.49909210205078 L 268.1088256835938 49.10065078735352 L 246.8588256835938 65.05287170410156 C 245.7295074462891 65.89810180664063 244.3876495361328 66.34464263916016 242.9776458740234 66.34464263916016 C 241.6356964111328 66.34464263916016 240.3463745117188 65.93618774414063 239.2490997314453 65.16336822509766 C 224.2745513916016 54.5417366027832 206.7953338623047 47.29528045654297 188.6997375488281 44.20641708374023 C 185.9188690185547 43.72982406616211 183.7822418212891 41.53337097167969 183.3827362060547 38.7407341003418 L 179.6195678710938 12.45173454284668 L 155.0294036865234 12.45173454284668 L 151.2662811279297 38.74668884277344 C 150.8667755126953 41.53932571411133 148.7301483154297 43.73577880859375 145.9496002197266 44.21232604980469 C 127.8536911010742 47.30123519897461 110.3744659423828 54.54769134521484 95.40132904052734 65.16837310791016 C 94.30264282226563 65.94214630126953 93.01328277587891 66.35060119628906 91.67132568359375 66.35060119628906 C 90.26137542724609 66.35060119628906 88.91946411132813 65.90409851074219 87.79077911376953 65.059326171875 L 66.50501251220703 49.12438583374023 L 49.10071563720703 66.54023742675781 L 65.05287170410156 87.79019165039063 C 66.73860168457031 90.04251098632813 66.78282928466797 93.10041809082031 65.16341400146484 95.39996337890625 C 54.54169082641602 110.3744659423828 47.29523468017578 127.853645324707 44.20637130737305 145.9492797851563 C 43.72982788085938 148.7301483154297 41.53337097167969 150.8667755126953 38.74069213867188 151.2662811279297 L 12.45172500610352 155.0294036865234 L 12.45111083984375 179.6196136474609 L 38.74605560302734 183.3827362060547 C 41.53868865966797 183.7822418212891 43.73514556884766 185.9188690185547 44.21168899536133 188.6994171142578 C 47.30051040649414 206.7952423095703 54.54696273803711 224.2744598388672 65.16773223876953 239.2477416992188 C 66.78819274902344 241.5486450195313 66.74396514892578 244.6065521240234 65.05860137939453 246.8582305908203 L 49.12377548217773 268.1439819335938 Z M 90.13804626464844 167.27001953125 L 90.13819122314453 167.3235015869141 C 90.18782806396484 189.7953948974609 99.96255493164063 211.0214996337891 116.981559753418 225.6623077392578 C 129.1485748291016 203.1919403076172 142.6805572509766 181.1479797363281 157.2084655761719 160.1321411132813 C 159.5330047607422 156.8371887207031 163.3237762451172 154.8724212646484 167.3514556884766 154.8724212646484 C 171.3791046142578 154.8724212646484 175.1698760986328 156.8371887207031 177.4916839599609 160.1282348632813 L 177.4931945800781 160.1303253173828 L 177.4946441650391 160.1324615478516 C 192.0005950927734 181.1510925292969 205.5143432617188 203.1946411132813 217.6678009033203 225.6621704101563 C 244.6912536621094 202.4188079833984 252.3125610351563 164.1034393310547 236.1729583740234 132.2589111328125 C 222.9490509033203 106.1674652099609 196.5743713378906 89.95914459228516 167.3415069580078 89.95914459228516 C 161.2884216308594 89.95914459228516 155.2195129394531 90.67942047119141 149.3032836914063 92.09996032714844 C 114.4056015014648 100.4792327880859 90.08272552490234 131.3853149414063 90.13804626464844 167.27001953125 Z" stroke="none"/>
        <path d="M 167.3245086669922 358.58837890625 C 206.9291381835938 358.58837890625 239.0350036621094 326.4825134277344 239.0350036621094 286.8778686523438 C 239.0350036621094 286.1249084472656 238.9692840576172 285.3181762695313 238.9214630126953 284.5233764648438 C 240.2241973876953 283.7345581054688 241.5269622802734 283.0174560546875 242.8296966552734 282.133056640625 L 260.9664611816406 295.7101745605469 C 263.1104431152344 297.3478088378906 265.6532592773438 298.1529846191406 268.1852722167969 298.1529846191406 C 271.2493896484375 298.1529846191406 274.2977600097656 296.9740295410156 276.6053771972656 294.6644287109375 L 294.6524963378906 276.6172790527344 C 298.8578186035156 272.4291076660156 299.3248291015625 265.7789611816406 295.7460632324219 261.0441589355469 L 282.1151123046875 242.8296966552734 C 291.7139587402344 228.3416442871094 298.43359375 212.1410064697266 301.9071960449219 195.1123199462891 L 324.3824768066406 191.8973236083984 C 330.2627868652344 191.0313720703125 334.6267395019531 185.996826171875 334.6490173339844 180.0531005859375 L 334.6490173339844 154.5958709716797 C 334.6208801269531 148.65673828125 330.2583312988281 143.6289215087891 324.3824768066406 142.7636413574219 L 301.9071960449219 139.5486450195313 C 298.43359375 122.5199584960938 291.7139587402344 106.3193283081055 282.1151123046875 91.83128356933594 L 295.6982727050781 73.68255615234375 C 299.3176574707031 68.94400787353516 298.8705444335938 62.25809860229492 294.6524963378906 58.0436897277832 L 276.6053771972656 39.99655151367188 C 274.3009948730469 37.68479919433594 271.252685546875 36.50336074829102 268.18798828125 36.50336074829102 C 265.6809997558594 36.50336074829102 263.1630554199219 37.29389572143555 261.0322265625 38.90296173095703 L 242.8177337646484 52.53391647338867 C 228.3297424316406 42.93505477905273 212.1290588378906 36.21541595458984 195.1003723144531 32.74182510375977 L 191.8853759765625 10.26655292510986 C 191.0200958251953 4.390734672546387 185.9922790527344 0.02818945236504078 180.0531463623047 7.634943358425517e-06 L 154.5959167480469 7.634943358425517e-06 C 148.6567840576172 0.02818945236504078 143.6289215087891 4.390734672546387 142.7636871337891 10.26655292510986 L 139.5486450195313 32.74182510375977 C 122.5199661254883 36.21541595458984 106.3193283081055 42.93505477905273 91.83128356933594 52.53391647338867 L 73.68255615234375 38.95077896118164 C 71.53849792480469 37.31459808349609 68.99571990966797 36.50992584228516 66.46430206298828 36.50992584228516 C 63.40010452270508 36.50992584228516 60.35220336914063 37.68808746337891 58.0436897277832 39.99655151367188 L 39.99655532836914 58.0436897277832 C 35.79119110107422 62.23187255859375 35.32419204711914 68.88201141357422 38.90296173095703 73.61682891845703 L 52.53391647338867 91.83128356933594 C 42.93505477905273 106.3193283081055 36.21541595458984 122.5199584960938 32.74182510375977 139.5486450195313 L 10.26655387878418 142.7636413574219 C 4.390736103057861 143.6289215087891 0.02823594026267529 148.65673828125 8.666992471262347e-06 154.5958709716797 L 8.666992471262347e-06 180.0531005859375 C 0.02819048427045345 185.9922332763672 4.390736103057861 191.0200958251953 10.26655387878418 191.8853759765625 L 32.74182510375977 195.1003723144531 C 36.21541595458984 212.1290588378906 42.93505477905273 228.3297424316406 52.53391647338867 242.8177337646484 L 38.95078277587891 260.9664611816406 C 35.33137130737305 265.7050170898438 35.77846145629883 272.3909301757813 39.99655532836914 276.6053771972656 L 58.0436897277832 294.6524963378906 C 60.2846794128418 296.8909912109375 63.32290267944336 298.1482543945313 66.49011993408203 298.1483764648438 C 66.493408203125 298.1483764648438 66.49626159667969 298.1483764648438 66.49955749511719 298.1483764648438 C 66.52090454101563 298.1484985351563 66.54263305664063 298.1485595703125 66.56397247314453 298.1485595703125 C 69.11329650878906 298.1485595703125 71.59195709228516 297.308837890625 73.61682891845703 295.758056640625 L 91.81932830810547 282.133056640625 C 93.12205505371094 282.9935607910156 94.42482757568359 283.7106323242188 95.72755432128906 284.5233764648438 C 95.67977905273438 285.3181762695313 95.61400604248047 286.1249084472656 95.61400604248047 286.8778686523438 C 95.61400604248047 326.4825134277344 127.7198715209961 358.58837890625 167.3245086669922 358.58837890625 M 167.3245086669922 167.3245086669922 C 185.6824188232422 193.2418670654297 222.4161376953125 252.7257385253906 226.6709594726563 281.7565612792969 C 226.6709594726563 281.8760681152344 226.6709594726563 281.99560546875 226.7008209228516 282.1151123046875 C 226.9346923828125 283.6803283691406 227.0624694824219 285.2595520019531 227.0832824707031 286.8420104980469 C 227.0470123291016 319.8308410644531 200.3132781982422 346.5646057128906 167.3245086669922 346.6007690429688 C 134.335693359375 346.5645446777344 107.6019668579102 319.8308410644531 107.5657806396484 286.8420104980469 C 107.5925064086914 285.2591552734375 107.7262802124023 283.679931640625 107.9661483764648 282.1151123046875 C 107.9661483764648 281.99560546875 107.9661483764648 281.8760681152344 107.9661483764648 281.7565612792969 C 112.2508239746094 252.7257385253906 148.9845581054688 193.2418670654297 167.3245086669922 167.3245086669922 M 66.45768737792969 48.46437072753906 L 88.09037017822266 64.65900421142578 C 89.15048980712891 65.45245361328125 90.41030120849609 65.85060882568359 91.67133331298828 65.85060882568359 C 92.87460327148438 65.85060882568359 94.07898712158203 65.48809051513672 95.11205291748047 64.76055145263672 C 110.2386016845703 54.03105163574219 127.5840530395508 46.84000778198242 145.8651428222656 43.71950912475586 C 148.421875 43.28132629394531 150.4039611816406 41.24373626708984 150.7713317871094 38.67587280273438 L 154.5958709716797 11.95173454284668 L 180.0531005859375 11.95173454284668 L 183.877685546875 38.66991806030273 C 184.2450561523438 41.2377815246582 186.2271423339844 43.27537155151367 188.7838745117188 43.71355438232422 C 207.0649566650391 46.83405303955078 224.4104156494141 54.02509689331055 239.5370025634766 64.75460052490234 C 240.5699310302734 65.48204803466797 241.7745208740234 65.84463500976563 242.9776306152344 65.84463500976563 C 244.2388153076172 65.84463500976563 245.4983978271484 65.44654846191406 246.5586395263672 64.65300750732422 L 268.1554260253906 48.44046401977539 L 286.1846313476563 66.45173645019531 L 269.9900207519531 88.08441925048828 C 268.439453125 90.15609741210938 268.3984680175781 92.99037170410156 269.8884582519531 95.10605621337891 C 280.6179504394531 110.2325973510742 287.8090209960938 127.5780563354492 290.9295043945313 145.8591461181641 C 291.36767578125 148.4159240722656 293.4052734375 150.3979644775391 295.9732055664063 150.7653656005859 L 322.6972961425781 154.5959167480469 L 322.6972961425781 180.0531463623047 L 295.9791564941406 183.877685546875 C 293.4112854003906 184.2450561523438 291.3736572265625 186.2271423339844 290.9355163574219 188.7838745117188 C 287.8149719238281 207.0649566650391 280.6239318847656 224.4104156494141 269.8944702148438 239.5370025634766 C 268.4044494628906 241.6526947021484 268.4454040527344 244.4869689941406 269.9960021972656 246.5586395263672 L 286.2085571289063 268.1554260253906 L 268.1913146972656 286.1846313476563 L 246.5586395263672 269.9900207519531 C 245.4979095458984 269.1953735351563 244.2370147705078 268.7967529296875 242.9754486083984 268.7967529296875 C 241.7610321044922 268.7967529296875 240.5460205078125 269.1658630371094 239.5070953369141 269.9063720703125 C 238.5748748779297 270.5697021484375 237.6426391601563 271.1672668457031 236.7044219970703 271.7947387695313 C 233.2385101318359 259.89111328125 228.6586456298828 248.3404693603516 223.0256500244141 237.2960510253906 C 252.9061889648438 213.5973205566406 264.5198364257813 173.5866394042969 251.9718780517578 137.5724182128906 C 239.4238739013672 101.5581893920898 205.4620971679688 77.42705535888672 167.3241882324219 77.42705535888672 C 129.186279296875 77.42705535888672 95.22464752197266 101.5583267211914 82.67650604248047 137.5724182128906 C 70.12855529785156 173.5866394042969 81.7421875 213.5975036621094 111.6227340698242 237.2960510253906 C 105.9897384643555 248.3404693603516 101.4098739624023 259.89111328125 97.94396209716797 271.7947387695313 C 97.00578308105469 271.1972045898438 96.07350921630859 270.599609375 95.14128112792969 269.9063720703125 C 94.10248565673828 269.1659545898438 92.88719177246094 268.7967529296875 91.67292785644531 268.7967529296875 C 90.41120910644531 268.7967529296875 89.15059661865234 269.1952819824219 88.08973693847656 269.9900207519531 L 66.492919921875 286.2026062011719 L 48.46373748779297 268.1913146972656 L 64.6583251953125 246.5586395263672 C 66.20891571044922 244.4869689941406 66.24991607666016 241.6526947021484 64.75991821289063 239.5370025634766 C 54.03041839599609 224.4104156494141 46.83932495117188 207.0649566650391 43.7188720703125 188.7838745117188 C 43.28068923950195 186.2271423339844 41.24309921264648 184.2450561523438 38.67523574829102 183.877685546875 L 11.95109939575195 180.0531463623047 L 11.951735496521 154.5958709716797 L 38.66987228393555 150.7713317871094 C 41.23773574829102 150.4039611816406 43.27537155151367 148.421875 43.71350860595703 145.8651428222656 C 46.83400726318359 127.5840530395508 54.02505493164063 110.2386016845703 64.75460052490234 95.11205291748047 C 66.24455261230469 92.99636840820313 66.20355224609375 90.16210174560547 64.65300750732422 88.09037017822266 L 48.44046401977539 66.49355316162109 L 66.45768737792969 48.46437072753906 M 167.3514556884766 155.3724212646484 C 163.4806060791016 155.3724212646484 159.8511962890625 157.2535552978516 157.6197357177734 160.4164581298828 C 142.9274139404297 181.6701507568359 129.4096832275391 203.7122802734375 117.1272354125977 226.4439697265625 C 99.73818969726563 211.7220001220703 89.68850708007813 190.1085510253906 89.63819122314453 167.3246002197266 L 89.63814544677734 167.3245086669922 C 89.55878448486328 131.3424682617188 114.1988296508789 100.0146408081055 149.1865539550781 91.61377716064453 C 155.2385101318359 90.16064453125 161.3275299072266 89.45914459228516 167.3414916992188 89.45914459228516 C 196.0956115722656 89.45914459228516 223.1658020019531 105.4891586303711 236.6189575195313 132.0328674316406 C 252.8856964111328 164.1281890869141 244.9836883544922 203.193603515625 217.5219116210938 226.4439697265625 C 205.2533264160156 203.7156372070313 191.7537384033203 181.6736907958984 177.0831451416016 160.4164581298828 C 174.8516845703125 157.2535552978516 171.2223205566406 155.3724212646484 167.3514556884766 155.3724212646484 M 167.3245086669922 359.58837890625 C 157.5090942382813 359.58837890625 147.9867401123047 357.665771484375 139.0219573974609 353.8739929199219 C 134.71337890625 352.0516357421875 130.5577850341797 349.7960510253906 126.6706924438477 347.1699523925781 C 122.8207397460938 344.5690002441406 119.2004623413086 341.5820007324219 115.9104156494141 338.2919616699219 C 112.6203689575195 335.0019226074219 109.6333694458008 331.3816528320313 107.0324172973633 327.5316772460938 C 104.4063262939453 323.6445922851563 102.1507339477539 319.489013671875 100.328369140625 315.180419921875 C 96.53659820556641 306.2156372070313 94.61400604248047 296.6932678222656 94.61400604248047 286.8778686523438 C 94.61400604248047 286.2832641601563 94.65249633789063 285.6629028320313 94.69149017333984 285.06005859375 C 94.3436279296875 284.8486938476563 93.99433898925781 284.6410827636719 93.65287017822266 284.4380493164063 C 93.06651306152344 284.0894775390625 92.46509552001953 283.73193359375 91.86156463623047 283.3505249023438 L 74.22267913818359 296.5536499023438 C 72.03665924072266 298.2271118164063 69.31698608398438 299.1485595703125 66.56396484375 299.1485595703125 L 66.49318695068359 299.1483764648438 L 66.49009704589844 299.1483764648438 C 64.78192138671875 299.1483154296875 63.11555480957031 298.8171081542969 61.53714370727539 298.163818359375 C 59.95864486694336 297.5105590820313 58.54550933837891 296.5671997070313 57.33696365356445 295.3600158691406 L 39.28946304321289 277.3124694824219 C 37.0782356262207 275.1031799316406 35.74541854858398 272.1684265136719 35.53682708740234 269.0491943359375 C 35.32835006713867 265.931640625 36.25748825073242 262.84716796875 38.15301895141602 260.3634948730469 L 51.31229400634766 242.7811126708984 C 46.66560363769531 235.6875457763672 42.66531753540039 228.1259765625 39.41719055175781 220.294921875 C 36.16910934448242 212.4639434814453 33.64296722412109 204.2907867431641 31.90475082397461 195.9907989501953 L 10.12496280670166 192.8752746582031 C 7.042599678039551 192.4213714599609 4.224281311035156 190.8774566650391 2.185099601745605 188.5272827148438 C 0.1459177583456039 186.1771392822266 -0.9852185845375061 183.1692810058594 -0.9999913573265076 180.0578308105469 L -0.9999913573265076 154.5958709716797 C -0.9851731657981873 151.4796447753906 0.1459632068872452 148.4718322753906 2.185145139694214 146.1216888427734 C 4.224281311035156 143.7715606689453 7.042599678039551 142.2276000976563 10.12087249755859 141.7743225097656 L 31.90475082397461 138.6582183837891 C 33.64296722412109 130.3582305908203 36.16910934448242 122.1850738525391 39.41719055175781 114.3540954589844 C 42.66531753540039 106.523078918457 46.66561889648438 98.96145629882813 51.31230545043945 91.86788940429688 L 38.10232543945313 74.21596527099609 C 36.22859954833984 71.73696136474609 35.31514358520508 68.65982818603516 35.53314590454102 65.55523681640625 C 35.75119018554688 62.45059967041016 37.08568954467773 59.53132629394531 39.29091644287109 57.33514404296875 L 57.33660125732422 39.28946304321289 C 59.77391815185547 36.85218811035156 63.01551055908203 35.50991821289063 66.46427917480469 35.50991821289063 C 69.31340789794922 35.50991821289063 72.01764678955078 36.42374420166016 74.28501892089844 38.15264892578125 L 91.86791229248047 51.31229019165039 C 98.96147918701172 46.66560363769531 106.523078918457 42.66531372070313 114.3541030883789 39.41719055175781 C 122.1850738525391 36.16910934448242 130.3582305908203 33.64296722412109 138.6582183837891 31.90475082397461 L 141.7737884521484 10.12496185302734 C 142.2276458740234 7.042598724365234 143.7715606689453 4.22428035736084 146.1217346191406 2.185098648071289 C 148.4718780517578 0.1459167301654816 151.479736328125 -0.9852196574211121 154.5911865234375 -0.9999923706054688 L 180.0531463623047 -0.9999923706054688 C 183.1693267822266 -0.9852196574211121 186.1771850585938 0.1459167301654816 188.5273284912109 2.185098648071289 C 190.8774566650391 4.22428035736084 192.4213714599609 7.042598724365234 192.8746948242188 10.12087154388428 L 195.9907989501953 31.90475082397461 C 204.2907867431641 33.64296722412109 212.4639434814453 36.16910934448242 220.294921875 39.41719055175781 C 228.1259765625 42.66531372070313 235.6875610351563 46.66561889648438 242.7811279296875 51.31230545043945 L 260.43310546875 38.10232543945313 C 262.6834716796875 36.40296173095703 265.3662719726563 35.50337219238281 268.1879577636719 35.50337219238281 C 269.8682250976563 35.50337219238281 271.5072021484375 35.82423400878906 273.059326171875 36.45705413818359 C 274.6576538085938 37.10868835449219 276.0890197753906 38.06200790405273 277.3135986328125 39.29059982299805 L 295.3595886230469 57.33659744262695 C 297.5708312988281 59.54587173461914 298.9035949707031 62.48059844970703 299.1121826171875 65.59986877441406 C 299.3206787109375 68.71738433837891 298.3915710449219 71.80180358886719 296.4960327148438 74.28550720214844 L 283.3367309570313 91.86791229248047 C 287.9833984375 98.96147918701172 291.9837036132813 106.523078918457 295.2318420410156 114.3540954589844 C 298.4799194335938 122.1850738525391 301.0060424804688 130.3582305908203 302.7442626953125 138.6582183837891 L 324.5240478515625 141.7737274169922 C 327.6064758300781 142.2276458740234 330.4247741699219 143.7715606689453 332.4639587402344 146.1216888427734 C 334.5031127929688 148.4718322753906 335.6342468261719 151.4796905517578 335.6490173339844 154.5911407470703 L 335.6490173339844 180.0531005859375 C 335.6373291015625 183.1706848144531 334.5076904296875 186.1814117431641 332.4681396484375 188.5343780517578 C 330.4285888671875 190.8873291015625 327.6087951660156 192.4330139160156 324.5281372070313 192.8866424560547 L 302.7442626953125 196.0027465820313 C 301.0060424804688 204.3027496337891 298.4799194335938 212.4758911132813 295.2318420410156 220.3068695068359 C 291.9837036132813 228.1378936767578 287.9833984375 235.6995239257813 283.3367004394531 242.7930908203125 L 296.5466918945313 260.4450073242188 C 298.42041015625 262.9240112304688 299.3338623046875 266.0011291503906 299.1158752441406 269.1057434082031 C 298.8978271484375 272.2103576660156 297.5633239746094 275.129638671875 295.3581848144531 277.3258361816406 L 277.3124694824219 295.3715209960938 C 276.0867004394531 296.5983581542969 274.6545104980469 297.5504760742188 273.0559997558594 298.2010498046875 C 271.50390625 298.8327331542969 269.8651428222656 299.1530151367188 268.1852416992188 299.1530151367188 C 265.3358764648438 299.1530151367188 262.6319580078125 298.2388305664063 260.3650207519531 296.5090942382813 L 242.7939147949219 283.3554382324219 C 242.0549926757813 283.8318786621094 241.3188171386719 284.2655029296875 240.6018218994141 284.6877746582031 C 240.3899841308594 284.8125305175781 240.1741485595703 284.9396667480469 239.9580688476563 285.0679931640625 C 239.9969024658203 285.6683654785156 240.0350036621094 286.285888671875 240.0350036621094 286.8778686523438 C 240.0350036621094 296.6932678222656 238.1124114990234 306.2156372070313 234.3206481933594 315.180419921875 C 232.4982757568359 319.489013671875 230.2426910400391 323.6445922851563 227.6165924072266 327.5316772460938 C 225.0156402587891 331.3816528320313 222.0286407470703 335.0019226074219 218.7386016845703 338.2919616699219 C 215.4485473632813 341.5820007324219 211.8282775878906 344.5690002441406 207.9783325195313 347.1699523925781 C 204.0912322998047 349.7960510253906 199.9356384277344 352.0516357421875 195.6270599365234 353.8739929199219 C 186.6622772216797 357.665771484375 177.1399230957031 359.58837890625 167.3245086669922 359.58837890625 Z M 108.5657958984375 286.8502502441406 C 108.6077194213867 319.2095947265625 134.9647827148438 345.5652465820313 167.3255920410156 345.6007690429688 C 199.6861724853516 345.5652770996094 226.0444641113281 319.2098693847656 226.0832672119141 286.8477478027344 C 226.0630035400391 285.3310852050781 225.93994140625 283.8018493652344 225.7175445556641 282.30126953125 C 225.6787719726563 282.1218872070313 225.6722717285156 281.9611511230469 225.6711883544922 281.8311767578125 C 223.8081512451172 269.2601623535156 215.4206390380859 249.2153930664063 201.4111022949219 223.8565521240234 C 189.4254302978516 202.1611175537109 176.1146697998047 181.5744018554688 167.3248901367188 169.06005859375 C 158.5356292724609 181.5853424072266 145.2276916503906 202.1780853271484 133.2498779296875 223.8565979003906 C 119.2372970581055 249.2177429199219 110.8418121337891 269.260986328125 108.9661483764648 281.8302917480469 L 108.9661483764648 282.1151123046875 L 108.9661483764648 282.1912841796875 L 108.9545974731445 282.2666015625 C 108.7228088378906 283.7787170410156 108.5920028686523 285.3208618164063 108.5657958984375 286.8502502441406 Z M 49.78383255004883 268.0965881347656 L 66.58613586425781 284.8822021484375 L 87.48937225341797 269.1902770996094 C 88.70659637451172 268.2784118652344 90.15296173095703 267.7967224121094 91.67292022705078 267.7967224121094 C 93.13278198242188 267.7967224121094 94.53282928466797 268.24462890625 95.72168731689453 269.092041015625 L 95.72991943359375 269.0979309082031 L 95.73800659179688 269.1039123535156 C 96.27190399169922 269.5009155273438 96.79875946044922 269.8612976074219 97.36249542236328 270.2309875488281 C 100.7144317626953 259.0041809082031 105.0836029052734 248.0267486572266 110.363037109375 237.5686645507813 C 103.1998443603516 231.7824401855469 96.9898681640625 224.9786376953125 91.89727783203125 217.3353729248047 C 86.76982879638672 209.6398315429688 82.86073303222656 201.2272796630859 80.27855682373047 192.3313751220703 C 77.69641876220703 183.4354553222656 76.49373626708984 174.2373199462891 76.70401000976563 164.9923706054688 C 76.91896057128906 155.5385589599609 78.61068725585938 146.2024230957031 81.73219299316406 137.2434234619141 C 84.85369110107422 128.284423828125 89.32973480224609 119.9184188842773 95.03587341308594 112.3778228759766 C 100.615966796875 105.0038681030273 107.2739639282227 98.5445556640625 114.8249664306641 93.17928314208984 C 122.3759613037109 87.81396484375 130.6663208007813 83.65191650390625 139.4656829833984 80.80873870849609 C 148.4639129638672 77.90128326416016 157.8368682861328 76.42705535888672 167.3241882324219 76.42705535888672 C 176.8115081787109 76.42705535888672 186.1844635009766 77.90123748779297 195.1827392578125 80.80869293212891 C 203.9821014404297 83.65191650390625 212.2724609375 87.81396484375 219.8234558105469 93.17923736572266 C 227.3744659423828 98.54450988769531 234.032470703125 105.0038223266602 239.612548828125 112.3777770996094 C 245.3187408447266 119.9183731079102 249.7946929931641 128.2843780517578 252.9161834716797 137.2434234619141 C 256.0376892089844 146.2024230957031 257.7294311523438 155.5385131835938 257.9443664550781 164.9923706054688 C 258.1546325683594 174.2372741699219 256.9519653320313 183.4354095458984 254.3698272705078 192.3313293457031 C 251.7876434326172 201.2271881103516 247.8785552978516 209.6397399902344 242.7510986328125 217.3353271484375 C 237.6585083007813 224.9785919189453 231.4485321044922 231.7823944091797 224.2853393554688 237.5686492919922 C 229.5620422363281 248.0213165283203 233.9292755126953 258.9923095703125 237.280517578125 270.2130432128906 C 237.8268432617188 269.8511352539063 238.3836517333984 269.4784545898438 238.9273223876953 269.0916137695313 C 240.1155548095703 268.24462890625 241.5155944824219 267.7967224121094 242.9754638671875 267.7967224121094 C 244.4954223632813 267.7967224121094 245.9417877197266 268.2784118652344 247.1581878662109 269.189697265625 L 268.0967102050781 284.8646240234375 L 284.8880615234375 268.0620727539063 L 269.1962890625 247.1590118408203 C 267.3799743652344 244.7323303222656 267.3323364257813 241.4383239746094 269.0768737792969 238.9611968994141 C 279.6563720703125 224.0460052490234 286.8734130859375 206.6377410888672 289.9497680664063 188.6156005859375 C 290.463134765625 185.6197357177734 292.8292236328125 183.3181457519531 295.8374938964844 182.8877868652344 L 321.6972961425781 179.1860961914063 L 321.6972961425781 155.4627838134766 L 295.8312683105469 151.7552337646484 C 292.8232727050781 151.3248748779297 290.4571838378906 149.0232849121094 289.9438781738281 146.0280456542969 C 286.8674621582031 128.0052337646484 279.6504211425781 110.5970077514648 269.0728149414063 95.68460083007813 C 267.3263854980469 93.20478057861328 267.3740234375 89.91078186035156 269.1894226074219 87.48523712158203 L 284.8645629882813 66.54647827148438 L 268.0621948242188 49.76085662841797 L 247.1590118408203 65.45273590087891 C 245.9420013427734 66.3636474609375 244.4965057373047 66.84464263916016 242.9776458740234 66.84464263916016 C 241.5320587158203 66.84464263916016 240.1431884765625 66.40464019775391 238.9611968994141 65.57218933105469 C 224.0460052490234 54.99264526367188 206.6377410888672 47.77560043334961 188.6156005859375 44.69927978515625 C 185.6196899414063 44.18582534790039 183.3181457519531 41.81978225708008 182.8877868652344 38.81155395507813 L 179.1860504150391 12.95173454284668 L 155.4629516601563 12.95173454284668 L 151.76123046875 38.81755447387695 C 151.3308715820313 41.82573318481445 149.0293273925781 44.19178009033203 146.0340576171875 44.70514297485352 C 128.01123046875 47.78155136108398 110.6030120849609 54.99860000610352 95.69059753417969 65.57618713378906 C 94.50578308105469 66.41059875488281 93.11692047119141 66.85060119628906 91.67132568359375 66.85060119628906 C 90.15251159667969 66.85060119628906 88.70700836181641 66.36959838867188 87.49118804931641 65.45960235595703 L 66.55231475830078 49.78438186645508 L 49.76094436645508 66.58689117431641 L 65.45273590087891 87.49000549316406 C 67.26901245117188 89.91677856445313 67.31664276123047 93.21077728271484 65.57218933105469 95.68782806396484 C 54.99264526367188 110.6029586791992 47.77555465698242 128.01123046875 44.69923782348633 146.0334167480469 C 44.18587112426758 149.0292816162109 41.81978225708008 151.3308715820313 38.81150817871094 151.76123046875 L 12.95171451568604 155.4629211425781 L 12.95112133026123 179.1860809326172 L 38.81691741943359 182.8877868652344 C 41.82509994506836 183.3181457519531 44.19114685058594 185.6196899414063 44.70450973510742 188.6149597167969 C 47.7808723449707 206.6376953125 54.99791717529297 224.0459594726563 65.57555389404297 238.9584655761719 C 67.32205200195313 241.4383239746094 67.27437591552734 244.7322845458984 65.45891571044922 247.1578674316406 L 49.78383255004883 268.0965881347656 Z M 90.63802337646484 167.2506103515625 L 90.63819122314453 167.3223724365234 C 90.68705749511719 189.4410705566406 100.2200927734375 210.3458099365234 116.8387603759766 224.8765869140625 C 128.9374084472656 202.5798797607422 142.3770751953125 180.7077026367188 156.7971496582031 159.8478240966797 L 156.7998657226563 159.8438720703125 L 156.8026428222656 159.8399658203125 C 159.2180023193359 156.4163665771484 163.1615142822266 154.3724212646484 167.3514556884766 154.3724212646484 C 171.5414123535156 154.3724212646484 175.4848785400391 156.4163665771484 177.9002380371094 159.8399658203125 L 177.9032287597656 159.8441925048828 L 177.9061889648438 159.8484649658203 C 192.3043823242188 180.7110595703125 205.7257537841797 202.5824737548828 217.8108825683594 224.8763580322266 C 244.2790069580078 201.7453155517578 251.6685180664063 163.9386596679688 235.7269592285156 132.4849548339844 C 222.5886840820313 106.5625076293945 196.3849182128906 90.45914459228516 167.3415069580078 90.45914459228516 C 161.3276977539063 90.45914459228516 155.2980499267578 91.17478179931641 149.4200134277344 92.58614349365234 C 114.754753112793 100.9095993041992 90.59192657470703 131.6067352294922 90.63802337646484 167.2506103515625 Z" stroke="none" fill="#fff"/>
      </g>
      <g id="Shape-2" data-name="Shape" transform="translate(99.517 233.866)" fill="#fff">
        <path d="M 67.80699157714844 101.2828826904297 L 67.80671691894531 101.2828826904297 L 67.80643463134766 101.2828826904297 C 61.28805541992188 101.2755584716797 54.96492385864258 99.99343872070313 49.0126953125 97.47213745117188 C 43.26324462890625 95.03673553466797 38.0993766784668 91.55323028564453 33.66451644897461 87.11837005615234 C 29.22966575622559 82.68351745605469 25.74615478515625 77.51964569091797 23.31074523925781 71.77020263671875 C 20.7894458770752 65.81796264648438 19.50732421875 59.49482727050781 19.5000057220459 52.97644805908203 C 19.5000057220459 49.40507888793945 22.40506553649902 46.50001907348633 25.97587585449219 46.50001907348633 C 29.54668426513672 46.50001907348633 32.45175552368164 49.40507888793945 32.45175552368164 52.97588729858398 C 32.47121429443359 72.45117950439453 48.33173370361328 88.31169891357422 67.8074951171875 88.33113098144531 C 71.37781524658203 88.33113098144531 74.28288269042969 91.23619842529297 74.28288269042969 94.8070068359375 C 74.28288269042969 98.37781524658203 71.37781524658203 101.2828826904297 67.80699157714844 101.2828826904297 Z" stroke="none"/>
        <path d="M 67.80699157714844 100.7828826904297 C 71.10738372802734 100.7828826904297 73.78288269042969 98.10739898681641 73.78288269042969 94.8070068359375 C 73.78288269042969 91.50662994384766 71.10738372802734 88.83113098144531 67.80699157714844 88.83113098144531 C 48.01287460327148 88.81137847900391 31.97153472900391 72.77001190185547 31.95175552368164 52.97588729858398 C 31.95175552368164 49.67551803588867 29.27626609802246 47.00001907348633 25.97587585449219 47.00001907348633 C 22.67549514770508 47.00001907348633 20.0000057220459 49.67551803588867 20.0000057220459 52.97588729858398 C 20.02963447570801 79.36667633056641 41.41622543334961 100.7532501220703 67.80699157714844 100.7828826904297 M 67.80699157714844 101.7828826904297 L 67.80643463134766 101.7828826904297 L 67.80587768554688 101.7828826904297 C 61.22031402587891 101.7754898071289 54.83176422119141 100.4800415039063 48.81767654418945 97.93254089355469 C 43.00872421264648 95.47193145751953 37.7915153503418 91.95246887207031 33.31096649169922 87.47193145751953 C 28.83041572570801 82.99137878417969 25.31095504760742 77.774169921875 22.85034561157227 71.96521759033203 C 20.3028450012207 65.95112609863281 19.00739479064941 59.56256866455078 19.0000057220459 52.97700881958008 C 19.0000057220459 49.12937927246094 22.12936592102051 46.00001907348633 25.97587585449219 46.00001907348633 C 29.82238578796387 46.00001907348633 32.95175552368164 49.12937927246094 32.95175552368164 52.97588729858398 C 32.97094345092773 72.17552947998047 48.60738372802734 87.81196594238281 67.80799865722656 87.83113098144531 C 71.65351867675781 87.83113098144531 74.78288269042969 90.96050262451172 74.78288269042969 94.8070068359375 C 74.78288269042969 98.65351867675781 71.65351867675781 101.7828826904297 67.80699157714844 101.7828826904297 Z" stroke="none" fill="#fff"/>
      </g>
      <g id="Shape-3" data-name="Shape" transform="translate(44.782 47.225)" fill="#fff">
        <path d="M 14.97667217254639 126.5751724243164 C 13.24688816070557 126.5751571655273 11.62064170837402 125.9015426635742 10.39751815795898 124.6784210205078 C 9.174380302429199 123.4552612304688 8.50078010559082 121.8290328979492 8.50078010559082 120.0992660522461 C 8.448164939880371 107.0897750854492 10.59839534759521 94.29685211181641 14.89173412322998 82.07789611816406 C 19.07364082336426 70.17607879638672 25.17764091491699 59.11693954467773 33.03419494628906 49.20764923095703 C 40.89075088500977 39.29837036132813 50.26651763916016 30.83323287963867 60.90107345581055 24.04740333557129 C 71.81900787353516 17.08074188232422 83.78450012207031 12.06984901428223 96.46517944335938 9.153910636901855 C 96.94087219238281 9.045618057250977 97.42625427246094 8.990833282470703 97.90892028808594 8.990833282470703 C 99.34721374511719 8.990833282470703 100.7658996582031 9.482402801513672 101.9036560058594 10.37495708465576 C 103.05859375 11.28098773956299 103.8781051635742 12.56881809234619 104.211181640625 14.00121879577637 C 104.6016998291016 15.68048000335693 104.316780090332 17.41247940063477 103.4089050292969 18.87814140319824 C 102.5010299682617 20.34380340576172 101.0772399902344 21.37035751342773 99.39982604980469 21.76869583129883 C 53.31711959838867 32.37863540649414 21.26539611816406 72.81250762939453 21.45253372192383 120.097297668457 C 21.45253372192383 123.6700973510742 18.54747200012207 126.5751724243164 14.97667217254639 126.5751724243164 Z" stroke="none"/>
        <path d="M 14.97667217254639 126.0751724243164 C 18.27704238891602 126.0751724243164 20.95253372192383 123.3996810913086 20.95253372192383 120.0992813110352 C 20.76574897766113 72.90349578857422 53.29145812988281 31.87146377563477 99.2843017578125 21.28221893310547 C 102.4848098754883 20.52220344543457 104.4692687988281 17.31849479675293 103.7241821289063 14.11446475982666 C 103.0828018188477 11.35632038116455 100.6262969970703 9.490840911865234 97.90891265869141 9.490840911865234 C 97.46963500976563 9.490840911865234 97.02358245849609 9.539583206176758 96.57722473144531 9.64118766784668 C 45.15588760375977 21.46560287475586 8.787425994873047 67.33635711669922 9.00078010559082 120.0992660522461 C 9.00078010559082 121.6841735839844 9.630364418029785 123.2041397094727 10.75107192993164 124.3248672485352 C 11.87176513671875 125.445556640625 13.39174938201904 126.0751571655273 14.97664165496826 126.0751571655273 L 14.97667217254639 126.0751724243164 M 14.97667217254639 127.0751724243164 L 14.97665691375732 127.0751724243164 C 13.11331844329834 127.0751571655273 11.36151885986328 126.3495254516602 10.04396438598633 125.0319747924805 C 8.726395606994629 123.7143859863281 8.00078010559082 121.9625854492188 8.00078010559082 120.0992660522461 C 7.947949409484863 107.0345077514648 10.10768795013428 94.18514251708984 14.42001056671143 81.91213989257813 C 18.62036514282227 69.95781707763672 24.75127220153809 58.84992599487305 32.64239501953125 48.89701843261719 C 40.53353500366211 38.94411087036133 49.95062637329102 30.44167900085449 60.63211822509766 23.62590980529785 C 71.59833526611328 16.62843322753906 83.61662292480469 11.59540271759033 96.35311889648438 8.666618347167969 C 96.86628723144531 8.54981803894043 97.38900756835938 8.490833282470703 97.90892028808594 8.490833282470703 C 99.45858001708984 8.490833282470703 100.9868698120117 9.020249366760254 102.212272644043 9.98155689239502 C 103.4565353393555 10.95767974853516 104.3393783569336 12.34500312805176 104.6981964111328 13.88797187805176 C 105.1188583374023 15.69688034057617 104.8119354248047 17.56260299682617 103.8339614868164 19.14143371582031 C 102.8559951782227 20.72026443481445 101.3222885131836 21.82608032226563 99.51535034179688 22.25515747070313 L 99.51200866699219 22.25595664978027 L 99.50867462158203 22.2567253112793 C 53.65856552124023 32.8131103515625 21.76631927490234 73.04579925537109 21.95251846313477 120.095329284668 C 21.95253372192383 123.94580078125 18.82317924499512 127.0751724243164 14.97667217254639 127.0751724243164 Z" stroke="none" fill="#fff"/>
      </g>
      <g id="Oval" transform="translate(161.818 54.43)" fill="#fff" stroke="#fff" stroke-width="1">
        <circle cx="5.884" cy="5.884" r="5.884" stroke="none"/>
        <circle cx="5.884" cy="5.884" r="6.384" fill="none"/>
      </g>
    </g>
  </g>
</svg>
