<svg xmlns="http://www.w3.org/2000/svg" width="363.378" height="360.588" viewBox="0 0 363.378 360.588">
  <g id="icon-energy" transform="translate(1 1)">
    <g id="Group_12" data-name="Group 12" transform="translate(0 72.624)">
      <g id="Group_11" data-name="Group 11">
        <g id="Path_104" data-name="Path 104" transform="translate(0 -104.869)" fill="#fff">
          <path d="M 57.91420745849609 365.6964721679688 C 53.96277618408203 365.6964721679688 50.11180877685547 364.9486389160156 46.46830749511719 363.4737854003906 C 42.69510650634766 361.9463806152344 39.31274032592773 359.7029113769531 36.41517639160156 356.8056945800781 C 33.79477310180664 354.1849670410156 31.70164108276367 351.154541015625 30.19394111633301 347.7985229492188 C 28.73780822753906 344.5573425292969 27.86747550964355 341.107177734375 27.60710906982422 337.5438842773438 C 27.09023094177246 330.4692993164063 29.04766654968262 323.4385681152344 33.12372589111328 317.7030029296875 C 22.51743316650391 302.8767700195313 14.26846790313721 286.6694946289063 8.603374481201172 269.5252685546875 C 2.894974946975708 252.2499084472656 -0.1588250696659088 234.1164398193359 -0.4731583893299103 215.6285095214844 C -1.13705837726593 176.5686645507813 10.43230819702148 139.1929321289063 32.98417663574219 107.5419387817383 C 34.39977645874023 105.5552368164063 36.70304107666016 104.369140625 39.14540863037109 104.369140625 C 40.72240829467773 104.369140625 42.23700714111328 104.8544387817383 43.52550888061523 105.7725372314453 C 46.91937637329102 108.1907730102539 47.71343994140625 112.9195709228516 45.2956428527832 116.3138732910156 C 4.566974639892578 173.4753112792969 4.348258972167969 250.4162445068359 44.71036911010742 307.9112243652344 C 46.68163681030273 306.9593811035156 48.7563591003418 306.2225036621094 50.88380813598633 305.7189025878906 C 53.17414093017578 305.1768188476563 55.53950881958008 304.9019165039063 57.91420745849609 304.9019165039063 C 66.03520965576172 304.9019165039063 73.67041015625 308.0646667480469 79.41330718994141 313.8075256347656 C 91.2672119140625 325.6621704101563 91.2672119140625 344.9510803222656 79.41330718994141 356.8056640625 C 76.51570892333984 359.7029113769531 73.13333892822266 361.9463806152344 69.360107421875 363.4737854003906 C 65.71660614013672 364.9486389160156 61.86564254760742 365.6964721679688 57.91420745849609 365.6964721679688 Z M 57.91353988647461 320.0175476074219 C 53.83050918579102 320.0175476074219 49.99157333374023 321.6078796386719 47.10390853881836 324.49560546875 C 44.22094345092773 327.3782043457031 42.63323974609375 331.2173156738281 42.63323974609375 335.3056640625 C 42.63323974609375 339.3940734863281 44.22094345092773 343.2333374023438 47.10390853881836 346.1162719726563 C 49.98647308349609 348.9988708496094 53.82534027099609 350.5863952636719 57.9133415222168 350.5863952636719 C 62.0013427734375 350.5863952636719 65.84060668945313 348.9988708496094 68.72390747070313 346.1162414550781 C 71.6068115234375 343.233642578125 73.19447326660156 339.39453125 73.19440460205078 335.3062133789063 C 73.19430541992188 331.2177734375 71.60640716552734 327.3785095214844 68.72317504882813 324.49560546875 C 65.83614349365234 321.6078796386719 61.99720764160156 320.0175476074219 57.91353988647461 320.0175476074219 Z" stroke="none"/>
          <path d="M 57.91420745849609 365.1964721679688 C 65.57231140136719 365.1964721679688 73.22970581054688 362.2814636230469 79.05973815917969 356.4521484375 C 90.71910858154297 344.7920837402344 90.71910858154297 325.8211669921875 79.05973815917969 314.1611022949219 C 73.41110992431641 308.5124816894531 65.9012451171875 305.4019165039063 57.91420745849609 305.4019165039063 C 53.19584274291992 305.4019165039063 48.64757537841797 306.4959106445313 44.5474739074707 308.5484619140625 C 4.257408142089844 251.4662780761719 4.117674827575684 173.2442016601563 44.88840866088867 116.0237731933594 C 47.14984130859375 112.849006652832 46.41014099121094 108.4418716430664 43.23537445068359 106.1797409057617 C 41.99329376220703 105.2947082519531 40.5625114440918 104.8691482543945 39.14542388916016 104.8691482543945 C 36.94042587280273 104.8691482543945 34.76848220825195 105.8993835449219 33.39137649536133 107.8320693969727 C 10.90197467803955 139.3954010009766 -0.6352917551994324 176.6681365966797 0.02677493169903755 215.6200103759766 C 0.657041609287262 252.6887359619141 12.29594135284424 287.8524780273438 33.73934173583984 317.7035827636719 C 25.21874237060547 329.391845703125 26.22734069824219 345.9093933105469 36.76870727539063 356.4521484375 C 42.5987434387207 362.2814636230469 50.25610733032227 365.1964721679688 57.91420745849609 365.1964721679688 M 57.91353988647461 319.5175476074219 C 62.13007354736328 319.5175476074219 66.09534454345703 321.1599426269531 69.07670593261719 324.1420288085938 C 75.23350524902344 330.2981262207031 75.23350524902344 340.3143920898438 69.07740783691406 346.4698486328125 C 65.99899291992188 349.5475463867188 61.95607376098633 351.0863952636719 57.91333770751953 351.0863952636719 C 53.87060165405273 351.0863952636719 49.82804107666016 349.5475463867188 46.75034332275391 346.4698486328125 C 40.59420776367188 340.3136901855469 40.59420776367188 330.2974853515625 46.75034332275391 324.1420288085938 C 49.73240661621094 321.1599426269531 53.69697570800781 319.5175476074219 57.91353988647461 319.5175476074219 M 57.91420745849609 366.1964721679688 C 53.89813995361328 366.1964721679688 49.98407363891602 365.4363708496094 46.28070831298828 363.9372253417969 C 42.44504165649414 362.3845825195313 39.00683975219727 360.1041259765625 36.06164169311523 357.1592712402344 C 33.39813995361328 354.4954223632813 31.27054214477539 351.4149780273438 29.73784065246582 348.0034484863281 C 28.2577075958252 344.7088317871094 27.37307548522949 341.2019958496094 27.10844230651855 337.5802917480469 C 26.59181785583496 330.5094299316406 28.50731468200684 323.4814147949219 32.51114654541016 317.7054748535156 C 21.97438430786133 302.9163513183594 13.77288436889648 286.7633972167969 8.128641128540039 269.68212890625 C 2.404374837875366 252.3588409423828 -0.6578917503356934 234.1754302978516 -0.973091721534729 215.6370086669922 C -1.638825058937073 176.4694976806641 9.962608337402344 138.9905090332031 32.57697677612305 107.2517700195313 C 34.08617401123047 105.1336669921875 36.54167556762695 103.869140625 39.14540863037109 103.869140625 C 40.82704162597656 103.869140625 42.44197463989258 104.3865051269531 43.815673828125 105.3653335571289 C 47.43400955200195 107.9435348510742 48.28060913085938 112.9851379394531 45.70290756225586 116.6039352416992 C 5.178945541381836 173.4780426025391 4.8813796043396 249.994384765625 44.87773895263672 307.2784729003906 C 46.76615142822266 306.3988037109375 48.74393081665039 305.7116088867188 50.76864242553711 305.2323608398438 C 53.09667587280273 304.6813049316406 55.50077438354492 304.4019165039063 57.91420745849609 304.4019165039063 C 66.16877746582031 304.4019165039063 73.92951202392578 307.6166687011719 79.76683807373047 313.4540100097656 C 91.81571197509766 325.5035705566406 91.81571197509766 345.1096801757813 79.76687622070313 357.1592407226563 C 76.82160949707031 360.1041259765625 73.38340759277344 362.3845825195313 69.54770660400391 363.9372253417969 C 65.84434509277344 365.4363708496094 61.93027496337891 366.1964721679688 57.91420745849609 366.1964721679688 Z M 57.91353988647461 320.5175476074219 C 53.96407318115234 320.5175476074219 50.25070953369141 322.0558776855469 47.45744323730469 324.8491516113281 C 44.66894149780273 327.6373291015625 43.13323974609375 331.3508605957031 43.13323974609375 335.3056640625 C 43.13323974609375 339.260498046875 44.66894149780273 342.9742431640625 47.45744323730469 345.7627258300781 C 50.24560928344727 348.5509033203125 53.95890808105469 350.0863952636719 57.9133415222168 350.0863952636719 C 61.8678092956543 350.0863952636719 65.58154296875 348.5508728027344 68.37037658691406 345.7626342773438 C 71.15884399414063 342.9745178222656 72.69447326660156 339.2609558105469 72.69440460205078 335.3062133789063 C 72.69430541992188 331.3513488769531 71.15840911865234 327.6376342773438 68.36964416503906 324.8491821289063 C 65.57697296142578 322.0558471679688 61.86363983154297 320.5175476074219 57.91353988647461 320.5175476074219 Z" stroke="none" fill="#fff"/>
        </g>
      </g>
    </g>
    <g id="Group_14" data-name="Group 14" transform="translate(97.403 36.299)">
      <g id="Group_13" data-name="Group 13">
        <g id="Path_105" data-name="Path 105" transform="translate(-138 -53.404)" fill="#fff">
          <path d="M 247.7479858398438 376.1934814453125 C 243.8016815185547 376.1934814453125 239.9225616455078 375.5147399902344 236.2183990478516 374.1761474609375 C 232.4883117675781 372.8281860351563 229.0455627441406 370.8502502441406 225.9856872558594 368.2971801757813 C 218.2527770996094 361.844482421875 213.8177337646484 352.3662719726563 213.8177337646484 342.2928466796875 L 213.8177337646484 291.0580139160156 L 213.5222778320313 291.0580139160156 C 205.0736083984375 291.0580139160156 198.2001495361328 284.1845397949219 198.2001495361328 275.7358703613281 L 198.2001495361328 264.1622009277344 C 192.3536376953125 261.8941955566406 186.8742370605469 258.7768249511719 181.9094390869141 254.8934020996094 C 176.9003601074219 250.9754028320313 172.5088195800781 246.3520660400391 168.8568115234375 241.1519012451172 C 165.1559753417969 235.8822784423828 162.2842254638672 230.1173553466797 160.3212738037109 224.0172424316406 C 158.2918548583984 217.7106170654297 157.2628479003906 211.1267852783203 157.2628479003906 204.4485321044922 L 157.2628479003906 171.4106597900391 C 154.53857421875 170.6252593994141 151.9612426757813 169.4214477539063 149.5968475341797 167.8294067382813 C 147.1645202636719 166.191650390625 145.0193176269531 164.1856079101563 143.2207641601563 161.8669891357422 C 141.4031524658203 159.5238647460938 139.9885559082031 156.9237365722656 139.0163116455078 154.1389007568359 C 138.0101928710938 151.2570343017578 137.5000152587891 148.2361145019531 137.5000152587891 145.1600341796875 C 137.5000152587891 138.5028686523438 139.9323883056641 132.0858154296875 144.3491516113281 127.0910720825195 C 148.6283569335938 122.2517929077148 154.4529876708984 119.0857543945313 160.7919311523438 118.1436080932617 L 160.7919311523438 74.57848358154297 C 160.7919311523438 62.62711334228516 170.5150604248047 52.90398788452148 182.4664001464844 52.90398788452148 C 194.417724609375 52.90398788452148 204.1408538818359 62.62711334228516 204.1408538818359 74.57848358154297 L 204.1408538818359 117.8390274047852 L 238.431640625 117.8390274047852 L 238.431640625 74.57848358154297 C 238.431640625 62.62711334228516 248.1547698974609 52.90398788452148 260.1061096191406 52.90398788452148 C 272.0574340820313 52.90398788452148 281.780517578125 62.62711334228516 281.780517578125 74.57848358154297 L 281.780517578125 118.1436080932617 C 288.119384765625 119.0857543945313 293.9440612792969 122.2518768310547 298.2233276367188 127.0913162231445 C 302.6400756835938 132.0861511230469 305.0724487304688 138.5031127929688 305.0724487304688 145.1600341796875 C 305.0724487304688 148.2361145019531 304.562255859375 151.2570343017578 303.55615234375 154.1389007568359 C 302.5838928222656 156.9237365722656 301.1693115234375 159.5238189697266 299.3516845703125 161.8669891357422 C 297.5531311035156 164.1856079101563 295.4079284667969 166.191650390625 292.9756469726563 167.8294067382813 C 290.6112365722656 169.4214477539063 288.0339050292969 170.6252593994141 285.3096313476563 171.4106597900391 L 285.3096313476563 204.4485321044922 C 285.3096313476563 211.1267852783203 284.2806396484375 217.7106170654297 282.251220703125 224.0172424316406 C 280.2882690429688 230.1173553466797 277.4164733886719 235.8822784423828 273.7156982421875 241.1519012451172 C 270.0636596679688 246.3520660400391 265.672119140625 250.9754028320313 260.6630554199219 254.8934020996094 C 255.6982574462891 258.7768249511719 250.2188568115234 261.8941955566406 244.3723602294922 264.1622009277344 L 244.3723602294922 275.7351684570313 C 244.3723602294922 284.1838073730469 237.4989013671875 291.0572814941406 229.0502319335938 291.0572814941406 L 228.9340209960938 291.0572814941406 L 228.9340209960938 342.2922058105469 C 228.9340209960938 347.8704528808594 231.3894348144531 353.1182861328125 235.6706390380859 356.6901550292969 C 239.0599365234375 359.5180358886719 243.3540191650391 361.0753173828125 247.7619323730469 361.0751037597656 C 248.9033050537109 361.0750427246094 250.0539398193359 360.9708557128906 251.1818084716797 360.7654724121094 C 275.665771484375 356.3091125488281 298.2803649902344 346.6791381835938 318.3973388671875 332.14306640625 C 319.69482421875 331.2059936523438 321.2236022949219 330.7107238769531 322.8185729980469 330.7107238769531 C 325.2412719726563 330.7107238769531 327.5329284667969 331.8816833496094 328.9487609863281 333.8431396484375 C 331.3893127441406 337.2209167480469 330.6267700195313 341.954833984375 327.2488098144531 344.3956604003906 C 305.291015625 360.2623596191406 280.6090698242188 370.7737426757813 253.8884735107422 375.6376953125 C 251.8628082275391 376.0065002441406 249.7968597412109 376.1934814453125 247.7479858398438 376.1934814453125 Z M 221.5618896484375 275.9416809082031 L 229.0509033203125 275.9416809082031 C 229.1643981933594 275.9416809082031 229.2567291259766 275.849365234375 229.2567291259766 275.7358703613281 L 229.2567291259766 267.9747314453125 C 226.6137542724609 268.3047485351563 223.9356536865234 268.4718933105469 221.2869415283203 268.4718933105469 C 218.6382293701172 268.4718933105469 215.9601135253906 268.3047485351563 213.317138671875 267.9747314453125 L 213.317138671875 275.7358703613281 C 213.317138671875 275.849365234375 213.4101104736328 275.9416809082031 213.5243988037109 275.9416809082031 L 221.1926879882813 275.9416809082031 C 221.209716796875 275.941162109375 221.2266845703125 275.9397583007813 221.24365234375 275.9385375976563 C 221.2805633544922 275.9358215332031 221.3265228271484 275.9324951171875 221.3772735595703 275.9324951171875 C 221.4280242919922 275.9324951171875 221.4739837646484 275.9358215332031 221.5108947753906 275.9385375976563 C 221.5278625488281 275.9397583007813 221.5448303222656 275.941162109375 221.5618896484375 275.9416809082031 Z M 172.3798522949219 172.4810333251953 L 172.3798522949219 204.4485321044922 C 172.3798522949219 231.4159851074219 194.3194732666016 253.3556060791016 221.2869415283203 253.3556060791016 C 248.25439453125 253.3556060791016 270.1940307617188 231.4159851074219 270.1940307617188 204.4485321044922 L 270.1940307617188 172.4810333251953 L 172.3798522949219 172.4810333251953 Z M 164.8216857910156 132.9553680419922 C 158.0920257568359 132.9553680419922 152.6170196533203 138.4303588867188 152.6170196533203 145.1600341796875 C 152.6170196533203 151.8897399902344 158.0920257568359 157.3647308349609 164.8216857910156 157.3647308349609 L 277.752197265625 157.3647308349609 C 284.4818420410156 157.3647308349609 289.9568481445313 151.8897399902344 289.9568481445313 145.1600341796875 C 289.9568481445313 138.4303588867188 284.4818420410156 132.9553680419922 277.752197265625 132.9553680419922 L 164.8216857910156 132.9553680419922 Z M 253.5486450195313 117.8390274047852 L 266.6649475097656 117.8390274047852 L 266.6649475097656 74.57848358154297 C 266.6649475097656 70.96231842041016 263.7229309082031 68.02031707763672 260.1067810058594 68.02031707763672 C 256.4906005859375 68.02031707763672 253.5486450195313 70.96231842041016 253.5486450195313 74.57848358154297 L 253.5486450195313 117.8390274047852 Z M 175.908935546875 117.8390274047852 L 189.0252685546875 117.8390274047852 L 189.0252685546875 74.57848358154297 C 189.0252685546875 70.96231842041016 186.0832672119141 68.02031707763672 182.4671020507813 68.02031707763672 C 178.8509368896484 68.02031707763672 175.908935546875 70.96231842041016 175.908935546875 74.57848358154297 L 175.908935546875 117.8390274047852 Z" stroke="none"/>
          <path d="M 247.7479858398438 375.6934814453125 C 249.7588500976563 375.6934814453125 251.7831420898438 375.5127868652344 253.7989349365234 375.1457824707031 C 280.44482421875 370.29541015625 305.0587158203125 359.8133544921875 326.9559936523438 343.9903564453125 C 330.1159362792969 341.7070617675781 330.8259887695313 337.2949829101563 328.5433654785156 334.1357727050781 C 327.1648254394531 332.2260437011719 325.007568359375 331.2107238769531 322.8185424804688 331.2107238769531 C 321.3862915039063 331.2107238769531 319.9405212402344 331.6452941894531 318.690185546875 332.5483703613281 C 298.5122985839844 347.12841796875 275.8295288085938 356.7875366210938 251.2713928222656 361.2574157714844 C 250.1023712158203 361.4702758789063 248.9276275634766 361.5750427246094 247.7619781494141 361.5751037597656 C 243.2537994384766 361.5753173828125 238.8683166503906 360.0093688964844 235.3503570556641 357.0740661621094 C 230.9545135498047 353.4066162109375 228.4340209960938 348.0184326171875 228.4340209960938 342.2922058105469 L 228.4340209960938 290.5572814941406 L 229.0502319335938 290.5572814941406 C 237.2228546142578 290.5572814941406 243.8723602294922 283.9085388183594 243.8723602294922 275.7351684570313 L 243.8723602294922 263.81884765625 C 267.7803955078125 254.6926879882813 284.8096313476563 231.5236053466797 284.8096313476563 204.4485321044922 L 284.8096313476563 171.0316925048828 C 296.1845703125 167.9246978759766 304.5724487304688 157.5061492919922 304.5724487304688 145.1600341796875 C 304.5724487304688 131.568115234375 294.4066162109375 120.3124847412109 281.280517578125 118.5783233642578 L 281.280517578125 74.57848358154297 C 281.280517578125 62.90286254882813 271.7816772460938 53.40398788452148 260.1061096191406 53.40398788452148 C 248.4304809570313 53.40398788452148 238.931640625 62.90286254882813 238.931640625 74.57848358154297 L 238.931640625 118.3390274047852 L 203.6408538818359 118.3390274047852 L 203.6408538818359 74.57848358154297 C 203.6408538818359 62.90286254882813 194.1419830322266 53.40398788452148 182.4664001464844 53.40398788452148 C 170.790771484375 53.40398788452148 161.2919311523438 62.90286254882813 161.2919311523438 74.57848358154297 L 161.2919311523438 118.5783233642578 C 148.1658477783203 120.3124847412109 138.0000152587891 131.5674438476563 138.0000152587891 145.1600341796875 C 138.0000152587891 157.5061492919922 146.3878936767578 167.9246978759766 157.7628479003906 171.0316925048828 L 157.7628479003906 204.4485321044922 C 157.7628479003906 231.5236053466797 174.7920684814453 254.6926879882813 198.7001495361328 263.81884765625 L 198.7001495361328 275.7358703613281 C 198.7001495361328 283.9091796875 205.3496398925781 290.5580139160156 213.5222778320313 290.5580139160156 L 214.3177337646484 290.5580139160156 L 214.3177337646484 342.2928466796875 C 214.3177337646484 352.2180786132813 218.6874389648438 361.5559997558594 226.3060150146484 367.9132690429688 C 232.3865966796875 372.9866943359375 239.9642333984375 375.6934814453125 247.7479858398438 375.6934814453125 M 221.3772735595703 276.4324951171875 C 221.3179779052734 276.4324951171875 221.2593994140625 276.4402770996094 221.2001495361328 276.4416809082031 L 213.5243988037109 276.4416809082031 C 213.1333465576172 276.4416809082031 212.817138671875 276.1247863769531 212.817138671875 275.7358703613281 L 212.817138671875 267.4058532714844 C 215.5888977050781 267.777099609375 218.4156799316406 267.9718933105469 221.2869415283203 267.9718933105469 C 224.1581878662109 267.9718933105469 226.9849853515625 267.777099609375 229.7567291259766 267.4058532714844 L 229.7567291259766 275.7358703613281 C 229.7567291259766 276.1247863769531 229.4405212402344 276.4416809082031 229.0509033203125 276.4416809082031 L 221.5544738769531 276.4416809082031 C 221.4951477050781 276.4402770996094 221.4365997314453 276.4324951171875 221.3772735595703 276.4324951171875 M 171.8798522949219 171.9810333251953 L 270.6940307617188 171.9810333251953 L 270.6940307617188 204.4485321044922 C 270.6940307617188 231.6915740966797 248.5300140380859 253.8556060791016 221.2869415283203 253.8556060791016 C 194.0438995361328 253.8556060791016 171.8798522949219 231.6916046142578 171.8798522949219 204.4485321044922 L 171.8798522949219 171.9810333251953 M 164.8216857910156 132.4553680419922 L 277.752197265625 132.4553680419922 C 284.7573852539063 132.4553680419922 290.4568481445313 138.1548156738281 290.4568481445313 145.1600341796875 C 290.4568481445313 152.1652374267578 284.7573852539063 157.8647308349609 277.752197265625 157.8647308349609 L 164.8216857910156 157.8647308349609 C 157.8164825439453 157.8647308349609 152.1170196533203 152.1652374267578 152.1170196533203 145.1600341796875 C 152.1170196533203 138.1548156738281 157.8164825439453 132.4553680419922 164.8216857910156 132.4553680419922 M 260.1067810058594 67.52031707763672 C 263.9986572265625 67.52031707763672 267.1649475097656 70.68661499023438 267.1649475097656 74.57848358154297 L 267.1649475097656 118.3390274047852 L 253.0486450195313 118.3390274047852 L 253.0486450195313 74.57848358154297 C 253.0486450195313 70.68661499023438 256.2149047851563 67.52031707763672 260.1067810058594 67.52031707763672 M 182.4671020507813 67.52031707763672 C 186.3589782714844 67.52031707763672 189.5252685546875 70.68661499023438 189.5252685546875 74.57848358154297 L 189.5252685546875 118.3390274047852 L 175.408935546875 118.3390274047852 L 175.408935546875 74.57848358154297 C 175.408935546875 70.68661499023438 178.5752258300781 67.52031707763672 182.4671020507813 67.52031707763672 M 247.7479858398438 376.6934814453125 C 243.7435607910156 376.6934814453125 239.8072662353516 376.0047302246094 236.0484313964844 374.6463928222656 C 232.2634429931641 373.278564453125 228.7701110839844 371.2715759277344 225.6653594970703 368.6811218261719 C 217.8182678222656 362.1331176757813 213.3177337646484 352.5149841308594 213.3177337646484 342.2928466796875 L 213.3177337646484 291.5567321777344 C 204.6871032714844 291.447021484375 197.7001495361328 284.39208984375 197.7001495361328 275.7358703613281 L 197.7001495361328 264.5035705566406 C 191.9276885986328 262.2287902832031 186.5143585205078 259.1300964355469 181.6013488769531 255.2872314453125 C 176.5535278320313 251.3388977050781 172.1279754638672 246.6797332763672 168.4476013183594 241.4392395019531 C 164.7178955078125 236.1284790039063 161.8236846923828 230.3184051513672 159.8453063964844 224.17041015625 C 157.7999420166016 217.8142395019531 156.7628479003906 211.1788177490234 156.7628479003906 204.4485321044922 L 156.7628479003906 171.7842102050781 C 154.1217346191406 170.9837646484375 151.6205291748047 169.7948150634766 149.3175659179688 168.2441558837891 C 146.8411102294922 166.5766143798828 144.6568908691406 164.5341491699219 142.82568359375 162.1734466552734 C 140.974853515625 159.7874908447266 139.5343475341797 157.1396942138672 138.5442352294922 154.3036956787109 C 137.5195617675781 151.3687438964844 137.0000152587891 148.2923583984375 137.0000152587891 145.1600341796875 C 137.0000152587891 138.3807373046875 139.4769744873047 131.8460693359375 143.9745635986328 126.7598190307617 C 148.2355346679688 121.9411926269531 154.0023651123047 118.7516784667969 160.2919311523438 117.7158737182617 L 160.2919311523438 74.57848358154297 C 160.2919311523438 62.35144424438477 170.2393493652344 52.40398788452148 182.4664001464844 52.40398788452148 C 194.6934356689453 52.40398788452148 204.6408538818359 62.35144424438477 204.6408538818359 74.57848358154297 L 204.6408538818359 117.3390274047852 L 237.931640625 117.3390274047852 L 237.931640625 74.57848358154297 C 237.931640625 62.35144424438477 247.8790588378906 52.40398788452148 260.1061096191406 52.40398788452148 C 272.3330993652344 52.40398788452148 282.280517578125 62.35144424438477 282.280517578125 74.57848358154297 L 282.280517578125 117.7158737182617 C 288.5700073242188 118.7516860961914 294.3368530273438 121.941291809082 298.597900390625 126.7601089477539 C 303.0954895019531 131.8464508056641 305.5724487304688 138.3809814453125 305.5724487304688 145.1600341796875 C 305.5724487304688 148.2923583984375 305.0528869628906 151.3687438964844 304.0282287597656 154.3036956787109 C 303.0381164550781 157.1396942138672 301.5975952148438 159.7874908447266 299.7467651367188 162.1734466552734 C 297.9155578613281 164.5341491699219 295.7313842773438 166.5766143798828 293.2548828125 168.2441558837891 C 290.9519348144531 169.7948150634766 288.4507446289063 170.9837646484375 285.8096313476563 171.7842102050781 L 285.8096313476563 204.4485321044922 C 285.8096313476563 211.1788177490234 284.7725524902344 217.8142395019531 282.7271728515625 224.17041015625 C 280.7488098144531 230.3184051513672 277.8545532226563 236.1284790039063 274.1248474121094 241.4392852783203 C 270.4445190429688 246.6797332763672 266.0189819335938 251.3388977050781 260.9710998535156 255.2872314453125 C 256.0581359863281 259.1300964355469 250.6448059082031 262.2287902832031 244.8723602294922 264.5035705566406 L 244.8723602294922 275.7351684570313 C 244.8723602294922 284.3311462402344 237.9817047119141 291.3481140136719 229.4340209960938 291.5527038574219 L 229.4340209960938 342.2922058105469 C 229.4340209960938 347.7217407226563 231.8239440917969 352.8296508789063 235.9909820556641 356.3061828613281 C 239.29052734375 359.0592651367188 243.4708557128906 360.5753173828125 247.7619323730469 360.5751037597656 C 248.8733978271484 360.5750427246094 249.993896484375 360.4735717773438 251.0922241210938 360.2735595703125 C 275.5022583007813 355.8306579589844 298.0484313964844 346.2298583984375 318.1045227050781 331.7378234863281 C 319.4878234863281 330.7387390136719 321.1177978515625 330.2107238769531 322.8185729980469 330.2107238769531 C 325.4014282226563 330.2107238769531 327.8446960449219 331.459228515625 329.3541870117188 333.5504760742188 C 331.9560546875 337.1515197753906 331.14306640625 342.1986083984375 327.5416564941406 344.8009033203125 C 305.52294921875 360.7116394042969 280.7725524902344 371.252197265625 253.97802734375 376.1296081542969 C 251.9228973388672 376.5037841796875 249.8268127441406 376.6934814453125 247.7479858398438 376.6934814453125 Z M 221.5729675292969 275.4416809082031 L 228.7567291259766 275.4416809082031 L 228.7567291259766 268.5385437011719 C 226.2761383056641 268.8262634277344 223.7686309814453 268.9718933105469 221.2869415283203 268.9718933105469 C 218.8052368164063 268.9718933105469 216.2977294921875 268.8262634277344 213.817138671875 268.5385437011719 L 213.817138671875 275.4416809082031 L 221.1819915771484 275.4416809082031 C 221.1899566650391 275.4412231445313 221.1986389160156 275.4404602050781 221.2073516845703 275.4398193359375 C 221.2499847412109 275.4367370605469 221.308349609375 275.4324951171875 221.3772735595703 275.4324951171875 C 221.4461822509766 275.4324951171875 221.5045623779297 275.4367370605469 221.5471496582031 275.4398193359375 C 221.5557403564453 275.4404602050781 221.5643310546875 275.4411926269531 221.5729675292969 275.4416809082031 Z M 172.8798522949219 172.9810333251953 L 172.8798522949219 204.4485321044922 C 172.8798522949219 231.1402740478516 194.5951843261719 252.8556060791016 221.2869415283203 252.8556060791016 C 247.9786834716797 252.8556060791016 269.6940307617188 231.1402740478516 269.6940307617188 204.4485321044922 L 269.6940307617188 172.9810333251953 L 172.8798522949219 172.9810333251953 Z M 164.8216857910156 133.4553680419922 C 158.3677215576172 133.4553680419922 153.1170196533203 138.7060699462891 153.1170196533203 145.1600341796875 C 153.1170196533203 151.6140289306641 158.3677215576172 156.8647308349609 164.8216857910156 156.8647308349609 L 277.752197265625 156.8647308349609 C 284.2061462402344 156.8647308349609 289.4568481445313 151.6140289306641 289.4568481445313 145.1600341796875 C 289.4568481445313 138.7060699462891 284.2061462402344 133.4553680419922 277.752197265625 133.4553680419922 L 164.8216857910156 133.4553680419922 Z M 254.0486450195313 117.3390274047852 L 266.1649475097656 117.3390274047852 L 266.1649475097656 74.57848358154297 C 266.1649475097656 71.23798370361328 263.447265625 68.52031707763672 260.1067810058594 68.52031707763672 C 256.7663269042969 68.52031707763672 254.0486450195313 71.23798370361328 254.0486450195313 74.57848358154297 L 254.0486450195313 117.3390274047852 Z M 176.408935546875 117.3390274047852 L 188.5252685546875 117.3390274047852 L 188.5252685546875 74.57848358154297 C 188.5252685546875 71.23798370361328 185.8076019287109 68.52031707763672 182.4671020507813 68.52031707763672 C 179.1266021728516 68.52031707763672 176.408935546875 71.23798370361328 176.408935546875 74.57848358154297 L 176.408935546875 117.3390274047852 Z" stroke="none" fill="#fff"/>
        </g>
      </g>
    </g>
    <g id="Group_16" data-name="Group 16" transform="translate(296.391 296.002)">
      <g id="Group_15" data-name="Group 15">
        <g id="Path_106" data-name="Path 106" transform="translate(-419.927 -421.352)" fill="#fff">
          <path d="M 426.9838256835938 435.9830017089844 C 425.0637817382813 435.9830017089844 423.2328796386719 435.26123046875 421.828369140625 433.9506530761719 C 418.7819213867188 431.1064453125 418.6168212890625 426.3142395019531 421.4602355957031 423.2679138183594 C 421.5165100097656 423.20849609375 421.5732421875 423.1495971679688 421.6299438476563 423.0921325683594 C 423.0594177246094 421.6471557617188 424.9673156738281 420.8516845703125 427.0027160644531 420.8516845703125 C 428.9230346679688 420.8516845703125 430.7538146972656 421.5735778808594 432.1578063964844 422.8843688964844 C 435.2040710449219 425.7284851074219 435.3691711425781 430.5206909179688 432.5257873535156 433.5669860839844 C 432.4693603515625 433.6265563964844 432.4125671386719 433.6854858398438 432.3558654785156 433.7429504394531 C 430.9266357421875 435.1875915527344 429.0189514160156 435.9830017089844 426.9838256835938 435.9830017089844 Z" stroke="none"/>
          <path d="M 427.0027160644531 421.3516845703125 C 425.1793823242188 421.3516540527344 423.3605041503906 422.0537414550781 421.9859313964844 423.4432067871094 C 421.9316101074219 423.498291015625 421.8772277832031 423.5547485351563 421.8257446289063 423.6091003417969 C 419.1654968261719 426.4591674804688 419.3200988769531 430.9248352050781 422.1694946289063 433.5850830078125 C 423.5302734375 434.8548583984375 425.2588195800781 435.4830017089844 426.9838256835938 435.4830017089844 C 428.8070068359375 435.4830017089844 430.6258239746094 434.7807312011719 432.0000610351563 433.3916625976563 C 432.0543823242188 433.3366394042969 432.1087646484375 433.2801818847656 432.1602783203125 433.225830078125 C 434.8204956054688 430.3757629394531 434.6658935546875 425.9100646972656 431.8165893554688 423.2498474121094 C 430.4567260742188 421.9802856445313 428.7277221679688 421.3517456054688 427.0027160644531 421.3516845703125 M 427.0025329589844 420.3516845703125 L 427.0025329589844 421.3516845703125 L 427.0025939941406 420.3516845703125 L 427.0027465820313 420.3516845703125 C 429.0502319335938 420.3517456054688 431.0021667480469 421.1214294433594 432.4990234375 422.5188903808594 C 435.7467956542969 425.5511474609375 435.9227905273438 430.6603393554688 432.8913269042969 433.9081726074219 L 432.888671875 433.9109802246094 L 432.8860168457031 433.9137878417969 C 432.8299560546875 433.9729309082031 432.7707824707031 434.0343627929688 432.711669921875 434.09423828125 C 431.1874389648438 435.6349182128906 429.1535034179688 436.4830017089844 426.9838256835938 436.4830017089844 C 424.9367065429688 436.4830017089844 422.9846496582031 435.7135009765625 421.4872436523438 434.3162231445313 C 418.2392272949219 431.2837829589844 418.0632019042969 426.1745910644531 421.0946960449219 422.9267578125 L 421.0972290039063 422.9240417480469 L 421.0997924804688 422.9213562011719 C 421.15576171875 422.8622741699219 421.2148742675781 422.8009033203125 421.27392578125 422.7410278320313 C 422.7986450195313 421.1998291015625 424.8327026367188 420.3516845703125 427.0025329589844 420.3516845703125 Z" stroke="none" fill="#fff"/>
        </g>
      </g>
    </g>
    <g id="Group_18" data-name="Group 18" transform="translate(73.096 0)">
      <g id="Group_17" data-name="Group 17">
        <g id="Path_107" data-name="Path 107" transform="translate(-103.563 -1.976)" fill="#fff">
          <path d="M 351.4489135742188 292.1560974121094 C 349.8372497558594 292.1560974121094 348.296142578125 291.6519775390625 346.9922485351563 290.6981811523438 C 343.6285705566406 288.2376403808594 342.8931274414063 283.4993591308594 345.3528747558594 280.1356811523438 C 393.9462890625 213.6903228759766 386.8963012695313 123.142463684082 328.5896606445313 64.83296203613281 C 298.0578002929688 34.29917907714844 255.1398468017578 16.78714179992676 210.8404235839844 16.78714179992676 C 176.0027465820313 16.78714179992676 142.8562774658203 27.20221328735352 114.9844207763672 46.90635681152344 C 113.7013092041016 47.81381988525391 112.1948471069336 48.29353332519531 110.6279525756836 48.29353332519531 C 108.1738128662109 48.29353332519531 105.8642425537109 47.09881973266602 104.4497756958008 45.09767913818359 C 103.2844161987305 43.44939041137695 102.8307037353516 41.44578552246094 103.1723098754883 39.45599746704102 C 103.5138854980469 37.46610641479492 104.6099548339844 35.72842788696289 106.2585296630859 34.56310653686523 C 121.4139556884766 23.84867858886719 138.1652069091797 15.56192779541016 156.0468902587891 9.933070182800293 C 173.8745574951172 4.321213245391846 192.4272003173828 1.475749135017395 211.1894226074219 1.475749135017395 C 215.9671325683594 1.475749135017395 220.8053131103516 1.664641976356506 225.5696411132813 2.037177801132202 C 268.6644897460938 5.4054274559021 309.0470581054688 23.9107494354248 339.2785034179688 54.14428329467773 C 370.0354309082031 84.90260314941406 388.7104797363281 125.7037124633789 391.8635864257813 169.0316467285156 C 394.9853820800781 211.9102172851563 382.8012084960938 254.5367126464844 357.5554809570313 289.0588073730469 C 356.1372680664063 290.9982604980469 353.8544616699219 292.1560974121094 351.4489135742188 292.1560974121094 Z" stroke="none"/>
          <path d="M 351.4489440917969 291.6560974121094 C 353.6235046386719 291.6560974121094 355.7691955566406 290.6545715332031 357.1518859863281 288.763671875 C 382.326904296875 254.3382263183594 394.4782104492188 211.8297576904297 391.3648986816406 169.0679473876953 C 388.2205200195313 125.8592987060547 369.5961303710938 85.17044830322266 338.9249267578125 54.49779510498047 C 308.7781372070313 24.34887313842773 268.507080078125 5.894641876220703 225.5306549072266 2.53564190864563 C 220.7448883056641 2.16143274307251 215.9589538574219 1.975743889808655 211.1894378662109 1.975743889808655 C 173.6505279541016 1.975743889808655 136.9627075195313 13.46857166290283 106.547119140625 34.97141265869141 C 103.3638916015625 37.22156524658203 102.6079711914063 41.62656402587891 104.8580856323242 44.80906677246094 C 106.2329711914063 46.75422668457031 108.4136657714844 47.79351425170898 110.6279525756836 47.79351425170898 C 112.0364837646484 47.79351425170898 113.4584274291992 47.3731803894043 114.6957778930664 46.49806594848633 C 143.3904266357422 26.21224403381348 177.1753692626953 16.28716659545898 210.8403778076172 16.28716659545898 C 254.0810546875 16.28716659545898 297.1250915527344 32.65929412841797 328.9432373046875 64.47944641113281 C 387.4250183105469 122.9640274047852 394.49658203125 213.7848663330078 345.7564697265625 280.4308471679688 C 343.4555358886719 283.5773620605469 344.1408996582031 287.992919921875 347.2874450683594 290.2946166992188 C 348.5437622070313 291.2135925292969 350.002685546875 291.6560974121094 351.4489440917969 291.6560974121094 M 351.4489440917969 292.6560974121094 C 349.7303771972656 292.6560974121094 348.0871887207031 292.1185913085938 346.6970520019531 291.1017150878906 C 343.1109008789063 288.4784545898438 342.3268432617188 283.4267272949219 344.9492797851563 279.840576171875 C 393.3961486816406 213.5955200195313 386.3672790527344 123.3204879760742 328.2361145019531 65.1865234375 C 297.7973022460938 34.74583435058594 255.0081939697266 17.28717994689941 210.8403930664063 17.28717994689941 C 176.1066589355469 17.28717994689941 143.0600128173828 27.67048835754395 115.2730484008789 47.31460189819336 C 113.9051208496094 48.2821044921875 112.2988128662109 48.79352569580078 110.6279678344727 48.79352569580078 C 108.0117416381836 48.79352569580078 105.5495071411133 47.51979446411133 104.0414657592773 45.38625717163086 C 102.7990493774414 43.6290283203125 102.3153533935547 41.49287414550781 102.6795043945313 39.37141036987305 C 103.043701171875 37.24987411499023 104.2122344970703 35.39725875854492 105.9698944091797 34.15483474731445 C 121.1677017211914 23.41044998168945 137.9655456542969 15.10064220428467 155.8967742919922 9.456142425537109 C 173.7730865478516 3.828988075256348 192.3762359619141 0.975757360458374 211.1894378662109 0.975757360458374 C 215.9799652099609 0.975757360458374 220.8313140869141 1.165141940116882 225.6086273193359 1.53868043422699 C 268.8221740722656 4.916218757629395 309.3164978027344 23.47302627563477 339.6320495605469 53.79071807861328 C 370.4738464355469 84.63398742675781 389.2004699707031 125.5477981567383 392.3622436523438 168.9953765869141 C 395.49267578125 211.9920196533203 383.2746887207031 254.7362213134766 357.9590759277344 289.3539733886719 C 357.1982421875 290.3944396972656 356.1894836425781 291.2454223632813 355.0418090820313 291.8147888183594 C 353.9324340820313 292.3651733398438 352.6900329589844 292.6560974121094 351.4489440917969 292.6560974121094 Z" stroke="none" fill="#fff"/>
        </g>
      </g>
    </g>
    <g id="Group_20" data-name="Group 20" transform="translate(49.905 51.293)">
      <g id="Group_19" data-name="Group 19">
        <g id="Path_108" data-name="Path 108" transform="translate(-70.706 -74.647)" fill="#fff">
          <path d="M 77.76404571533203 89.38056182861328 C 75.75797271728516 89.38056182861328 73.86831665039063 88.60296630859375 72.44319915771484 87.19100189208984 C 69.48308563232422 84.25655364990234 69.46176147460938 79.46161651611328 72.39554595947266 76.50216674804688 L 72.50891876220703 76.38669586181641 C 73.94033813476563 74.9420166015625 75.84671783447266 74.14728546142578 77.87847900390625 74.14728546142578 C 79.88471984863281 74.14728546142578 81.77458953857422 74.92506408691406 83.19995880126953 76.33735656738281 C 84.63378143310547 77.75873565673828 85.42835998535156 79.65329742431641 85.43743133544922 81.67211151123047 C 85.44650268554688 83.69111633300781 84.66880798339844 85.59256744384766 83.24759674072266 87.02619171142578 L 83.13423156738281 87.14166259765625 C 81.70154571533203 88.58608245849609 79.79500579833984 89.38056182861328 77.76404571533203 89.38056182861328 Z" stroke="none"/>
          <path d="M 77.87847900390625 74.64728546142578 C 76.0616455078125 74.64722442626953 74.24566650390625 75.34425354003906 72.86569213867188 76.73700714111328 L 72.75064086914063 76.85417175292969 C 70.00643157958984 79.62238311767578 70.02688598632813 84.09159851074219 72.79511260986328 86.8358154296875 C 74.17144775390625 88.19944763183594 75.96775817871094 88.88056182861328 77.76404571533203 88.88056182861328 C 79.58011627197266 88.88056182861328 81.39688873291016 88.1832275390625 82.77745819091797 86.79135131835938 L 82.89250946044922 86.67418670654297 C 85.63671875 83.90597534179688 85.61625671386719 79.43674468994141 82.84803771972656 76.69253540039063 C 81.47152709960938 75.32865142822266 79.67458343505859 74.6473388671875 77.87847900390625 74.64728546142578 M 77.87825012207031 73.64728546142578 L 77.87825012207031 74.64728546142578 L 77.87831878662109 73.64728546142578 L 77.87850952148438 73.64728546142578 C 80.01747894287109 73.64734649658203 82.03231811523438 74.47655487060547 83.5518798828125 75.982177734375 C 85.08061981201172 77.49765777587891 85.92775726318359 79.51751708984375 85.93743133544922 81.66986846923828 C 85.94709777832031 83.82244873046875 85.11793518066406 85.84970855712891 83.60269165039063 87.37820434570313 L 83.49098968505859 87.49197387695313 L 83.48921966552734 87.49378204345703 L 83.48744201660156 87.49557495117188 C 81.96193695068359 89.03355407714844 79.92933654785156 89.88056182861328 77.76404571533203 89.88056182861328 C 75.62528991699219 89.88056182861328 73.61065673828125 89.05153656005859 72.09128570556641 87.54619598388672 C 68.93527984619141 84.41754150390625 68.91256713867188 79.30539703369141 72.04045867919922 76.15015411376953 L 72.15216064453125 76.03638458251953 C 73.67977142333984 74.49460601806641 75.71221160888672 73.64728546142578 77.87825012207031 73.64728546142578 Z" stroke="none" fill="#fff"/>
        </g>
      </g>
    </g>
    <g id="Group_22" data-name="Group 22" transform="translate(163.813 158.052)">
      <g id="Group_21" data-name="Group 21">
        <g id="Path_109" data-name="Path 109" transform="translate(-232.091 -225.904)" fill="#fff">
          <path d="M 244.1647338867188 289.4932861328125 L 244.1646728515625 289.4932861328125 L 244.1645965576172 289.4932861328125 C 242.8678283691406 289.4932861328125 241.5818481445313 289.1533203125 240.4456939697266 288.5101623535156 C 236.8197021484375 286.4563598632813 235.540771484375 281.8353271484375 237.5946197509766 278.2090759277344 L 245.8152923583984 263.6943054199219 L 239.1490936279297 263.6943054199219 C 237.7269134521484 263.6943054199219 236.3383636474609 263.2949523925781 235.133544921875 262.5394287109375 C 233.9287414550781 261.7839050292969 232.9645538330078 260.7079162597656 232.3452453613281 259.427734375 C 231.7259368896484 258.1475830078125 231.480712890625 256.7237548828125 231.6360931396484 255.3101501464844 C 231.7914733886719 253.8965606689453 232.3401184082031 252.5599670410156 233.2227172851563 251.4448394775391 L 251.5683135986328 228.2707672119141 C 253.0110931396484 226.4487762451172 255.1729431152344 225.4038543701172 257.4996032714844 225.4038543701172 C 259.2167358398438 225.4038543701172 260.8372802734375 225.9684295654297 262.18603515625 227.0365295410156 C 263.768798828125 228.2892303466797 264.76904296875 230.0836029052734 265.0023498535156 232.0890197753906 C 265.2356567382813 234.0945129394531 264.6740417480469 236.0706634521484 263.4209594726563 237.6534729003906 L 254.7725219726563 248.5780181884766 L 258.7827758789063 248.5780181884766 C 261.4617004394531 248.5780181884766 263.9638977050781 250.0156402587891 265.3129577636719 252.3298797607422 C 266.6622924804688 254.6445159912109 266.6802368164063 257.5302429199219 265.3597717285156 259.8608703613281 L 250.7487640380859 285.6584167480469 C 249.4091491699219 288.0230712890625 246.8863067626953 289.4925231933594 244.1647338867188 289.4932861328125 Z" stroke="none"/>
          <path d="M 257.4995727539063 225.9038696289063 C 255.4164276123047 225.9037170410156 253.3536682128906 226.8215637207031 251.9603424072266 228.5811157226563 L 233.6147766113281 251.7551574707031 C 231.9349365234375 253.8775634765625 231.6166381835938 256.7734985351563 232.7953491210938 259.2099914550781 C 233.9740600585938 261.6464538574219 236.4422607421875 263.1943054199219 239.1491088867188 263.1943054199219 L 246.673095703125 263.1943054199219 L 238.0296630859375 278.4554748535156 C 236.1084289550781 281.8476257324219 237.30126953125 286.1544799804688 240.6920166015625 288.0750427246094 C 241.7916564941406 288.6975402832031 242.9851989746094 288.9932861328125 244.1645965576172 288.9932861328125 C 246.6257781982422 288.9925842285156 249.0149688720703 287.7044982910156 250.3136901855469 285.4119873046875 L 264.9247436523438 259.6144104003906 C 266.1627807617188 257.4292297363281 266.1458129882813 254.7513427734375 264.8810119628906 252.5816650390625 C 263.6162109375 250.4119873046875 261.2940368652344 249.0780029296875 258.7827758789063 249.0780029296875 L 253.7389831542969 249.0780029296875 L 263.0289306640625 237.3431091308594 C 265.448486328125 234.2869262695313 264.9318237304688 229.8473510742188 261.8756408691406 227.4285278320313 C 260.5794067382813 226.4020385742188 259.0338439941406 225.9039611816406 257.4995727539063 225.9038696289063 M 257.4990844726563 224.9038696289063 L 257.4990844726563 225.9038696289063 L 257.499267578125 224.9038696289063 C 259.3307495117188 224.9039916992188 261.05859375 225.5059204101563 262.4964599609375 226.6445617675781 C 264.183837890625 227.9800720214844 265.250244140625 229.8931579589844 265.4989929199219 232.03125 C 265.7477416992188 234.1694030761719 265.1489868164063 236.2763061523438 263.81298828125 237.9638366699219 L 255.8060607910156 248.0780029296875 L 258.7827758789063 248.0780029296875 C 261.6388854980469 248.0780029296875 264.306640625 249.6107482910156 265.7449340820313 252.0780334472656 C 267.1835327148438 254.5458374023438 267.20263671875 257.6224975585938 265.7947998046875 260.1073608398438 L 251.1838226318359 285.90478515625 C 249.755615234375 288.4258728027344 247.0661468505859 289.992431640625 244.1648864746094 289.9932861328125 C 242.7816619873047 289.9932861328125 241.4105224609375 289.6308898925781 240.1993713378906 288.9452819824219 C 236.3334045410156 286.7555541992188 234.9698181152344 281.8287963867188 237.1595153808594 277.962646484375 L 244.9574890136719 264.1943054199219 L 239.1491088867188 264.1943054199219 C 237.6328430175781 264.1943054199219 236.1524353027344 263.7685546875 234.867919921875 262.9630126953125 C 233.5834045410156 262.1575317382813 232.5554504394531 261.0103454589844 231.8951721191406 259.6454772949219 C 231.2348937988281 258.2806396484375 230.9734497070313 256.7626342773438 231.1390991210938 255.2555236816406 C 231.3047485351563 253.7484436035156 231.8896789550781 252.3234252929688 232.8306579589844 251.1345520019531 L 251.1762847900391 227.9604187011719 C 252.7145080566406 226.0178833007813 255.01904296875 224.9038696289063 257.4990844726563 224.9038696289063 Z" stroke="none" fill="#fff"/>
        </g>
      </g>
    </g>
  </g>
</svg>
