<svg xmlns="http://www.w3.org/2000/svg" width="400.96" height="360.588" viewBox="0 0 400.96 360.588">
  <g id="icon-health" transform="translate(1 1)">
    <g id="Path_92" data-name="Path 92" transform="translate(0 -83.248)" fill="#fff">
      <path d="M 215.0641326904297 442.3368530273438 C 182.2956237792969 442.3368530273438 161.7367706298828 434.11279296875 141.8548278808594 426.1595458984375 C 124.4053955078125 419.1800537109375 107.9168472290039 412.5849304199219 83.09712982177734 411.3692321777344 L 83.09712982177734 418.4602966308594 C 83.09712982177734 423.0325927734375 79.37728118896484 426.75244140625 74.804931640625 426.75244140625 L 7.792177677154541 426.75244140625 L 6.58507776260376 426.75244140625 L 6.661929130554199 426.6755981445313 C 2.622495651245117 426.1224670410156 -0.499922126531601 422.6490478515625 -0.499922126531601 418.4601440429688 L -0.499922126531601 309.3695983886719 C -0.499922126531601 304.7973022460938 3.219927787780762 301.0774230957031 7.792277812957764 301.0774230957031 L 74.80497741699219 301.0774230957031 C 78.90718078613281 301.0774230957031 84.58777618408203 298.4848022460938 91.16537475585938 295.4827270507813 L 91.17582702636719 295.4779968261719 C 101.2745742797852 290.869384765625 113.8427810668945 285.1338500976563 128.9381256103516 285.1338500976563 C 134.207275390625 285.1338500976563 139.5378265380859 285.8458251953125 144.7817230224609 287.25 C 150.5884246826172 288.8049011230469 156.5038757324219 291.2644348144531 162.3637847900391 294.5603942871094 L 199.9844818115234 315.7247924804688 C 201.0723266601563 316.337890625 202.3096313476563 316.6618347167969 203.5629272460938 316.6618347167969 L 254.0251312255859 316.6618347167969 C 271.4873352050781 316.6618347167969 285.6938171386719 330.8683471679688 285.6938171386719 348.3305358886719 C 285.6938171386719 349.8144836425781 285.5822143554688 351.3240966796875 285.3616027832031 352.8293151855469 L 356.3976135253906 326.5709228515625 C 360.0360717773438 325.1663818359375 363.8697814941406 324.4539794921875 367.7908630371094 324.4539794921875 C 385.2530822753906 324.4539794921875 399.4595642089844 338.6604919433594 399.4595642089844 356.1226806640625 C 399.4595642089844 368.300537109375 392.3468322753906 379.5399780273438 381.3389892578125 384.7565002441406 C 370.4442749023438 389.9675903320313 360.1390686035156 394.8475952148438 344.3391418457031 401.8014831542969 C 343.2771911621094 402.2684936523438 342.1548767089844 402.5052795410156 341.0033264160156 402.5052795410156 C 337.7142333984375 402.5052795410156 334.7333679199219 400.5608825683594 333.4092407226563 397.5517272949219 C 332.5165710449219 395.5246887207031 332.4669799804688 393.2713012695313 333.2696228027344 391.2068481445313 C 334.0722351074219 389.1425476074219 335.6307373046875 387.5142517089844 337.6581420898438 386.621826171875 C 343.2339477539063 384.1683654785156 348.8705139160156 381.6365051269531 354.4197082519531 379.0927734375 L 352.5813293457031 375.4153747558594 C 350.5372314453125 371.3252868652344 352.2011413574219 366.3343811035156 356.2904357910156 364.289794921875 C 357.4533386230469 363.7077331542969 358.6985168457031 363.4125366210938 359.9912414550781 363.4125366210938 C 361.5082702636719 363.4125366210938 362.9975891113281 363.8285522460938 364.2981262207031 364.615478515625 C 365.6354675292969 365.4246826171875 366.7133178710938 366.5943298339844 367.4151916503906 367.998046875 L 369.4500732421875 372.0678100585938 C 371.3692932128906 371.1527099609375 372.5681762695313 370.5740966796875 373.6345825195313 370.0594787597656 L 374.2523803710938 369.7614440917969 C 379.4917297363281 367.2784729003906 382.8752136230469 361.9252319335938 382.8752136230469 356.1219787597656 C 382.8752136230469 347.804443359375 376.1083679199219 341.0376281738281 367.7908325195313 341.0376281738281 C 365.9091796875 341.0376281738281 364.0725402832031 341.3804321289063 362.3318786621094 342.0564880371094 L 362.3318176269531 342.0563354492188 C 361.6812744140625 342.2981262207031 309.3213806152344 361.653564453125 265.3622131347656 377.9033508300781 C 265.3115844726563 377.9223937988281 265.2635192871094 377.9364929199219 265.22119140625 377.9489440917969 C 265.203369140625 377.9541625976563 265.185546875 377.9593200683594 265.1678161621094 377.9651184082031 C 261.6069641113281 379.3150024414063 257.8581848144531 379.9993286132813 254.0250244140625 379.9993286132813 L 174.8097229003906 379.9993286132813 C 170.2374267578125 379.9993286132813 166.517578125 376.2794799804688 166.517578125 371.7071533203125 C 166.517578125 367.1348266601563 170.2374267578125 363.4149780273438 174.8097229003906 363.4149780273438 L 254.0250244140625 363.4149780273438 C 255.9076843261719 363.4149780273438 257.7376403808594 363.0721435546875 259.4639892578125 362.3959350585938 C 265.2339172363281 360.1604919433594 269.1094360351563 354.5083312988281 269.1094360351563 348.3305969238281 C 269.1094360351563 340.0130310058594 262.3425903320313 333.2462463378906 254.0250244140625 333.2462463378906 L 203.5628814697266 333.2462463378906 C 199.4643249511719 333.2462463378906 195.4134216308594 332.1847229003906 191.8481750488281 330.1764526367188 L 154.232421875 309.0145263671875 C 145.6033325195313 304.1607971191406 137.317626953125 301.8013000488281 128.9019775390625 301.8013000488281 C 117.2650299072266 301.8013000488281 107.4993286132813 306.2581481933594 98.05507659912109 310.5681762695313 C 93.13587951660156 312.8135070800781 88.05428314208984 315.1329040527344 83.09712982177734 316.4655151367188 L 83.09712982177734 394.7708435058594 C 111.1659164428711 396.0228271484375 129.8979949951172 403.5146179199219 148.0142211914063 410.760986328125 C 167.2871704101563 418.4704895019531 185.4912719726563 425.75244140625 215.0641326904297 425.75244140625 C 227.6287841796875 425.75244140625 247.1675720214844 421.2213745117188 273.1378784179688 412.2851867675781 C 274.0118713378906 411.984130859375 274.919921875 411.8314514160156 275.8365173339844 411.8314514160156 C 279.3739318847656 411.8314514160156 282.5248413085938 414.0804748535156 283.6771850585938 417.4278259277344 C 284.3979187011719 419.5222473144531 284.2599182128906 421.7718505859375 283.2887268066406 423.7622375488281 C 282.3174133300781 425.7527465820313 280.6289672851563 427.245849609375 278.5343322753906 427.966552734375 C 250.8242797851563 437.5019836425781 229.4697723388672 442.3368530273438 215.0641326904297 442.3368530273438 Z M 16.08437728881836 410.1680297851563 L 66.51277923583984 410.1680297851563 L 66.51277923583984 317.6618957519531 L 16.08437728881836 317.6618957519531 L 16.08437728881836 410.1680297851563 Z" stroke="none"/>
      <path d="M 215.0641326904297 441.8368530273438 C 229.4149780273438 441.8368530273438 250.7141265869141 437.0110778808594 278.3716735839844 427.4937438964844 C 282.4415893554688 426.0934448242188 284.6046752929688 421.6596984863281 283.2044372558594 417.590576171875 C 282.0926818847656 414.3611145019531 279.0696105957031 412.3314514160156 275.8365478515625 412.3314514160156 C 274.9952697753906 412.3314514160156 274.1404418945313 412.4686889648438 273.3005676269531 412.7579956054688 C 247.2785797119141 421.7119750976563 227.6851348876953 426.25244140625 215.0641326904297 426.25244140625 C 185.3961791992188 426.25244140625 167.1484832763672 418.9535522460938 147.8285217285156 411.2252502441406 C 129.6158752441406 403.9402770996094 110.8273773193359 396.4324951171875 82.59712982177734 395.2496948242188 L 82.59712982177734 316.0803527832031 C 87.59188079833984 314.7867736816406 92.62407684326172 312.4974975585938 97.84637451171875 310.1138305664063 C 107.1257247924805 305.8789978027344 117.155876159668 301.3013000488281 128.9019775390625 301.3013000488281 C 136.5990142822266 301.3013000488281 145.03125 303.2653503417969 154.4775848388672 308.5787963867188 L 192.0935821533203 329.7407836914063 C 195.5836791992188 331.7067260742188 199.5498809814453 332.7462463378906 203.5628814697266 332.7462463378906 L 254.0250244140625 332.7462463378906 C 262.6182861328125 332.7462463378906 269.6094360351563 339.7373962402344 269.6094360351563 348.3305969238281 C 269.6094360351563 354.71240234375 265.6158752441406 360.5487365722656 259.6463317871094 362.8614807128906 C 257.8618774414063 363.5604248046875 255.9707336425781 363.9149780273438 254.0250244140625 363.9149780273438 L 174.8097229003906 363.9149780273438 C 170.5068817138672 363.9149780273438 167.017578125 367.4034729003906 167.017578125 371.7071533203125 C 167.017578125 376.0106811523438 170.5068817138672 379.4993286132813 174.8097229003906 379.4993286132813 L 254.0250244140625 379.4993286132813 C 257.8143920898438 379.4993286132813 261.5125427246094 378.8174743652344 265.0010681152344 377.49365234375 C 265.0634155273438 377.4725952148438 265.1265869140625 377.4577941894531 265.1888732910156 377.434326171875 C 265.1888732910156 377.434326171875 362.1103210449219 341.6067504882813 362.15087890625 341.5903930664063 C 363.9485168457031 340.8921813964844 365.8459167480469 340.5376281738281 367.7908325195313 340.5376281738281 C 376.3840637207031 340.5376281738281 383.3752136230469 347.5287780761719 383.3752136230469 356.1219787597656 C 383.3752136230469 362.1172485351563 379.8726196289063 367.6512756347656 374.4695129394531 370.2117919921875 C 373.1362915039063 370.8546752929688 371.8007202148438 371.502197265625 369.2222900390625 372.730224609375 L 366.9679870605469 368.2216491699219 C 365.6028442382813 365.4913635253906 362.8488464355469 363.9125671386719 359.9912109375 363.9125671386719 C 358.8199768066406 363.9125671386719 357.6319274902344 364.1774597167969 356.5140380859375 364.7369995117188 C 352.6646728515625 366.6616516113281 351.104736328125 371.3423767089844 353.028564453125 375.1918029785156 L 355.0981750488281 379.3316955566406 C 349.9974365234375 381.6725463867188 344.1992797851563 384.2898864746094 337.8595886230469 387.0794982910156 C 333.9206237792969 388.8132934570313 332.1322631835938 393.4114379882813 333.8668823242188 397.350341796875 C 335.1524963378906 400.2719116210938 338.0099182128906 402.0052795410156 341.0033264160156 402.0052795410156 C 342.0520935058594 402.0052795410156 343.1171569824219 401.7926635742188 344.1377258300781 401.3438415527344 C 359.4664916992188 394.5973510742188 369.6103820800781 389.8121948242188 381.1248779296875 384.3046264648438 C 391.9590759277344 379.1704406738281 398.9595642089844 368.108642578125 398.9595642089844 356.1226806640625 C 398.9595642089844 338.9362487792969 384.9772644042969 324.9539794921875 367.7908630371094 324.9539794921875 C 363.9306335449219 324.9539794921875 360.1561279296875 325.6552734375 356.5709838867188 327.0399475097656 L 284.7325134277344 353.5949401855469 C 285.0325317382813 351.8721008300781 285.1938171386719 350.1125793457031 285.1938171386719 348.3305358886719 C 285.1938171386719 331.1440734863281 271.2115173339844 317.1618347167969 254.0251312255859 317.1618347167969 L 203.5629272460938 317.1618347167969 C 202.2242736816406 317.1618347167969 200.9034729003906 316.816650390625 199.7393341064453 316.1605529785156 L 162.1186828613281 294.9961853027344 C 149.8769989013672 288.1107788085938 138.8438568115234 285.6338500976563 128.9381408691406 285.6338500976563 C 113.948127746582 285.6338500976563 101.5342864990234 291.3004455566406 91.37662506103516 295.9359436035156 C 84.74392700195313 298.963134765625 79.01667785644531 301.5774230957031 74.80497741699219 301.5774230957031 L 7.792277812957764 301.5774230957031 C 3.489427804946899 301.5774230957031 7.788086077198386e-05 305.0659790039063 7.788086077198386e-05 309.3695983886719 L 7.788086077198386e-05 418.4601440429688 C 7.788086077198386e-05 422.7637329101563 3.489427804946899 426.2523498535156 7.792277812957764 426.2523498535156 L 7.792177677154541 426.25244140625 L 74.804931640625 426.25244140625 C 79.10778045654297 426.25244140625 82.59712982177734 422.7638244628906 82.59712982177734 418.4602966308594 L 82.59712982177734 410.8450012207031 C 107.7868804931641 411.9966430664063 124.4722747802734 418.6682739257813 142.04052734375 425.6952819824219 C 161.8801727294922 433.6316528320313 182.3946838378906 441.8368530273438 215.0641326904297 441.8368530273438 M 15.58437824249268 317.1618957519531 L 67.01277923583984 317.1618957519531 L 67.01277923583984 410.6680297851563 L 15.58437824249268 410.6680297851563 L 15.58437824249268 317.1618957519531 M 215.0641326904297 442.8368530273438 C 182.1993255615234 442.8368530273438 161.5950317382813 434.5945739746094 141.6691284179688 426.6237487792969 C 124.3828125 419.7095336914063 108.0429306030273 413.1734924316406 83.59712982177734 411.8951721191406 L 83.59712982177734 418.4602966308594 C 83.59712982177734 423.3082885742188 79.65297698974609 427.25244140625 74.804931640625 427.25244140625 L 7.792177677154541 427.25244140625 L 5.377977848052979 427.25244140625 L 5.643616676330566 426.9867858886719 C 1.830727815628052 426.025634765625 -0.9999220967292786 422.5672607421875 -0.9999220967292786 418.4601440429688 L -0.9999220967292786 309.3695983886719 C -0.9999220967292786 304.5215759277344 2.944227933883667 300.5774230957031 7.792277812957764 300.5774230957031 L 74.80497741699219 300.5774230957031 C 78.79847717285156 300.5774230957031 84.43328094482422 298.0056762695313 90.95777893066406 295.0278930664063 L 90.96802520751953 295.023193359375 C 101.1108245849609 290.3944396972656 113.7339782714844 284.6338500976563 128.9381256103516 284.6338500976563 C 134.2509307861328 284.6338500976563 139.6250305175781 285.3515319824219 144.9110717773438 286.7670288085938 C 150.7581329345703 288.3327331542969 156.7125244140625 290.8081359863281 162.6089324951172 294.1246032714844 L 200.2296295166016 315.2890014648438 C 201.2430725097656 315.8601379394531 202.3954772949219 316.1618347167969 203.5629272460938 316.1618347167969 L 254.0251312255859 316.1618347167969 C 271.7630310058594 316.1618347167969 286.1938171386719 330.5926513671875 286.1938171386719 348.3305358886719 C 286.1938171386719 349.5661926269531 286.1177062988281 350.819091796875 285.9669494628906 352.072509765625 L 356.2151794433594 326.1053466796875 C 359.9129638671875 324.6778564453125 363.8077392578125 323.9539794921875 367.7908630371094 323.9539794921875 C 385.5287780761719 323.9539794921875 399.9595642089844 338.3847961425781 399.9595642089844 356.1226806640625 C 399.9595642089844 368.4927368164063 392.734619140625 379.9095458984375 381.5531311035156 385.2082824707031 C 370.6561279296875 390.4205017089844 360.3471374511719 395.3022766113281 344.5405883789063 402.2590942382813 C 343.4147338867188 402.7543029785156 342.2246704101563 403.0052795410156 341.0033264160156 403.0052795410156 C 337.5160217285156 403.0052795410156 334.3555297851563 400.9436950683594 332.9515686035156 397.7530822753906 C 332.005126953125 395.6039428710938 331.9525146484375 393.2146301269531 332.8036193847656 391.025634765625 C 333.6545715332031 388.8368835449219 335.3070678710938 387.1104431152344 337.4567260742188 386.1642456054688 C 342.8728637695313 383.781005859375 348.3463439941406 381.3238220214844 353.7412109375 378.8536682128906 L 352.1341247558594 375.6389465332031 C 349.9667358398438 371.30224609375 351.7309875488281 366.0104370117188 356.0668334960938 363.842529296875 C 357.2997131347656 363.2254943847656 358.6201782226563 362.9125366210938 359.9912414550781 362.9125366210938 C 361.5995178222656 362.9125366210938 363.1783142089844 363.3534851074219 364.5569763183594 364.1876831054688 C 365.9752197265625 365.0458374023438 367.1182250976563 366.2861328125 367.8623657226563 367.7744445800781 L 369.6777954101563 371.4051818847656 C 371.3423156738281 370.6105651855469 372.4358520507813 370.0827941894531 373.417236328125 369.6091918945313 L 374.0351867675781 369.31103515625 L 374.0382385253906 369.3096008300781 L 374.0412902832031 369.3081359863281 C 379.1039733886719 366.908935546875 382.3752136230469 361.7330932617188 382.3752136230469 356.1219787597656 C 382.3752136230469 348.0801391601563 375.8326721191406 341.5376281738281 367.7908325195313 341.5376281738281 C 365.9713134765625 341.5376281738281 364.1955871582031 341.8689880371094 362.512939453125 342.5225524902344 L 362.5128479003906 342.5223388671875 C 362.2987060546875 342.6021423339844 358.0097351074219 344.1886596679688 265.5356140136719 378.3722839355469 L 265.5411682128906 378.3702392578125 C 265.4703369140625 378.3968811035156 265.4077758789063 378.415283203125 265.3620910644531 378.4286804199219 C 265.3525695800781 378.4314880371094 265.343017578125 378.4341735839844 265.33349609375 378.4370727539063 C 261.7193908691406 379.8054504394531 257.9147033691406 380.4993286132813 254.0250244140625 380.4993286132813 L 174.8097229003906 380.4993286132813 C 169.9617309570313 380.4993286132813 166.017578125 376.55517578125 166.017578125 371.7071533203125 C 166.017578125 366.859130859375 169.9617309570313 362.9149780273438 174.8097229003906 362.9149780273438 L 254.0250244140625 362.9149780273438 C 255.8450317382813 362.9149780273438 257.6135864257813 362.583740234375 259.2816162109375 361.9303894042969 C 264.8622741699219 359.7682800292969 268.6094360351563 354.3034973144531 268.6094360351563 348.3305969238281 C 268.6094360351563 340.2887268066406 262.0668640136719 333.7462463378906 254.0250244140625 333.7462463378906 L 203.5628814697266 333.7462463378906 C 199.3785247802734 333.7462463378906 195.2427825927734 332.6624450683594 191.602783203125 330.6120910644531 L 153.9872741699219 309.4503479003906 C 145.4349822998047 304.6398010253906 137.2294769287109 302.3013000488281 128.9019775390625 302.3013000488281 C 117.3737258911133 302.3013000488281 107.6582260131836 306.7351989746094 98.26262664794922 311.0231018066406 C 93.44676971435547 313.2212524414063 88.47561645507813 315.4901733398438 83.59712982177734 316.8470764160156 L 83.59712982177734 394.2933044433594 C 111.4862289428711 395.6118469238281 130.1473999023438 403.0758666992188 148.1999206542969 410.2967529296875 C 167.4268798828125 417.9878845214844 185.5875854492188 425.25244140625 215.0641326904297 425.25244140625 C 227.5732727050781 425.25244140625 247.057373046875 420.7305297851563 272.9752197265625 411.8123779296875 C 273.9015808105469 411.4932861328125 274.8643798828125 411.3314514160156 275.8365173339844 411.3314514160156 C 279.5872802734375 411.3314514160156 282.9281921386719 413.7159729003906 284.1499633789063 417.2650756835938 C 284.9141845703125 419.48583984375 284.7678833007813 421.87109375 283.7380676269531 423.9814758300781 C 282.7082214355469 426.092041015625 280.9179382324219 427.6752014160156 278.697021484375 428.4393310546875 C 250.9344787597656 437.9927978515625 229.5252838134766 442.8368530273438 215.0641326904297 442.8368530273438 Z M 16.58437728881836 409.6680297851563 L 66.01277923583984 409.6680297851563 L 66.01277923583984 318.1618957519531 L 16.58437728881836 318.1618957519531 L 16.58437728881836 409.6680297851563 Z" stroke="none" fill="#fff"/>
    </g>
    <g id="Path_93" data-name="Path 93" transform="translate(-41.071 -25.905)" fill="#fff">
      <path d="M 302.9815979003906 229.1497344970703 C 301.3581848144531 229.1497344970703 299.7820739746094 228.6778106689453 298.4236145019531 227.7849884033203 C 248.1422576904297 194.700927734375 214.1493225097656 162.0397796630859 197.3888549804688 130.7085876464844 C 190.9124755859375 118.6019592285156 187.0446929931641 106.6987075805664 185.8929138183594 95.32949066162109 C 184.9926605224609 86.44302368164063 185.7416076660156 77.91286468505859 188.1188812255859 69.97592926025391 C 196.8818206787109 40.71483612060547 225.1075744628906 25.4050235748291 248.4604797363281 25.4050235748291 C 260.6662292480469 25.4050235748291 272.2392883300781 28.50014877319336 282.8582153320313 34.60446166992188 C 287.0272521972656 37.00105285644531 291.0568237304688 39.872802734375 294.8349914550781 43.13996124267578 C 297.7125854492188 45.62838363647461 300.4512023925781 48.35008239746094 302.9823608398438 51.236572265625 C 305.5137939453125 48.35005569458008 308.2527160644531 45.62832260131836 311.1305541992188 43.13996124267578 C 314.9090576171875 39.87277221679688 318.9390563964844 37.00102233886719 323.1086120605469 34.60442733764648 C 333.728759765625 28.50014877319336 345.303466796875 25.4050235748291 357.5112609863281 25.4050235748291 C 380.889892578125 25.4050235748291 409.133544921875 40.68886566162109 417.8809509277344 69.90036773681641 C 420.2596130371094 77.84261322021484 421.0092468261719 86.37815093994141 420.109130859375 95.26983642578125 C 418.95751953125 106.6458053588867 415.0887756347656 118.5556182861328 408.6103820800781 130.6684265136719 C 391.8446655273438 162.0156555175781 357.8393249511719 194.6903381347656 307.5389709472656 227.7848358154297 C 306.18212890625 228.6777801513672 304.606201171875 229.1497344970703 302.9815979003906 229.1497344970703 Z M 203.5261383056641 74.59055328369141 L 204.0050659179688 74.73399353027344 C 198.7725524902344 92.20698547363281 197.9487915039063 140.4280242919922 302.9815979003906 210.9033966064453 C 408.0583801269531 140.4022827148438 407.2303771972656 92.14553833007813 401.9939270019531 74.65840148925781 C 395.6393432617188 53.4395866394043 374.3326110839844 41.99014663696289 357.5112609863281 41.99014663696289 C 341.4412231445313 41.99014663696289 329.4572448730469 49.33218002319336 322.2337341308594 55.49136734008789 C 318.1186828613281 59.00008392333984 315.0661010742188 62.51493072509766 313.2299499511719 64.84564971923828 C 311.1756896972656 67.45320892333984 310.1494445800781 69.18424224853516 310.1396789550781 69.20098876953125 C 308.6576538085938 71.73383331298828 305.9149780273438 73.30693054199219 302.9815979003906 73.30693054199219 C 300.0569763183594 73.30693054199219 297.3187255859375 71.74143218994141 295.8353881835938 69.22133636474609 C 295.1743469238281 68.11161804199219 279.2607116699219 41.99014663696289 248.4597320556641 41.99014663696289 C 231.6630096435547 41.99014663696289 210.3744812011719 53.46608352661133 204.0050964355469 74.73399353027344 L 203.5261383056641 74.59055328369141 Z" stroke="none"/>
      <path d="M 302.9815979003906 228.6497344970703 C 304.4730224609375 228.6497344970703 305.9652709960938 228.221923828125 307.26416015625 227.3671417236328 C 421.5653076171875 152.1640167236328 425.3312377929688 96.51930236816406 417.4019470214844 70.04380035400391 C 408.724609375 41.06624221801758 380.7046813964844 25.9050235748291 357.5112609863281 25.9050235748291 C 330.11474609375 25.9050235748291 312.008056640625 41.56183624267578 302.9823608398438 51.99789810180664 C 293.9574890136719 41.56183624267578 275.8523254394531 25.9050235748291 248.4604797363281 25.9050235748291 C 225.2927856445313 25.9050235748291 197.2908172607422 41.09199142456055 188.5978546142578 70.11940002441406 C 180.6732330322266 96.57695770263672 184.4407348632813 152.1881866455078 298.6982421875 227.3671417236328 C 299.998779296875 228.221923828125 301.4893798828125 228.6497344970703 302.9815979003906 228.6497344970703 M 203.5261077880859 74.59055328369141 L 203.5261383056641 74.59055328369141 C 209.9648284912109 53.09114837646484 231.4828796386719 41.49014663696289 248.4597320556641 41.49014663696289 C 279.5372619628906 41.49014663696289 295.5603332519531 67.78252410888672 296.2662963867188 68.96771240234375 C 297.6665344238281 71.34664916992188 300.2208251953125 72.80693054199219 302.9815979003906 72.80693054199219 C 305.7501831054688 72.80693054199219 308.3099060058594 71.33808898925781 309.7078247070313 68.94898986816406 C 309.8683166503906 68.67392730712891 326.1329345703125 41.49014663696289 357.5112609863281 41.49014663696289 C 374.5130004882813 41.49014663696289 396.0490112304688 53.06464767456055 402.472900390625 74.51496124267578 C 407.7840270996094 92.25152587890625 408.4970397949219 140.7937164306641 302.9815673828125 211.5054016113281 C 197.5090026855469 140.8186492919922 198.2188568115234 92.31308746337891 203.5261077880859 74.59055328369141 M 302.9815979003906 229.6497344970703 C 301.2603149414063 229.6497344970703 299.5892333984375 229.1493988037109 298.1489868164063 228.2028045654297 C 247.7970123291016 195.072265625 213.7481994628906 162.3499298095703 196.9479827880859 130.9444274902344 C 190.4406585693359 118.7799911499023 186.5538177490234 106.814338684082 185.3954772949219 95.37989807128906 C 184.4885711669922 86.42789459228516 185.2437286376953 77.83248901367188 187.6399078369141 69.83245849609375 C 189.7606353759766 62.75093078613281 193.1003875732422 56.19861602783203 197.5663909912109 50.35758590698242 C 201.6992340087891 44.95220947265625 206.7374420166016 40.22205352783203 212.5410766601563 36.29849243164063 C 217.9997863769531 32.60808563232422 223.9605407714844 29.74102210998535 230.2577514648438 27.77689743041992 C 236.3674774169922 25.87127304077148 242.4917602539063 24.9050235748291 248.4604797363281 24.9050235748291 C 260.7547912597656 24.9050235748291 272.4116821289063 28.02255439758301 283.107421875 34.17095947265625 C 287.3040466308594 36.58342742919922 291.3598327636719 39.47377395629883 295.1620178222656 42.76177215576172 C 297.9150390625 45.14243698120117 300.5415954589844 47.73534774780273 302.9823913574219 50.48112106323242 C 305.4234313964844 47.73532485961914 308.05029296875 45.14237594604492 310.8034973144531 42.76174163818359 C 314.6061096191406 39.4737434387207 318.6623229980469 36.58339691162109 322.8594360351563 34.17095947265625 C 333.556396484375 28.02252197265625 345.2149353027344 24.9050235748291 357.5112609863281 24.9050235748291 C 363.4862365722656 24.9050235748291 369.6161804199219 25.86958503723145 375.730712890625 27.77186584472656 C 382.0330810546875 29.73261642456055 387.9978637695313 32.59474182128906 393.4593505859375 36.27880477905273 C 399.2660827636719 40.19573974609375 404.3058776855469 44.91789627075195 408.4387512207031 50.31417846679688 C 412.9048767089844 56.14555358886719 416.2428283691406 62.68705368041992 418.3599243164063 69.75692749023438 C 420.7574768066406 77.76224517822266 421.5133666992188 86.36299133300781 420.6065979003906 95.32021331787109 C 419.4483947753906 106.7613983154297 415.5606079101563 118.7336196899414 409.05126953125 130.9042358398438 C 392.2457885742188 162.3258056640625 358.1845703125 195.0616760253906 307.8138122558594 228.2025604248047 C 306.3751525878906 229.1493072509766 304.7041625976563 229.6497344970703 302.9815979003906 229.6497344970703 Z M 204.4840698242188 74.87742614746094 C 201.6325378417969 84.39962005615234 200.7248229980469 100.4287719726563 212.5940399169922 122.7163391113281 C 227.3742828369141 150.4700622558594 257.7838439941406 179.9360046386719 302.9815673828125 210.3011474609375 C 348.1977233886719 179.9252777099609 378.6193542480469 150.4451446533203 393.4045104980469 122.6745529174805 C 405.2779846191406 100.3729629516602 404.3685913085938 84.33168029785156 401.5149536132813 74.80183410644531 C 395.229736328125 53.81461715698242 374.1521606445313 42.49014663696289 357.5112609863281 42.49014663696289 C 341.6156005859375 42.49014663696289 329.752197265625 49.74821090698242 322.5990905761719 55.83695983886719 C 314.6407165527344 62.61114883422852 310.6107482910156 69.38627624511719 310.5709838867188 69.45389556884766 C 308.9998779296875 72.13899230957031 306.0918273925781 73.80693054199219 302.9815979003906 73.80693054199219 C 301.4531860351563 73.80693054199219 299.944091796875 73.40602111816406 298.6174011230469 72.64755249023438 C 297.2921752929688 71.88991546630859 296.1820678710938 70.79432678222656 295.4070129394531 69.47919464111328 C 294.748779296875 68.37423706054688 278.9779357910156 42.49014663696289 248.4597320556641 42.49014663696289 C 231.8434448242188 42.49014663696289 210.7841033935547 53.84111785888672 204.4841003417969 74.87745666503906 L 204.4840698242188 74.87744903564453 L 204.4840698242188 74.87742614746094 Z" stroke="none" fill="#fff"/>
    </g>
    <g id="Path_94" data-name="Path 94" transform="translate(-63.144 -43.61)" fill="#fff">
      <path d="M 324.9608764648438 184.5167999267578 C 320.3885803222656 184.5167999267578 316.6687316894531 180.7969512939453 316.6687316894531 176.2246246337891 L 316.6687316894531 153.3480834960938 L 293.7922058105469 153.3480834960938 C 289.2198791503906 153.3480834960938 285.5000305175781 149.6282348632813 285.5000305175781 145.055908203125 C 285.5000305175781 140.4835815429688 289.2198791503906 136.7637329101563 293.7922058105469 136.7637329101563 L 316.6687316894531 136.7637329101563 L 316.6687316894531 113.8871917724609 C 316.6687316894531 109.3148574829102 320.3885803222656 105.5950012207031 324.9608764648438 105.5950012207031 C 329.5332336425781 105.5950012207031 333.2531127929688 109.3148574829102 333.2531127929688 113.8871917724609 L 333.2531127929688 136.7637329101563 L 356.129638671875 136.7637329101563 C 360.7019348144531 136.7637329101563 364.4217834472656 140.4835815429688 364.4217834472656 145.055908203125 C 364.4217834472656 149.6282348632813 360.7019348144531 153.3480834960938 356.129638671875 153.3480834960938 L 333.2531127929688 153.3480834960938 L 333.2531127929688 176.2246246337891 C 333.2531127929688 180.7969512939453 329.5332336425781 184.5167999267578 324.9608764648438 184.5167999267578 Z" stroke="none"/>
      <path d="M 324.9608764648438 184.0167999267578 C 329.2637329101563 184.0167999267578 332.7531127929688 180.5282440185547 332.7531127929688 176.2246246337891 L 332.7531127929688 152.8480834960938 L 356.129638671875 152.8480834960938 C 360.4324645996094 152.8480834960938 363.9217834472656 149.3595275878906 363.9217834472656 145.055908203125 C 363.9217834472656 140.7523040771484 360.4324645996094 137.2637329101563 356.129638671875 137.2637329101563 L 332.7531127929688 137.2637329101563 L 332.7531127929688 113.8871841430664 C 332.7531127929688 109.5835647583008 329.2637329101563 106.0949935913086 324.9608764648438 106.0949935913086 C 320.6580810546875 106.0949935913086 317.1687316894531 109.5835647583008 317.1687316894531 113.8871841430664 L 317.1687316894531 137.2637329101563 L 293.7922058105469 137.2637329101563 C 289.4893493652344 137.2637329101563 286.0000305175781 140.7523040771484 286.0000305175781 145.055908203125 C 286.0000305175781 149.3595275878906 289.4893493652344 152.8480834960938 293.7922058105469 152.8480834960938 L 317.1687316894531 152.8480834960938 L 317.1687316894531 176.2246246337891 C 317.1687316894531 180.5282440185547 320.6580810546875 184.0167999267578 324.9608764648438 184.0167999267578 M 324.9608764648438 185.0167999267578 C 320.1128845214844 185.0167999267578 316.1687316894531 181.0726470947266 316.1687316894531 176.2246246337891 L 316.1687316894531 153.8480834960938 L 293.7922058105469 153.8480834960938 C 288.9441833496094 153.8480834960938 285.0000305175781 149.9039306640625 285.0000305175781 145.055908203125 C 285.0000305175781 140.2078857421875 288.9441833496094 136.2637329101563 293.7922058105469 136.2637329101563 L 316.1687316894531 136.2637329101563 L 316.1687316894531 113.8871841430664 C 316.1687316894531 109.0391540527344 320.1128845214844 105.0949935913086 324.9608764648438 105.0949935913086 C 329.8089294433594 105.0949935913086 333.7531127929688 109.0391540527344 333.7531127929688 113.8871841430664 L 333.7531127929688 136.2637329101563 L 356.129638671875 136.2637329101563 C 360.9776306152344 136.2637329101563 364.9217834472656 140.2078857421875 364.9217834472656 145.055908203125 C 364.9217834472656 149.9039306640625 360.9776306152344 153.8480834960938 356.129638671875 153.8480834960938 L 333.7531127929688 153.8480834960938 L 333.7531127929688 176.2246246337891 C 333.7531127929688 181.0726470947266 329.8089294433594 185.0167999267578 324.9608764648438 185.0167999267578 Z" stroke="none" fill="#fff"/>
    </g>
    <g id="Ellipse_10" data-name="Ellipse 10" transform="translate(300.778 316.511)" fill="#fff" stroke="#fff" stroke-width="1">
      <ellipse cx="7.792" cy="7.792" rx="7.792" ry="7.792" stroke="none"/>
      <ellipse cx="7.792" cy="7.792" rx="8.292" ry="8.292" fill="none"/>
    </g>
  </g>
</svg>
