<svg xmlns="http://www.w3.org/2000/svg" width="363.267" height="360.588" viewBox="0 0 363.267 360.588">
  <g id="icon-cyberSec" transform="translate(1 1)">
    <g id="Path_86" data-name="Path 86" transform="translate(-39.998 -1.899)" fill="#fff">
      <path d="M 338.2290954589844 197.9345855712891 C 337.478271484375 197.9345855712891 336.7494506835938 197.8031768798828 336.1214904785156 197.5546112060547 L 336.1151428222656 197.5520935058594 L 336.1088562011719 197.5494079589844 C 333.1803894042969 196.2964782714844 331.8161926269531 192.8950653076172 333.0677795410156 189.9670257568359 C 345.2873840332031 161.3844757080078 351.4831848144531 134.947265625 351.4831848144531 111.3897094726563 C 351.4831848144531 105.0262680053711 351.2794189453125 98.80170440673828 350.8775329589844 92.88890838623047 C 350.8421630859375 92.37265014648438 350.4700622558594 91.93394470214844 349.9515380859375 91.79750061035156 C 319.5208129882813 83.80838012695313 292.8422241210938 72.99229431152344 270.6570739746094 59.64967727661133 C 247.9519653320313 45.99517822265625 231.1190185546875 30.38167762756348 220.6258087158203 13.24294185638428 C 220.50048828125 13.03858852386475 220.3529968261719 12.95126533508301 220.1328125 12.95126533508301 C 219.9126434326172 12.95126533508301 219.7651672363281 13.03858852386475 219.6396636962891 13.24323558807373 C 205.4440002441406 36.4305305480957 179.1204071044922 57.17647171020508 143.5148773193359 73.23788452148438 C 142.7618103027344 73.57701110839844 141.9644470214844 73.74893951416016 141.1448822021484 73.74893951416016 C 141.1446380615234 73.74893951416016 141.1445007324219 73.74893951416016 141.1442565917969 73.74893951416016 C 138.8750457763672 73.74876403808594 136.8059997558594 72.41390991210938 135.8731079101563 70.3482666015625 C 134.5634918212891 67.44447326660156 135.8601989746094 64.01667785644531 138.7635498046875 62.70691299438477 C 172.2467346191406 47.60276412963867 196.8060150146484 28.41250038146973 209.7863464355469 7.210794448852539 C 212.0143127441406 3.57164740562439 215.8818817138672 1.399029850959778 220.1321105957031 1.399029850959778 C 224.3823394775391 1.399029850959778 228.2499084472656 3.57164740562439 230.4778747558594 7.210794448852539 C 249.6137542724609 38.46526336669922 294.2296752929688 65.22355651855469 352.8856506347656 80.62458801269531 C 358.2076110839844 82.02043914794922 362.0325927734375 86.63465118408203 362.4035034179688 92.10641479492188 C 362.8232727050781 98.28044128417969 363.0361328125 104.7683258056641 363.0361328125 111.3897094726563 C 363.0361328125 136.5165252685547 356.5276489257813 164.4816741943359 343.6914367675781 194.50830078125 L 343.6856689453125 194.5217895507813 L 343.6791076660156 194.534912109375 C 342.1488952636719 197.6033172607422 339.3580017089844 197.9345855712891 338.2290954589844 197.9345855712891 Z" stroke="none"/>
      <path d="M 220.1321105957031 1.899002075195313 C 216.0572814941406 1.899002075195313 212.349365234375 3.981948852539063 210.2127990722656 7.471847534179688 C 197.1796875 28.759765625 172.5443725585938 48.01699829101563 138.9691772460938 63.16267395019531 C 136.3132934570313 64.36079406738281 135.1306762695313 67.48591613769531 136.3287963867188 70.14247131347656 C 137.2099609375 72.0936279296875 139.1327209472656 73.24894714355469 141.144287109375 73.24894714355469 C 141.8693542480469 73.24894714355469 142.6055908203125 73.0989990234375 143.3092651367188 72.78211975097656 L 143.3092956542969 72.78211975097656 C 178.8228149414063 56.76217651367188 205.0704040527344 36.08317565917969 219.2134399414063 12.98185729980469 C 219.4293518066406 12.6297607421875 219.7384033203125 12.45123291015625 220.1328125 12.45123291015625 C 220.5272521972656 12.45123291015625 220.8363037109375 12.6297607421875 221.0522155761719 12.98185729980469 C 231.5028686523438 30.05099487304688 248.2784576416016 45.60806274414063 270.914794921875 59.22117614746094 C 293.059326171875 72.53938293457031 319.6949462890625 83.33717346191406 350.0787963867188 91.31397247314453 C 350.8056030273438 91.50520324707031 351.3262939453125 92.12400054931641 351.3763732910156 92.85500335693359 C 351.779296875 98.78276824951172 351.983154296875 105.0181503295898 351.983154296875 111.3897094726563 C 351.983154296875 135.0152893066406 345.77392578125 161.5182952880859 333.5275573730469 190.1635284423828 C 332.38232421875 192.8427124023438 333.6256103515625 195.9430847167969 336.3055419921875 197.0897064208984 C 336.8483276367188 197.3045654296875 337.515625 197.4345703125 338.2290649414063 197.4345703125 C 340.0086059570313 197.4345703125 342.0772705078125 196.6265869140625 343.231689453125 194.3117370605469 C 356.0411071777344 164.3477630615234 362.5361328125 136.4490661621094 362.5361328125 111.3897094726563 C 362.5361328125 104.7810592651367 362.3237609863281 98.30438232421875 361.9046325683594 92.14023590087891 C 361.5483093261719 86.88352966308594 357.8728637695313 82.44956207275391 352.7586669921875 81.10820770263672 C 293.9787292480469 65.67462158203125 249.2543182373047 38.83573913574219 230.0514526367188 7.471847534179688 C 227.9148559570313 3.981948852539063 224.2069702148438 1.899002075195313 220.1321105957031 1.899002075195313 M 220.1321105957031 0.8990020751953125 C 224.5577697753906 0.8990020751953125 228.584716796875 3.160934448242188 230.9043273925781 6.94970703125 C 249.9734649658203 38.09519958496094 294.480224609375 64.77241516113281 353.0126342773438 80.14099884033203 C 358.5424194335938 81.59135437011719 362.5169067382813 86.38632202148438 362.90234375 92.07261657714844 C 363.3229064941406 98.25776672363281 363.5361328125 104.7570571899414 363.5361328125 111.3897094726563 C 363.5361328125 136.5845031738281 357.0140991210938 164.6157379150391 344.1511840820313 194.7048187255859 L 344.1396484375 194.7317657470703 L 344.1265563964844 194.7580261230469 C 343.4994506835938 196.0155029296875 342.59912109375 196.9768218994141 341.4506225585938 197.6152648925781 C 340.4864501953125 198.1512298583984 339.3724365234375 198.4345550537109 338.2290649414063 198.4345550537109 C 337.4158935546875 198.4345550537109 336.6234130859375 198.2910308837891 335.9375 198.0195007324219 L 335.9247436523438 198.0144653320313 L 335.9121704101563 198.0090942382813 C 332.7303771972656 196.6477355957031 331.2481384277344 192.9519195556641 332.6080322265625 189.7704772949219 C 344.8008728027344 161.2504425048828 350.983154296875 134.8793640136719 350.983154296875 111.3897094726563 C 350.983154296875 105.0372619628906 350.77978515625 98.82408905029297 350.378662109375 92.92282104492188 C 350.3579711914063 92.6209716796875 350.1352233886719 92.36285400390625 349.8243103027344 92.28105926513672 C 319.3478393554688 84.27994537353516 292.6253051757813 73.44526672363281 270.3994140625 60.078125 C 247.6247863769531 46.38185119628906 230.7350769042969 30.71206665039063 220.1993713378906 13.50399780273438 C 220.1813659667969 13.47465515136719 220.1679382324219 13.45953369140625 220.1613464355469 13.45297241210938 C 220.1559448242188 13.45216369628906 220.1466674804688 13.45123291015625 220.1328125 13.45123291015625 C 220.1189880371094 13.45123291015625 220.1097412109375 13.45216369628906 220.1043395996094 13.45297241210938 C 220.0977172851563 13.45954895019531 220.0841979980469 13.47482299804688 220.06591796875 13.50462341308594 C 205.8178405761719 36.77752685546875 179.4178771972656 57.59078979492188 143.7204895019531 73.69367980957031 C 142.9020385742188 74.06221008300781 142.0354919433594 74.24893951416016 141.144287109375 74.24893951416016 C 138.6790161132813 74.24893951416016 136.4311218261719 72.79861450195313 135.4174194335938 70.55406188964844 C 133.9943542480469 67.39874267578125 135.4032897949219 63.67427062988281 138.5579528808594 62.25114440917969 C 171.9493103027344 47.18838500976563 196.4322204589844 28.06547546386719 209.3599243164063 6.94970703125 C 211.6794738769531 3.160934448242188 215.7064514160156 0.8990020751953125 220.1321105957031 0.8990020751953125 Z" stroke="none" fill="#fff"/>
    </g>
    <g id="Path_87" data-name="Path 87" transform="translate(-52.707 -47.387)" fill="#fff">
      <path d="M 268.3610229492188 281.1846618652344 L 268.3609924316406 281.1846618652344 L 197.3212738037109 281.1846618652344 C 186.9597473144531 281.1846618652344 178.5300140380859 272.7549438476563 178.5300140380859 262.3934326171875 L 178.5300140380859 219.8034362792969 C 178.5300140380859 215.0726776123047 180.3011474609375 210.5500335693359 183.5171813964844 207.0686340332031 C 186.6092071533203 203.7214508056641 190.7628631591797 201.623779296875 195.2555389404297 201.1298828125 L 195.2555389404297 193.49658203125 C 195.2555389404297 172.7718200683594 212.1163635253906 155.9109802246094 232.8411254882813 155.9109802246094 C 253.5658721923828 155.9109802246094 270.4266967773438 172.7718200683594 270.4266967773438 193.49658203125 L 270.4266967773438 201.1292572021484 C 274.9193725585938 201.6234588623047 279.0730590820313 203.7212982177734 282.1651000976563 207.0684814453125 C 285.381103515625 210.5498809814453 287.1522521972656 215.0723571777344 287.1522521972656 219.8027648925781 L 287.1522521972656 262.3927307128906 C 287.1522521972656 272.7539367675781 278.7225341796875 281.1839599609375 268.3610229492188 281.1846618652344 Z M 197.3212585449219 212.564453125 C 193.3300476074219 212.564453125 190.0829467773438 215.8115539550781 190.0829467773438 219.8027648925781 L 190.0829467773438 262.3927307128906 C 190.0829467773438 266.3839416503906 193.3294219970703 269.6310424804688 197.3199157714844 269.6310424804688 L 268.3609619140625 269.6310424804688 C 272.3521728515625 269.6310424804688 275.5992736816406 266.3839416503906 275.5992736816406 262.3927307128906 L 275.5992736816406 219.8027648925781 C 275.5992736816406 215.8115539550781 272.3521728515625 212.564453125 268.3609619140625 212.564453125 L 197.3212585449219 212.564453125 Z M 206.8084716796875 201.01220703125 L 258.8744812011719 201.01220703125 L 258.8744812011719 193.4965972900391 C 258.8744812011719 179.1421356201172 247.1962738037109 167.4639434814453 232.8418273925781 167.4639434814453 C 218.4869995117188 167.4639434814453 206.8084716796875 179.1421356201172 206.8084716796875 193.4965972900391 L 206.8084716796875 201.01220703125 Z" stroke="none"/>
      <path d="M 268.3609924316406 280.6846618652344 C 278.4475708007813 280.6839904785156 286.6522521972656 272.479248046875 286.6522521972656 262.3927307128906 L 286.6522521972656 219.8027648925781 C 286.6522521972656 210.2447052001953 279.2822570800781 202.3807983398438 269.9266967773438 201.582763671875 L 269.9266967773438 193.49658203125 C 269.9266967773438 173.047607421875 253.2907867431641 156.4109802246094 232.8411254882813 156.4109802246094 C 212.3914489746094 156.4109802246094 195.7555389404297 173.0469055175781 195.7555389404297 193.49658203125 L 195.7555389404297 201.5834503173828 C 186.3999938964844 202.3807830810547 179.0300140380859 210.2446746826172 179.0300140380859 219.8034362792969 L 179.0300140380859 262.3934326171875 C 179.0300140380859 272.479248046875 187.2354278564453 280.6846618652344 197.3212738037109 280.6846618652344 L 268.3609924316406 280.6846618652344 M 197.3212585449219 212.064453125 L 268.3609619140625 212.064453125 C 272.6277465820313 212.064453125 276.0992736816406 215.5360107421875 276.0992736816406 219.8027648925781 L 276.0992736816406 262.3927307128906 C 276.0992736816406 266.6594848632813 272.6277465820313 270.1310424804688 268.3609619140625 270.1310424804688 L 197.3212585449219 270.1310424804688 C 197.3209991455078 270.1310424804688 197.3201751708984 270.1310424804688 197.3199005126953 270.1310424804688 C 193.0535125732422 270.1310424804688 189.5829467773438 266.659912109375 189.5829467773438 262.3927307128906 L 189.5829467773438 219.8027648925781 C 189.5829467773438 215.5360107421875 193.0545043945313 212.064453125 197.3212585449219 212.064453125 M 232.8418273925781 166.9639434814453 C 247.4717254638672 166.9639434814453 259.3744812011719 178.86669921875 259.3744812011719 193.4965972900391 L 259.3744812011719 201.51220703125 L 206.3084716796875 201.51220703125 L 206.3084716796875 193.4965972900391 C 206.3084716796875 178.8659973144531 218.2112426757813 166.9639434814453 232.8418273925781 166.9639434814453 M 268.3610534667969 281.6846618652344 L 268.3609924316406 281.6846618652344 L 197.3212738037109 281.6846618652344 C 186.6840362548828 281.6846618652344 178.0300140380859 273.0306396484375 178.0300140380859 262.3934326171875 L 178.0300140380859 219.8034362792969 C 178.0300140380859 214.946533203125 179.8482971191406 210.3034057617188 183.1498870849609 206.7293548583984 C 186.2216644287109 203.4040985107422 190.3141937255859 201.2801666259766 194.7555389404297 200.6870880126953 L 194.7555389404297 193.49658203125 C 194.7555389404297 172.4961242675781 211.8406524658203 155.4109802246094 232.8411254882813 155.4109802246094 C 253.8415679931641 155.4109802246094 270.9266967773438 172.4961242675781 270.9266967773438 193.49658203125 L 270.9266967773438 200.6864624023438 C 275.3680114746094 201.2798614501953 279.4606323242188 203.4039764404297 282.5323486328125 206.7292022705078 C 285.833984375 210.3032684326172 287.6522521972656 214.9462280273438 287.6522521972656 219.8027648925781 L 287.6522521972656 262.3927307128906 C 287.6522521972656 273.0296325683594 278.9982604980469 281.6839599609375 268.3610534667969 281.6846618652344 Z M 197.3212585449219 213.064453125 C 193.6057434082031 213.064453125 190.5829467773438 216.0872497558594 190.5829467773438 219.8027648925781 L 190.5829467773438 262.3927307128906 C 190.5829467773438 266.1082458496094 193.6051330566406 269.1310424804688 197.3199157714844 269.1310424804688 L 268.3609619140625 269.1310424804688 C 272.0764770507813 269.1310424804688 275.0992736816406 266.1082458496094 275.0992736816406 262.3927307128906 L 275.0992736816406 219.8027648925781 C 275.0992736816406 216.0872497558594 272.0764770507813 213.064453125 268.3609619140625 213.064453125 L 197.3212585449219 213.064453125 Z M 207.3084716796875 200.51220703125 L 258.3744812011719 200.51220703125 L 258.3744812011719 193.4965972900391 C 258.3744812011719 179.4178314208984 246.9205780029297 167.9639434814453 232.8418273925781 167.9639434814453 C 218.7626953125 167.9639434814453 207.3084716796875 179.4178314208984 207.3084716796875 193.4965972900391 L 207.3084716796875 200.51220703125 Z" stroke="none" fill="#fff"/>
    </g>
    <g id="Path_88" data-name="Path 88" transform="translate(-70.758 -77.145)" fill="#fff">
      <path d="M 253.3312225341797 287.8468627929688 L 249.0630493164063 287.8468627929688 C 247.5147094726563 287.8468627929688 246.2550506591797 286.5871887207031 246.2550506591797 285.038818359375 L 246.2550506591797 278.5587463378906 C 244.2834625244141 277.6047668457031 242.643310546875 276.1162719726563 241.4977722167969 274.2373352050781 C 240.2570037841797 272.2022094726563 239.6975860595703 269.8568420410156 239.8799743652344 267.4548034667969 C 240.0853118896484 264.7535095214844 241.2759552001953 262.20263671875 243.2325439453125 260.2720642089844 C 245.1886901855469 258.3419494628906 247.7553100585938 257.1847534179688 250.4596099853516 257.013671875 C 250.7046508789063 256.9981689453125 250.9527435302734 256.9902954101563 251.1969757080078 256.9902954101563 C 254.2290344238281 256.9902954101563 257.07958984375 258.1709594726563 259.2235412597656 260.3148193359375 C 261.3674621582031 262.4586486816406 262.5481872558594 265.3089904785156 262.5481872558594 268.3408203125 C 262.5481872558594 272.6924743652344 260.0433959960938 276.6676635742188 256.1392517089844 278.5586853027344 L 256.1392517089844 285.038818359375 C 256.1392517089844 286.5871887207031 254.8795623779297 287.8468627929688 253.3312225341797 287.8468627929688 Z" stroke="none"/>
      <path d="M 251.1969757080078 257.4902954101563 C 250.9632263183594 257.4902954101563 250.7281494140625 257.4976806640625 250.4911804199219 257.5126647949219 C 245.1491088867188 257.8506469726563 240.7842407226563 262.155517578125 240.3785400390625 267.49267578125 C 240.0165710449219 272.2597045898438 242.7380676269531 276.4347534179688 246.7550506591797 278.2403564453125 L 246.7550506591797 285.038818359375 C 246.7550506591797 286.3138427734375 247.7880554199219 287.3468627929688 249.0630493164063 287.3468627929688 L 253.3312225341797 287.3468627929688 C 254.6062469482422 287.3468627929688 255.6392517089844 286.3138427734375 255.6392517089844 285.038818359375 L 255.6392517089844 278.2403564453125 C 259.4162902832031 276.5426635742188 262.0481872558594 272.7500610351563 262.0481872558594 268.3408203125 C 262.0481872558594 262.3483276367188 257.1900939941406 257.4905090332031 251.1969757080078 257.4902954101563 M 251.1965026855469 256.4902954101563 L 251.1965026855469 257.4902954101563 L 251.1966400146484 256.4902954101563 C 254.3626251220703 256.4904174804688 257.3387451171875 257.7231140136719 259.5770874023438 259.9613342285156 C 261.8154602050781 262.1995544433594 263.0481872558594 265.1754760742188 263.0481872558594 268.3408203125 C 263.0481872558594 272.7784423828125 260.5533447265625 276.8411254882813 256.6392517089844 278.8674011230469 L 256.6392517089844 285.038818359375 C 256.6392517089844 286.8628845214844 255.1552734375 288.3468627929688 253.3312225341797 288.3468627929688 L 249.0630493164063 288.3468627929688 C 247.239013671875 288.3468627929688 245.7550354003906 286.8628845214844 245.7550354003906 285.038818359375 L 245.7550354003906 278.86767578125 C 243.8223571777344 277.868896484375 242.2116088867188 276.36865234375 241.0708618164063 274.4975891113281 C 239.7752380371094 272.3724975585938 239.1910400390625 269.924072265625 239.3814086914063 267.4169616699219 C 239.5958862304688 264.5952758789063 240.8388671875 261.9314575195313 242.8813781738281 259.9161376953125 C 244.9233093261719 257.9013671875 247.6034393310547 256.693359375 250.4280395507813 256.5146484375 C 250.6835327148438 256.4985046386719 250.9420623779297 256.4902954101563 251.1965026855469 256.4902954101563 Z" stroke="none" fill="#fff"/>
    </g>
    <g id="Path_89" data-name="Path 89" transform="translate(0 -31.289)" fill="#fff">
      <path d="M 180.1345062255859 390.3776245117188 C 176.2459259033203 390.3776245117188 172.6147918701172 388.8364868164063 169.9100189208984 386.0381164550781 C 163.7421417236328 379.6543273925781 153.9427947998047 369.1746520996094 142.2233581542969 355.4412841796875 L 111.4468841552734 355.4412841796875 L 100.8428344726563 366.0460815429688 C 98.95201110839844 367.9346618652344 96.44119262695313 368.9746704101563 93.77269744873047 368.9746704101563 L 87.43797302246094 368.9746704101563 C 86.30907440185547 371.8585510253906 84.37794494628906 374.3305053710938 81.83596801757813 376.1401672363281 C 79.13869476318359 378.0603942871094 75.96147155761719 379.0753479003906 72.64774322509766 379.0753479003906 C 63.89269638061523 379.0753479003906 56.76992416381836 371.952880859375 56.76992416381836 363.1982116699219 C 56.76992416381836 354.4431457519531 63.89269638061523 347.3203735351563 72.64774322509766 347.3203735351563 C 75.96178436279297 347.3203735351563 79.13910675048828 348.3353881835938 81.83624267578125 350.2556457519531 C 84.37804412841797 352.0653686523438 86.30909729003906 354.5375671386719 87.43798828125 357.4217529296875 L 93.12882232666016 357.4217529296875 L 103.7335586547852 346.8162536621094 C 105.6239242553711 344.9281005859375 108.1347885131836 343.8883972167969 110.8037414550781 343.8883972167969 L 132.5664520263672 343.8883972167969 C 129.3116302490234 339.9113159179688 126.0590133666992 335.8478088378906 122.8855438232422 331.7938537597656 L 73.76276397705078 331.7938537597656 C 72.6339111328125 334.6780395507813 70.70286560058594 337.1502075195313 68.16110229492188 338.9599304199219 C 65.46405792236328 340.8802490234375 62.28696823120117 341.895263671875 58.97323989868164 341.895263671875 C 50.2181510925293 341.895263671875 43.09537887573242 334.7724609375 43.09537887573242 326.0173950195313 C 43.09537887573242 317.2622985839844 50.2181510925293 310.1395263671875 58.97323989868164 310.1395263671875 C 62.28696823120117 310.1395263671875 65.46410369873047 311.1545104980469 68.16110229492188 313.0748291015625 C 70.70286560058594 314.8845520019531 72.6339111328125 317.3567199707031 73.76276397705078 320.2409362792969 L 114.0394439697266 320.2409362792969 C 110.7610626220703 315.8625793457031 107.5419311523438 311.4493408203125 104.4589462280273 307.1063537597656 L 30.64249801635742 307.1063537597656 C 29.72668838500977 310.2951965332031 27.79117393493652 313.169189453125 25.16151428222656 315.2327880859375 C 23.79342269897461 316.306396484375 22.27246856689453 317.1422424316406 20.64092254638672 317.7171936035156 C 18.95233154296875 318.312255859375 17.18155860900879 318.6139831542969 15.37778663635254 318.6139831542969 C 6.622695446014404 318.6139831542969 -0.500077486038208 311.4915161132813 -0.500077486038208 302.7368469238281 C -0.500077486038208 293.9825134277344 6.622695446014404 286.8597412109375 15.37774085998535 286.8589782714844 C 18.41410446166992 286.8589782714844 21.36742210388184 287.722900390625 23.9184684753418 289.3572998046875 C 26.31241607666016 290.8909912109375 28.24869155883789 293.02880859375 29.53432655334473 295.5533752441406 L 96.45857238769531 295.5533752441406 C 95.44118499755859 294.0465698242188 94.57588195800781 292.7536315917969 93.76856231689453 291.5341186523438 C 91.92697906494141 288.75341796875 90.04947662353516 285.8548889160156 88.03368377685547 282.6805725097656 L 52.29119491577148 282.6805725097656 C 49.62124252319336 282.6805725097656 47.11060333251953 281.6408081054688 45.22178649902344 279.7527465820313 L 34.61700439453125 269.147216796875 L 29.83424186706543 269.147216796875 C 28.61170387268066 271.8330383300781 26.67321395874023 274.119384765625 24.21146774291992 275.7745666503906 C 21.59260368347168 277.5353393554688 18.53796768188477 278.4660339355469 15.37778663635254 278.4660339355469 C 6.622695446014404 278.4660339355469 -0.500077486038208 271.34326171875 -0.500077486038208 262.5881958007813 C -0.500077486038208 258.3540649414063 1.153331637382507 254.3688812255859 4.155513286590576 251.3667449951172 C 7.157419681549072 248.3649749755859 11.14219379425049 246.7118377685547 15.37570762634277 246.7118377685547 C 15.37622451782227 246.7118377685547 15.37658786773682 246.7118377685547 15.37710475921631 246.7118377685547 C 18.84051322937012 246.7118377685547 22.13387680053711 247.8121643066406 24.90105819702148 249.8938903808594 C 26.23146820068359 250.8947448730469 27.39278602600098 252.0915679931641 28.35274124145508 253.4511566162109 C 29.25429534912109 254.7279815673828 29.95807266235352 256.1204223632813 30.44773101806641 257.594970703125 L 35.26015090942383 257.594970703125 C 37.93055725097656 257.594970703125 40.44119644165039 258.634521484375 42.32951354980469 260.5221252441406 L 52.93505859375 271.1276550292969 L 80.90615844726563 271.1276550292969 C 73.80741119384766 259.2590942382813 67.48768615722656 247.5225372314453 62.11532974243164 236.22998046875 C 56.63014984130859 224.7003326416016 51.98823928833008 213.3300628662109 48.31855773925781 202.4350738525391 C 44.64605712890625 191.5318450927734 41.85042190551758 180.8170166015625 40.00928497314453 170.5883331298828 C 38.16492080688477 160.3416137695313 37.22974014282227 150.3123779296875 37.22974014282227 140.7792510986328 C 37.22974014282227 134.1592102050781 37.44260406494141 127.6710662841797 37.86237716674805 121.4951553344727 C 38.23187637329102 116.0254287719727 42.05683135986328 111.4114761352539 47.38028717041016 110.0141143798828 C 56.91937637329102 107.5098876953125 66.232421875 104.6649322509766 75.06073760986328 101.5582046508789 C 75.68064880371094 101.3402481079102 76.32528686523438 101.2297515869141 76.97682952880859 101.2297515869141 C 79.42365264892578 101.2297515869141 81.61387634277344 102.7809753417969 82.4268798828125 105.0897521972656 C 83.48351287841797 108.094612121582 81.89919281005859 111.3990249633789 78.89524078369141 112.4560699462891 C 69.76406097412109 115.6684341430664 60.14796829223633 118.606201171875 50.31406021118164 121.1878433227539 C 49.79533004760742 121.3243408203125 49.42319488525391 121.7620239257813 49.38837814331055 122.2769317626953 C 48.98646926879883 128.1919250488281 48.78269577026367 134.4172515869141 48.78269577026367 140.7799835205078 C 48.78269577026367 181.8586578369141 67.15805816650391 230.4337463378906 103.3983306884766 285.1559448242188 C 132.7029724121094 329.4051513671875 165.4835968017578 364.8322448730469 178.2171020507813 378.0098876953125 C 178.7247924804688 378.535400390625 179.4054718017578 378.8247375488281 180.1337890625 378.8247375488281 C 180.8621520996094 378.8247375488281 181.5428314208984 378.535400390625 182.0504608154297 378.0099182128906 C 197.2590637207031 362.2703857421875 249.4485626220703 305.9302978515625 282.4845275878906 241.7798461914063 C 283.4802551269531 239.8473358154297 285.4497985839844 238.6468811035156 287.6246643066406 238.6468811035156 C 288.5361022949219 238.6468811035156 289.448974609375 238.8687896728516 290.2646179199219 239.2886505126953 C 293.0965576171875 240.7470245361328 294.2141418457031 244.2371978759766 292.7559204101563 247.0688781738281 C 288.7109985351563 254.9229888916016 284.2090148925781 263.0133056640625 279.3679809570313 271.1283874511719 L 307.3339538574219 271.1283874511719 L 317.9394226074219 260.522216796875 C 319.82861328125 258.634521484375 322.3392028808594 257.594970703125 325.0088806152344 257.594970703125 L 330.8182983398438 257.594970703125 C 331.3079528808594 256.1204223632813 332.01171875 254.7279815673828 332.9132995605469 253.4511566162109 C 333.8732299804688 252.0915679931641 335.0345458984375 250.8947448730469 336.3649597167969 249.8938903808594 C 339.1321411132813 247.8121643066406 342.4255065917969 246.7118377685547 345.8889770507813 246.7118377685547 C 354.6440734863281 246.7118377685547 361.766845703125 253.8342895507813 361.766845703125 262.5889282226563 C 361.766845703125 271.3439636230469 354.6440734863281 278.4667358398438 345.8889770507813 278.4667358398438 C 342.7284240722656 278.4667358398438 339.6736450195313 277.5360717773438 337.0547790527344 275.7752990722656 C 334.5929565429688 274.1201171875 332.6546630859375 271.8337707519531 331.4324951171875 269.1479187011719 L 325.6527404785156 269.1479187011719 L 315.0479736328125 279.7533874511719 C 313.1583862304688 281.6415100097656 310.6477355957031 282.6813049316406 307.978515625 282.6813049316406 L 272.2618408203125 282.6813049316406 C 269.5672302246094 286.9341125488281 266.7392272949219 291.2594909667969 263.8455810546875 295.5540771484375 L 331.732421875 295.5540771484375 C 333.01806640625 293.029541015625 334.9543762207031 290.8917846679688 337.3482971191406 289.3580322265625 C 339.8993225097656 287.7236022949219 342.8526611328125 286.8597106933594 345.8889770507813 286.8597106933594 C 354.6440124511719 286.8597106933594 361.7667846679688 293.9821472167969 361.7667846679688 302.7368469238281 C 361.7667846679688 311.4915161132813 354.6440124511719 318.6139831542969 345.8889770507813 318.6139831542969 C 344.085205078125 318.6139831542969 342.3144226074219 318.312255859375 340.6258239746094 317.7171936035156 C 338.9942321777344 317.1422424316406 337.4732971191406 316.306396484375 336.1051940917969 315.2327880859375 C 333.4755249023438 313.169189453125 331.5400085449219 310.2951965332031 330.6242065429688 307.1063537597656 L 255.8582305908203 307.1063537597656 C 252.7505035400391 311.4891662597656 249.5351715087891 315.9027404785156 246.2897186279297 320.2409362792969 L 286.7073974609375 320.2409362792969 C 287.8362426757813 317.3567199707031 289.7673034667969 314.8845520019531 292.3090515136719 313.0748291015625 C 295.0060729980469 311.1545104980469 298.1831970214844 310.1395263671875 301.4969177246094 310.1395263671875 C 310.251953125 310.1395263671875 317.374755859375 317.2622985839844 317.374755859375 326.0173950195313 C 317.374755859375 334.7724609375 310.251953125 341.895263671875 301.4969177246094 341.895263671875 C 298.1831970214844 341.895263671875 295.0060729980469 340.8802490234375 292.3090209960938 338.9599304199219 C 289.7673034667969 337.1502075195313 287.8362426757813 334.6780395507813 286.7073974609375 331.7938537597656 L 237.4449005126953 331.7938537597656 C 234.2750244140625 335.8432312011719 231.0212249755859 339.9066467285156 227.7601928710938 343.8883972167969 L 249.4652862548828 343.8883972167969 C 252.135009765625 343.8883972167969 254.6451110839844 344.9273986816406 256.533203125 346.8140258789063 L 267.1401977539063 357.4217529296875 L 272.8310546875 357.4217529296875 C 273.9598999023438 354.53759765625 275.8910827636719 352.0654602050781 278.4330444335938 350.2556457519531 C 281.1302795410156 348.3353881835938 284.3075256347656 347.3203735351563 287.6212463378906 347.3203735351563 C 296.3763427734375 347.3203735351563 303.4991149902344 354.4431457519531 303.4991149902344 363.1982116699219 C 303.4991149902344 371.952880859375 296.3763427734375 379.0753479003906 287.6212463378906 379.0753479003906 C 284.3075256347656 379.0753479003906 281.1302795410156 378.0603942871094 278.4330444335938 376.1401672363281 C 275.8910827636719 374.3305053710938 273.9599609375 371.8585510253906 272.8310546875 368.9746704101563 L 266.496337890625 368.9746704101563 C 263.8271179199219 368.9746704101563 261.3170166015625 367.9353942871094 259.4283752441406 366.0483093261719 L 248.8220977783203 355.4412841796875 L 218.1634674072266 355.4412841796875 C 218.1409149169922 355.4412841796875 218.1187438964844 355.44091796875 218.0970153808594 355.4402465820313 C 206.5522155761719 368.9511413574219 196.6467132568359 379.5311584472656 190.3590087890625 386.0380554199219 C 187.6541900634766 388.8364868164063 184.0231018066406 390.3776245117188 180.1345062255859 390.3776245117188 Z M 287.62060546875 358.873291015625 C 285.2358703613281 358.873291015625 283.2957458496094 360.8134155273438 283.2957458496094 363.1982116699219 C 283.2957458496094 365.5825805664063 285.2358703613281 367.5223999023438 287.62060546875 367.5223999023438 C 290.00537109375 367.5223999023438 291.9455261230469 365.5825805664063 291.9455261230469 363.1982116699219 C 291.9455261230469 360.8134155273438 290.00537109375 358.873291015625 287.62060546875 358.873291015625 Z M 72.64919281005859 358.873291015625 C 70.26446533203125 358.873291015625 68.32433319091797 360.8134155273438 68.32433319091797 363.1982116699219 C 68.32433319091797 365.5825805664063 70.26446533203125 367.5223999023438 72.64919281005859 367.5223999023438 C 75.03396606445313 367.5223999023438 76.97410583496094 365.5825805664063 76.97410583496094 363.1982116699219 C 76.97410583496094 360.8134155273438 75.03396606445313 358.873291015625 72.64919281005859 358.873291015625 Z M 301.4975891113281 321.6924743652344 C 299.11328125 321.6924743652344 297.1734619140625 323.6325988769531 297.1734619140625 326.0173950195313 C 297.1734619140625 328.4021606445313 299.11328125 330.34228515625 301.4975891113281 330.34228515625 C 303.8823852539063 330.34228515625 305.822509765625 328.4021606445313 305.822509765625 326.0173950195313 C 305.822509765625 323.6325988769531 303.8823852539063 321.6924743652344 301.4975891113281 321.6924743652344 Z M 58.97328567504883 321.6924438476563 C 56.5885124206543 321.6924438476563 54.64837646484375 323.6325988769531 54.64837646484375 326.0173950195313 C 54.64837646484375 328.402099609375 56.5885124206543 330.3422546386719 58.97328567504883 330.3422546386719 C 61.35765075683594 330.3422546386719 63.29746627807617 328.402099609375 63.29746627807617 326.0173950195313 C 63.29746627807617 323.6325988769531 61.35765075683594 321.6924438476563 58.97328567504883 321.6924438476563 Z M 345.8889770507813 298.4119262695313 C 343.504638671875 298.4119262695313 341.5648193359375 300.3520812988281 341.5648193359375 302.7368469238281 C 341.5648193359375 305.1212158203125 343.504638671875 307.06103515625 345.8889770507813 307.06103515625 C 348.2737426757813 307.06103515625 350.2139282226563 305.1212158203125 350.2139282226563 302.7368469238281 C 350.2139282226563 300.3520812988281 348.2737426757813 298.4119262695313 345.8889770507813 298.4119262695313 Z M 15.37783145904541 298.4119262695313 C 12.9930591583252 298.4119262695313 11.05292224884033 300.3520812988281 11.05292224884033 302.7368469238281 C 11.05292224884033 305.1212158203125 12.9930591583252 307.06103515625 15.37783145904541 307.06103515625 C 17.7621955871582 307.06103515625 19.70201301574707 305.1212158203125 19.70201301574707 302.7368469238281 C 19.70201301574707 300.3520812988281 17.7621955871582 298.4119262695313 15.37783145904541 298.4119262695313 Z M 345.8889770507813 258.2640075683594 C 343.5046081542969 258.2640075683594 341.5647888183594 260.2038269042969 341.5647888183594 262.5882568359375 C 341.5647888183594 264.9729614257813 343.5046081542969 266.9131164550781 345.8889770507813 266.9131164550781 C 348.2737426757813 266.9131164550781 350.2138671875 264.9729614257813 350.2138671875 262.5882568359375 C 350.2138671875 260.2038269042969 348.2737426757813 258.2640075683594 345.8889770507813 258.2640075683594 Z M 15.37783145904541 258.2640075683594 C 12.9930591583252 258.2640075683594 11.05292224884033 260.2038269042969 11.05292224884033 262.5881958007813 C 11.05292224884033 264.9729614257813 12.9930591583252 266.9131164550781 15.37783145904541 266.9131164550781 C 17.7621955871582 266.9131164550781 19.70201301574707 264.9729614257813 19.70201301574707 262.5881958007813 C 19.70201301574707 260.2038269042969 17.7621955871582 258.2640075683594 15.37783145904541 258.2640075683594 Z" stroke="none"/>
      <path d="M 180.1345062255859 389.8776245117188 C 183.8861541748047 389.8776245117188 187.3894653320313 388.3909301757813 189.9994659423828 385.6906127929688 C 196.5770568847656 378.8836975097656 206.4392395019531 368.3229675292969 217.8777008056641 354.9272155761719 C 217.9729614257813 354.9320983886719 218.0668334960938 354.9412841796875 218.1634674072266 354.9412841796875 L 249.0291900634766 354.9412841796875 L 259.7817993164063 365.6946105957031 C 261.5762023925781 367.4875793457031 263.9610900878906 368.4746704101563 266.496337890625 368.4746704101563 L 273.1762390136719 368.4746704101563 C 275.3339538574219 374.3622131347656 280.9949645996094 378.5753479003906 287.6212463378906 378.5753479003906 C 296.1004333496094 378.5753479003906 302.9991149902344 371.6766967773438 302.9991149902344 363.1982116699219 C 302.9991149902344 354.7190246582031 296.1004333496094 347.8203735351563 287.6212463378906 347.8203735351563 C 280.9950256347656 347.8203735351563 275.3339538574219 352.0335083007813 273.1762390136719 357.9217529296875 L 266.93310546875 357.9217529296875 L 256.1797790527344 347.1676940917969 C 254.3861541748047 345.37548828125 252.0011901855469 344.3883972167969 249.4652862548828 344.3883972167969 L 226.7033843994141 344.3883972167969 C 230.1241455078125 340.224609375 233.6351928710938 335.8526916503906 237.2012786865234 331.2938537597656 L 287.0526123046875 331.2938537597656 C 289.2102966308594 337.1820678710938 294.87060546875 341.395263671875 301.4969177246094 341.395263671875 C 309.9760437011719 341.395263671875 316.874755859375 334.49658203125 316.874755859375 326.0173950195313 C 316.874755859375 317.5381469726563 309.9760437011719 310.6395263671875 301.4969177246094 310.6395263671875 C 294.8706359863281 310.6395263671875 289.2102966308594 314.8526611328125 287.0526123046875 320.7409362792969 L 245.2902374267578 320.7409362792969 C 248.7152404785156 316.1777954101563 252.162109375 311.458740234375 255.5997467041016 306.6063537597656 L 331.0057373046875 306.6063537597656 C 332.7259826660156 313.2178039550781 338.7461547851563 318.1139831542969 345.8889770507813 318.1139831542969 C 354.3681640625 318.1139831542969 361.2667846679688 311.2153015136719 361.2667846679688 302.7368469238281 C 361.2667846679688 294.2575988769531 354.3681640625 287.3597106933594 345.8889770507813 287.3597106933594 C 339.8038635253906 287.3597106933594 334.5337524414063 290.9131164550781 332.0422973632813 296.0540771484375 L 262.9048461914063 296.0540771484375 C 265.9671630859375 291.5255737304688 269.0019226074219 286.8975219726563 271.9866638183594 282.1813049316406 L 307.978515625 282.1813049316406 C 310.5151977539063 282.1813049316406 312.8993835449219 281.1934814453125 314.6944274902344 279.3998413085938 L 325.4456481933594 268.6479187011719 L 331.7579345703125 268.6479187011719 C 334.1139221191406 274.1227111816406 339.5605163574219 277.9667358398438 345.8889770507813 277.9667358398438 C 354.3681945800781 277.9667358398438 361.266845703125 271.068115234375 361.266845703125 262.5889282226563 C 361.266845703125 254.1104278564453 354.3681640625 247.2118377685547 345.8889770507813 247.2118377685547 C 338.973388671875 247.2118377685547 333.1105651855469 251.8017425537109 331.1835632324219 258.094970703125 L 325.0088806152344 258.094970703125 C 322.4715270996094 258.094970703125 320.0873413085938 259.0827941894531 318.29296875 260.8757629394531 L 307.5410461425781 271.6283874511719 L 278.486572265625 271.6283874511719 C 283.3178405761719 263.5633544921875 287.9634704589844 255.282470703125 292.3114318847656 246.8399810791016 C 293.6456604003906 244.2490234375 292.6268005371094 241.0674743652344 290.0357971191406 239.7332000732422 C 289.2631225585938 239.3355102539063 288.4376525878906 239.1468963623047 287.6246643066406 239.1468963623047 C 285.7114868164063 239.1468963623047 283.8659057617188 240.1904602050781 282.9290161132813 242.0087432861328 C 249.8590087890625 306.225341796875 197.6298370361328 362.606201171875 182.4100646972656 378.3573303222656 C 181.8074645996094 378.9810791015625 180.9988708496094 379.3247375488281 180.1337890625 379.3247375488281 C 179.2687377929688 379.3247375488281 178.4601440429688 378.9810791015625 177.8575592041016 378.3573303222656 C 165.1150970458984 365.1704406738281 132.3111114501953 329.7189636230469 102.9814682006836 285.4320068359375 C 66.68614959716797 230.6267547607422 48.28269577026367 181.9587554931641 48.28269577026367 140.7799835205078 C 48.28269577026367 134.4083862304688 48.48660278320313 128.1730194091797 48.8895149230957 122.2431564331055 C 48.93887710571289 121.5135650634766 49.46033096313477 120.8954772949219 50.18710327148438 120.7042465209961 C 60.01610565185547 118.1238861083984 69.61933135986328 115.1892929077148 78.72928619384766 111.9844284057617 C 81.47833251953125 111.0170669555664 82.92196655273438 108.0048828125 81.95528411865234 105.2558364868164 C 81.19120025634766 103.0860366821289 79.15283203125 101.7297744750977 76.97682189941406 101.7297744750977 C 76.39596557617188 101.7297744750977 75.80560302734375 101.8263168334961 75.22669219970703 102.0298385620117 C 66.38623809814453 105.1408386230469 57.05965042114258 107.9900207519531 47.50724029541016 110.4977493286133 C 42.39165115356445 111.8405227661133 38.71619415283203 116.2744750976563 38.36124038696289 121.5290679931641 C 37.9421501159668 127.6946105957031 37.72974014282227 134.1712951660156 37.72974014282227 140.7792510986328 C 37.72974014282227 178.9959259033203 52.54378509521484 222.9363861083984 81.78878784179688 271.6276550292969 L 52.72796630859375 271.6276550292969 L 41.97601318359375 260.8757629394531 C 40.18242263793945 259.0828247070313 37.79751205444336 258.094970703125 35.26015090942383 258.094970703125 L 30.08246803283691 258.094970703125 C 28.15546798706055 251.8017425537109 22.29265022277832 247.2118377685547 15.37705898284912 247.2118377685547 C 6.898604393005371 247.2111053466797 -7.747025665594265e-05 254.1097564697266 -7.747025665594265e-05 262.5881958007813 C -7.747025665594265e-05 271.0674438476563 6.898604393005371 277.9660339355469 15.37778663635254 277.9660339355469 C 21.70560455322266 277.9660339355469 27.15210342407227 274.1219177246094 29.50883102416992 268.647216796875 L 34.82410430908203 268.647216796875 L 45.57528686523438 279.3991088867188 C 47.36964797973633 281.1927490234375 49.75455856323242 282.1805725097656 52.29119491577148 282.1805725097656 L 88.30850982666016 282.1805725097656 C 90.21788024902344 285.1899719238281 92.1695556640625 288.2141723632813 94.18547058105469 291.2581176757813 C 95.25233459472656 292.8696899414063 96.3255615234375 294.4657592773438 97.400146484375 296.0533752441406 L 29.22446823120117 296.0533752441406 C 26.73301315307617 290.912353515625 21.46287727355957 287.3589782714844 15.37778663635254 287.3589782714844 C 6.898559093475342 287.3597106933594 -7.747025665594265e-05 294.2575988769531 -7.747025665594265e-05 302.7368469238281 C -7.747025665594265e-05 311.2153015136719 6.898559093475342 318.1139831542969 15.37778663635254 318.1139831542969 C 22.52055931091309 318.1139831542969 28.54074096679688 313.2178039550781 30.26096725463867 306.6063537597656 L 104.7172393798828 306.6063537597656 C 108.1612396240234 311.4622497558594 111.6123352050781 316.1785278320313 115.039421081543 320.7409362792969 L 73.41755676269531 320.7409362792969 C 71.25983428955078 314.8526611328125 65.59951019287109 310.6395263671875 58.97323989868164 310.6395263671875 C 50.49406051635742 310.6395263671875 43.59537887573242 317.5381469726563 43.59537887573242 326.0173950195313 C 43.59537887573242 334.49658203125 50.49406051635742 341.395263671875 58.97323989868164 341.395263671875 C 65.59951019287109 341.395263671875 71.25983428955078 337.1820678710938 73.41755676269531 331.2938537597656 L 123.129150390625 331.2938537597656 C 126.7008743286133 335.8598022460938 130.2133331298828 340.2351989746094 133.6227874755859 344.3883972167969 L 110.8037414550781 344.3883972167969 C 108.2677841186523 344.3883972167969 105.8835601806641 345.37548828125 104.0871047973633 347.1697998046875 L 93.33592224121094 357.9217529296875 L 87.09278869628906 357.9217529296875 C 84.93505859375 352.0335083007813 79.27474212646484 347.8203735351563 72.64774322509766 347.8203735351563 C 64.16855621337891 347.8203735351563 57.26992416381836 354.7190246582031 57.26992416381836 363.1982116699219 C 57.26992416381836 371.6766967773438 64.16855621337891 378.5753479003906 72.64774322509766 378.5753479003906 C 79.27400970458984 378.5753479003906 84.93505859375 374.3622131347656 87.09278869628906 368.4746704101563 L 93.77269744873047 368.4746704101563 C 96.30787658691406 368.4746704101563 98.69210815429688 367.4875793457031 100.4892883300781 365.6925354003906 L 111.2397842407227 354.9412841796875 L 142.4540557861328 354.9412841796875 C 154.4132843017578 368.9643249511719 164.4236450195313 379.6401062011719 170.2695159912109 385.6906127929688 C 172.8795166015625 388.3909301757813 176.3828277587891 389.8776245117188 180.1345062255859 389.8776245117188 M 287.62060546875 358.373291015625 C 290.2814331054688 358.373291015625 292.4455261230469 360.5381164550781 292.4455261230469 363.1982116699219 C 292.4455261230469 365.8583374023438 290.2814636230469 368.0223999023438 287.62060546875 368.0223999023438 C 284.9597778320313 368.0223999023438 282.7957458496094 365.8583374023438 282.7957458496094 363.1982116699219 C 282.7957458496094 360.5381164550781 284.9597778320313 358.373291015625 287.62060546875 358.373291015625 M 72.64919281005859 358.373291015625 C 75.31001281738281 358.373291015625 77.47410583496094 360.5381164550781 77.47410583496094 363.1982116699219 C 77.47410583496094 365.8583068847656 75.31001281738281 368.0223999023438 72.64919281005859 368.0223999023438 C 69.98842620849609 368.0223999023438 67.82433319091797 365.8583068847656 67.82433319091797 363.1982116699219 C 67.82433319091797 360.5381164550781 69.98842620849609 358.373291015625 72.64919281005859 358.373291015625 M 301.4975891113281 321.1924743652344 C 304.1584777832031 321.1924743652344 306.322509765625 323.3565673828125 306.322509765625 326.0173950195313 C 306.322509765625 328.6781921386719 304.1584777832031 330.84228515625 301.4975891113281 330.84228515625 C 298.8375244140625 330.84228515625 296.6734619140625 328.6781921386719 296.6734619140625 326.0173950195313 C 296.6734619140625 323.3565673828125 298.8375244140625 321.1924743652344 301.4975891113281 321.1924743652344 M 58.97328567504883 321.1924438476563 C 61.63337707519531 321.1924438476563 63.79746627807617 323.3565368652344 63.79746627807617 326.0173950195313 C 63.79746627807617 328.6781616210938 61.63337707519531 330.8422546386719 58.97328567504883 330.8422546386719 C 56.31246948242188 330.8422546386719 54.14837646484375 328.6781616210938 54.14837646484375 326.0173950195313 C 54.14837646484375 323.3565368652344 56.31246948242188 321.1924438476563 58.97328567504883 321.1924438476563 M 345.8889770507813 297.9119262695313 C 348.5491638183594 297.9119262695313 350.7139282226563 300.0759887695313 350.7139282226563 302.7368469238281 C 350.7139282226563 305.3969421386719 348.5491638183594 307.56103515625 345.8889770507813 307.56103515625 C 343.2288818359375 307.56103515625 341.0648193359375 305.3969421386719 341.0648193359375 302.7368469238281 C 341.0648193359375 300.0759887695313 343.2288818359375 297.9119262695313 345.8889770507813 297.9119262695313 M 15.37783145904541 297.9119262695313 C 18.03792190551758 297.9119262695313 20.20201301574707 300.0759887695313 20.20201301574707 302.7368469238281 C 20.20201301574707 305.3969421386719 18.03792190551758 307.56103515625 15.37783145904541 307.56103515625 C 12.71701335906982 307.56103515625 10.55292224884033 305.3969421386719 10.55292224884033 302.7368469238281 C 10.55292224884033 300.0759887695313 12.71701335906982 297.9119262695313 15.37783145904541 297.9119262695313 M 345.8889770507813 257.7640075683594 C 348.549072265625 257.7640075683594 350.7138671875 259.9281005859375 350.7138671875 262.5882568359375 C 350.7138671875 265.2483520507813 348.5491027832031 267.4131164550781 345.8889770507813 267.4131164550781 C 343.2288818359375 267.4131164550781 341.0647888183594 265.2483520507813 341.0647888183594 262.5882568359375 C 341.0647888183594 259.9281005859375 343.2288818359375 257.7640075683594 345.8889770507813 257.7640075683594 M 15.37783145904541 257.7640075683594 C 18.03792190551758 257.7640075683594 20.20201301574707 259.9280700683594 20.20201301574707 262.5881958007813 C 20.20201301574707 265.2483520507813 18.03792190551758 267.4131164550781 15.37783145904541 267.4131164550781 C 12.71701335906982 267.4131164550781 10.55292224884033 265.2483520507813 10.55292224884033 262.5881958007813 C 10.55292224884033 259.9280700683594 12.71701335906982 257.7640075683594 15.37783145904541 257.7640075683594 M 180.1345062255859 390.8776245117188 C 176.1091461181641 390.8776245117188 172.3503265380859 389.2822875976563 169.5504608154297 386.3856201171875 C 163.4041442871094 380.0240783691406 153.6537170410156 369.5975341796875 141.9927978515625 355.9412841796875 L 111.6540298461914 355.9412841796875 L 101.196418762207 366.3996276855469 C 99.21092224121094 368.3827514648438 96.57460784912109 369.4746704101563 93.77269744873047 369.4746704101563 L 87.77536010742188 369.4746704101563 C 86.59578704833984 372.3131713867188 84.65364074707031 374.7479553222656 82.12592315673828 376.5474853515625 C 79.34351348876953 378.5283508300781 76.06601715087891 379.5753479003906 72.64774322509766 379.5753479003906 C 63.61696624755859 379.5753479003906 56.26992416381836 372.2285766601563 56.26992416381836 363.1982116699219 C 56.26992416381836 354.1674194335938 63.61696624755859 346.8203735351563 72.64774322509766 346.8203735351563 C 76.06632995605469 346.8203735351563 79.34392547607422 347.867431640625 82.12624359130859 349.8483276367188 C 84.65378570556641 351.6478881835938 86.59587860107422 354.0829467773438 87.77543640136719 356.9217529296875 L 92.92167663574219 356.9217529296875 L 103.3799667358398 346.4627075195313 C 105.3650131225586 344.4800109863281 108.001335144043 343.3883972167969 110.8037414550781 343.3883972167969 L 131.5121917724609 343.3883972167969 C 128.5294647216797 339.732666015625 125.5530471801758 336.0098876953125 122.6420059204102 332.2938537597656 L 74.10021209716797 332.2938537597656 C 72.920654296875 335.1326293945313 70.97860717773438 337.5676574707031 68.45110321044922 339.3672485351563 C 65.66892242431641 341.3482055664063 62.39151382446289 342.395263671875 58.97323989868164 342.395263671875 C 49.94246673583984 342.395263671875 42.59537887573242 335.0481567382813 42.59537887573242 326.0173950195313 C 42.59537887573242 316.9866027832031 49.94246673583984 309.6395263671875 58.97323989868164 309.6395263671875 C 62.39151382446289 309.6395263671875 65.66892242431641 310.6865539550781 68.45110321044922 312.6675109863281 C 70.97860717773438 314.4670715332031 72.920654296875 316.9021301269531 74.10021209716797 319.7409362792969 L 113.041389465332 319.7409362792969 C 110.0199508666992 315.6929321289063 107.0527725219727 311.6202697753906 104.2007751464844 307.6063537597656 L 31.01443672180176 307.6063537597656 C 30.03039360046387 310.7508850097656 28.08232116699219 313.5762939453125 25.47019577026367 315.6261596679688 C 24.05910491943359 316.7334899902344 22.4902400970459 317.5956726074219 20.80710411071777 318.1887817382813 C 19.06496810913086 318.8027038574219 17.2382869720459 319.1139831542969 15.37778663635254 319.1139831542969 C 6.347013473510742 319.1139831542969 -1.000077486038208 311.7672119140625 -1.000077486038208 302.7368469238281 C -1.000077486038208 293.7068481445313 6.346968173980713 286.3597412109375 15.37769508361816 286.3589782714844 C 18.5098762512207 286.3589782714844 21.5565128326416 287.2502136230469 24.18819618225098 288.936279296875 C 26.57028198242188 290.4624328613281 28.51295852661133 292.5684509277344 29.83756828308105 295.0533752441406 L 95.51837921142578 295.0533752441406 C 94.72178649902344 293.8702697753906 94.01707458496094 292.8153381347656 93.35160064697266 291.8101196289063 C 91.55328369140625 289.0946655273438 89.72074890136719 286.2671508789063 87.75893402099609 283.1805725097656 L 52.29119491577148 283.1805725097656 C 49.48769378662109 283.1805725097656 46.85155868530273 282.0888061523438 44.86833190917969 280.1063842773438 L 34.40985870361328 269.647216796875 L 30.15251541137695 269.647216796875 C 28.88606834411621 272.2906188964844 26.93919372558594 274.5430603027344 24.49042320251465 276.1895141601563 C 21.78883171081543 278.0059204101563 18.63774108886719 278.9660339355469 15.37778663635254 278.9660339355469 C 6.347013473510742 278.9660339355469 -1.000077486038208 271.6189880371094 -1.000077486038208 262.5881958007813 C -1.000077486038208 253.5582427978516 6.34605884552002 246.2118377685547 15.37574100494385 246.2118377685547 C 18.94983100891113 246.2118377685547 22.34710502624512 247.3468780517578 25.20165061950684 249.4943389892578 C 26.57365036010742 250.5264282226563 27.771240234375 251.7606506347656 28.76119613647461 253.1627502441406 C 29.6210880279541 254.3805847167969 30.30654144287109 255.7003479003906 30.80430221557617 257.094970703125 L 35.26015090942383 257.094970703125 C 38.06410598754883 257.094970703125 40.70024108886719 258.1865234375 42.68296813964844 260.1685180664063 L 53.14214706420898 270.6276550292969 L 80.02542877197266 270.6276550292969 C 73.10216522216797 259.0036926269531 66.92861938476563 247.51123046875 61.6638298034668 236.4447937011719 C 56.17015075683594 224.8972473144531 51.52069473266602 213.5084381103516 47.84469604492188 202.5946960449219 C 44.16442108154297 191.6682891845703 41.36264801025391 180.9296112060547 39.51719665527344 170.6769256591797 C 37.66756057739258 160.4010620117188 36.72974014282227 150.3420257568359 36.72974014282227 140.7792510986328 C 36.72974014282227 134.1479339599609 36.94296646118164 127.6484298706055 37.36355972290039 121.4612503051758 C 37.74751281738281 115.7772064208984 41.721923828125 110.9824295043945 47.25337600708008 109.5305252075195 C 56.77933120727539 107.0297470092773 66.07923889160156 104.1887512207031 74.89473724365234 101.0865249633789 C 75.56832885742188 100.8497467041016 76.26873779296875 100.7297515869141 76.97682952880859 100.7297515869141 C 79.63542175292969 100.7297515869141 82.01515197753906 102.4151611328125 82.89851379394531 104.9237060546875 C 84.04664611816406 108.1887512207031 82.3251953125 111.7791595458984 79.06124114990234 112.9277496337891 C 69.91719818115234 116.1445693969727 60.28801345825195 119.0863876342773 50.44101333618164 121.6714782714844 C 50.13033294677734 121.7532043457031 49.90755844116211 122.0101547241211 49.88724136352539 122.310661315918 C 49.48610305786133 128.2146148681641 49.28269577026367 134.4284820556641 49.28269577026367 140.7799835205078 C 49.28269577026367 181.7587890625 67.63010406494141 230.2409820556641 103.8151931762695 284.8798828125 C 133.0969696044922 329.0945129394531 165.852783203125 364.4947509765625 178.5766906738281 377.6624755859375 C 178.9893341064453 378.0895690917969 179.5422821044922 378.3247375488281 180.1337890625 378.3247375488281 C 180.7253265380859 378.3247375488281 181.2782897949219 378.0895690917969 181.6908721923828 377.6625366210938 C 196.8874664306641 361.9353942871094 249.0353240966797 305.6405639648438 282.0399780273438 241.5509338378906 C 283.1218872070313 239.4511566162109 285.2617492675781 238.1468811035156 287.6246643066406 238.1468811035156 C 288.6152954101563 238.1468811035156 289.6072998046875 238.3879699707031 290.493408203125 238.8440704345703 C 293.5706176757813 240.4287109375 294.7848815917969 244.2209777832031 293.2004699707031 247.2977905273438 C 289.2764587402344 254.9171447753906 284.9230041503906 262.7581481933594 280.24755859375 270.6283874511719 L 307.1268005371094 270.6283874511719 L 317.5858459472656 260.1686706542969 C 319.5696105957031 258.1864624023438 322.2056884765625 257.094970703125 325.0088806152344 257.094970703125 L 330.4617309570313 257.094970703125 C 330.95947265625 255.7003479003906 331.6449279785156 254.3805847167969 332.5048217773438 253.1627502441406 C 333.4947814941406 251.7606506347656 334.6923828125 250.5264282226563 336.0643920898438 249.4943389892578 C 338.9189147949219 247.3468780517578 342.3161926269531 246.2118377685547 345.8889770507813 246.2118377685547 C 354.9197387695313 246.2118377685547 362.266845703125 253.5585632324219 362.266845703125 262.5889282226563 C 362.266845703125 271.6196899414063 354.9197387695313 278.9667358398438 345.8889770507813 278.9667358398438 C 342.6286926269531 278.9667358398438 339.4774169921875 278.0066528320313 336.7758178710938 276.1902465820313 C 334.3269653320313 274.5437927246094 332.3803100585938 272.2914428710938 331.1141662597656 269.6479187011719 L 325.8598937988281 269.6479187011719 L 315.4015502929688 280.10693359375 C 313.4173278808594 282.0895690917969 310.78125 283.1813049316406 307.978515625 283.1813049316406 L 272.536865234375 283.1813049316406 C 270.0471496582031 287.1060485839844 267.4456481933594 291.0901794433594 264.784423828125 295.0540771484375 L 331.42919921875 295.0540771484375 C 332.7538452148438 292.5691223144531 334.6964721679688 290.4631652832031 337.0785522460938 288.93701171875 C 339.7102966308594 287.2509155273438 342.7568664550781 286.3597106933594 345.8889770507813 286.3597106933594 C 354.9197387695313 286.3597106933594 362.2667846679688 293.7064819335938 362.2667846679688 302.7368469238281 C 362.2667846679688 311.7672119140625 354.9197387695313 319.1139831542969 345.8889770507813 319.1139831542969 C 344.0284118652344 319.1139831542969 342.2017517089844 318.8027038574219 340.4596557617188 318.1887817382813 C 338.7765197753906 317.5956726074219 337.2076110839844 316.7334899902344 335.7965087890625 315.6261596679688 C 333.1843872070313 313.5762939453125 331.236328125 310.7508850097656 330.2522583007813 307.6063537597656 L 256.1165771484375 307.6063537597656 C 253.2436065673828 311.6545104980469 250.2805480957031 315.7267150878906 247.2872314453125 319.7409362792969 L 286.3699645996094 319.7409362792969 C 287.5494995117188 316.902099609375 289.4915466308594 314.4670715332031 292.0190734863281 312.6675109863281 C 294.8012390136719 310.6865539550781 298.0786437988281 309.6395263671875 301.4969177246094 309.6395263671875 C 310.5277099609375 309.6395263671875 317.874755859375 316.9866027832031 317.874755859375 326.0173950195313 C 317.874755859375 335.0481567382813 310.5277099609375 342.395263671875 301.4969177246094 342.395263671875 C 298.07861328125 342.395263671875 294.8012390136719 341.3482055664063 292.0190124511719 339.3672485351563 C 289.4915161132813 337.5676574707031 287.5495300292969 335.1326599121094 286.3699645996094 332.2938537597656 L 237.6884307861328 332.2938537597656 C 234.7805023193359 336.0058898925781 231.8027954101563 339.7288513183594 228.8149566650391 343.3883972167969 L 249.4652862548828 343.3883972167969 C 252.2684631347656 343.3883972167969 254.9040985107422 344.4793395996094 256.8865966796875 346.4603271484375 L 267.3473510742188 356.9217529296875 L 272.4935913085938 356.9217529296875 C 273.6731567382813 354.0829772949219 275.6153564453125 351.6479797363281 278.14306640625 349.8483276367188 C 280.9254760742188 347.867431640625 284.2029724121094 346.8203735351563 287.6212463378906 346.8203735351563 C 296.6520080566406 346.8203735351563 303.9991149902344 354.1674194335938 303.9991149902344 363.1982116699219 C 303.9991149902344 372.2285766601563 296.6520080566406 379.5753479003906 287.6212463378906 379.5753479003906 C 284.2029724121094 379.5753479003906 280.9254760742188 378.5283508300781 278.14306640625 376.5474853515625 C 275.6153869628906 374.7479553222656 273.6732482910156 372.3131713867188 272.49365234375 369.4746704101563 L 266.496337890625 369.4746704101563 C 263.6936645507813 369.4746704101563 261.0580139160156 368.3834228515625 259.0749816894531 366.4020080566406 L 248.6149444580078 355.9412841796875 L 218.3265533447266 355.9412841796875 C 206.8380432128906 369.3774719238281 196.9837493896484 379.9019470214844 190.7185974121094 386.3855285644531 C 187.9186553955078 389.2822875976563 184.1598815917969 390.8776245117188 180.1345062255859 390.8776245117188 Z M 287.62060546875 359.373291015625 C 285.5115661621094 359.373291015625 283.7957458496094 361.0891723632813 283.7957458496094 363.1982116699219 C 283.7957458496094 365.306884765625 285.5115661621094 367.0223999023438 287.62060546875 367.0223999023438 C 289.7296447753906 367.0223999023438 291.4455261230469 365.306884765625 291.4455261230469 363.1982116699219 C 291.4455261230469 361.0891723632813 289.7296447753906 359.373291015625 287.62060546875 359.373291015625 Z M 72.64919281005859 359.373291015625 C 70.54015350341797 359.373291015625 68.82433319091797 361.0891723632813 68.82433319091797 363.1982116699219 C 68.82433319091797 365.306884765625 70.54015350341797 367.0223999023438 72.64919281005859 367.0223999023438 C 74.75823974609375 367.0223999023438 76.47410583496094 365.306884765625 76.47410583496094 363.1982116699219 C 76.47410583496094 361.0891723632813 74.75823974609375 359.373291015625 72.64919281005859 359.373291015625 Z M 301.4975891113281 322.1924743652344 C 299.3889770507813 322.1924743652344 297.6734619140625 323.9083251953125 297.6734619140625 326.0173950195313 C 297.6734619140625 328.1264343261719 299.3889770507813 329.84228515625 301.4975891113281 329.84228515625 C 303.6066589355469 329.84228515625 305.322509765625 328.1264343261719 305.322509765625 326.0173950195313 C 305.322509765625 323.9083251953125 303.6066589355469 322.1924743652344 301.4975891113281 322.1924743652344 Z M 58.97328567504883 322.1924438476563 C 56.86424255371094 322.1924438476563 55.14837646484375 323.9082946777344 55.14837646484375 326.0173950195313 C 55.14837646484375 328.1264343261719 56.86424255371094 329.8422546386719 58.97328567504883 329.8422546386719 C 61.08196640014648 329.8422546386719 62.79746627807617 328.1264343261719 62.79746627807617 326.0173950195313 C 62.79746627807617 323.9082946777344 61.08196640014648 322.1924438476563 58.97328567504883 322.1924438476563 Z M 345.8889770507813 298.9119262695313 C 343.7803344726563 298.9119262695313 342.0648193359375 300.6278076171875 342.0648193359375 302.7368469238281 C 342.0648193359375 304.8455200195313 343.7803344726563 306.56103515625 345.8889770507813 306.56103515625 C 347.998046875 306.56103515625 349.7139282226563 304.8455200195313 349.7139282226563 302.7368469238281 C 349.7139282226563 300.6278076171875 347.998046875 298.9119262695313 345.8889770507813 298.9119262695313 Z M 15.37783145904541 298.9119262695313 C 13.26878643035889 298.9119262695313 11.55292224884033 300.6278076171875 11.55292224884033 302.7368469238281 C 11.55292224884033 304.8455200195313 13.26878643035889 306.56103515625 15.37783145904541 306.56103515625 C 17.48651313781738 306.56103515625 19.20201301574707 304.8455200195313 19.20201301574707 302.7368469238281 C 19.20201301574707 300.6278076171875 17.48651313781738 298.9119262695313 15.37783145904541 298.9119262695313 Z M 345.8889770507813 258.7640075683594 C 343.7802734375 258.7640075683594 342.0647888183594 260.4795532226563 342.0647888183594 262.5882568359375 C 342.0647888183594 264.6972961425781 343.7802734375 266.4131164550781 345.8889770507813 266.4131164550781 C 347.9980163574219 266.4131164550781 349.7138671875 264.6972961425781 349.7138671875 262.5882568359375 C 349.7138671875 260.4795532226563 347.9980163574219 258.7640075683594 345.8889770507813 258.7640075683594 Z M 15.37783145904541 258.7640075683594 C 13.26878643035889 258.7640075683594 11.55292224884033 260.4795227050781 11.55292224884033 262.5881958007813 C 11.55292224884033 264.6972351074219 13.26878643035889 266.4131164550781 15.37783145904541 266.4131164550781 C 17.48651313781738 266.4131164550781 19.20201301574707 264.6972351074219 19.20201301574707 262.5881958007813 C 19.20201301574707 260.4795227050781 17.48651313781738 258.7640075683594 15.37783145904541 258.7640075683594 Z" stroke="none" fill="#fff"/>
    </g>
    <g id="Ellipse_8" data-name="Ellipse 8" transform="translate(166.581 313.816) rotate(-67.486)" fill="#fff" stroke="#fff" stroke-width="1">
      <ellipse cx="10.101" cy="10.101" rx="10.101" ry="10.101" stroke="none"/>
      <ellipse cx="10.101" cy="10.101" rx="10.601" ry="10.601" fill="none"/>
    </g>
    <g id="Ellipse_9" data-name="Ellipse 9" transform="matrix(0.987, -0.16, 0.16, 0.987, 168.078, 43.306)" fill="#fff" stroke="#fff" stroke-width="1">
      <ellipse cx="10.101" cy="10.101" rx="10.101" ry="10.101" stroke="none"/>
      <ellipse cx="10.101" cy="10.101" rx="10.601" ry="10.601" fill="none"/>
    </g>
    <g id="Path_90" data-name="Path 90" transform="translate(-27.008 -44.257)" fill="#fff">
      <path d="M 101.8396530151367 166.4790191650391 C 95.99443054199219 166.4790191650391 91.23899078369141 161.7235717773438 91.23899078369141 155.8783569335938 C 91.23899078369141 153.0464935302734 92.34165191650391 150.3842315673828 94.34384155273438 148.3819427490234 C 96.34600067138672 146.3796844482422 99.00806427001953 145.2769927978516 101.8396530151367 145.2769927978516 C 107.6845245361328 145.2769927978516 112.4402770996094 150.03271484375 112.4410171508789 155.8782958984375 C 112.4410171508789 161.7235717773438 107.6852645874023 166.4790191650391 101.8396530151367 166.4790191650391 Z" stroke="none"/>
      <path d="M 101.8396530151367 145.7769927978516 C 96.26119232177734 145.7769927978516 91.73899078369141 150.2991790771484 91.73899078369141 155.8783569335938 C 91.73899078369141 161.4568328857422 96.26118469238281 165.9790191650391 101.8396530151367 165.9790191650391 C 107.4181213378906 165.9790191650391 111.9410171508789 161.4568328857422 111.9410171508789 155.8783569335938 C 111.9403076171875 150.2998809814453 107.4181213378906 145.7769927978516 101.8396530151367 145.7769927978516 M 101.8396530151367 144.7769927978516 C 104.8046951293945 144.7769927978516 107.5923538208008 145.9317932128906 109.6891174316406 148.0286560058594 C 111.7857513427734 150.1253967285156 112.9406356811523 152.9131011962891 112.9410171508789 155.8782196044922 C 112.9410171508789 158.8434448242188 111.7862167358398 161.6310729980469 109.6893310546875 163.7277526855469 C 107.5925216674805 165.8243713378906 104.8047866821289 166.9790191650391 101.8396530151367 166.9790191650391 C 98.87454223632813 166.9790191650391 96.08692169189453 165.8243560791016 93.99029541015625 163.7277221679688 C 91.89366149902344 161.631103515625 90.73899078369141 158.8434600830078 90.73899078369141 155.8783569335938 C 90.73899078369141 152.9129486083984 91.89365386962891 150.1251220703125 93.99027252197266 148.0283966064453 C 96.08687591552734 145.9317016601563 98.87450408935547 144.7769927978516 101.8396530151367 144.7769927978516 Z" stroke="none" fill="#fff"/>
    </g>
    <g id="Path_91" data-name="Path 91" transform="translate(-114.88 -44.257)" fill="#fff">
      <path d="M 400.3193359375 166.4790191650391 C 397.4874877929688 166.4790191650391 394.8251953125 165.3763732910156 392.8229370117188 163.3741760253906 C 390.8206787109375 161.3720092773438 389.7179870605469 158.7099609375 389.7179870605469 155.8783569335938 C 389.7179870605469 150.0327453613281 394.4737548828125 145.2769927978516 400.3193359375 145.2769927978516 C 406.16455078125 145.2769927978516 410.9199829101563 150.0327453613281 410.9199829101563 155.8783569335938 C 410.9199829101563 161.7235717773438 406.16455078125 166.4790191650391 400.3193359375 166.4790191650391 Z" stroke="none"/>
      <path d="M 400.3193359375 145.7769927978516 C 394.7408752441406 145.7769927978516 390.2179870605469 150.2991790771484 390.2179870605469 155.8783569335938 C 390.2179870605469 161.4568328857422 394.7401733398438 165.9790191650391 400.3193359375 165.9790191650391 C 405.8977966308594 165.9790191650391 410.4199829101563 161.4568328857422 410.4199829101563 155.8783569335938 C 410.4199829101563 150.2998809814453 405.8977966308594 145.7769927978516 400.3193359375 145.7769927978516 M 400.3193359375 144.7769927978516 C 403.284423828125 144.7769927978516 406.0720520019531 145.9317932128906 408.1687316894531 148.0286712646484 C 410.2653198242188 150.12548828125 411.4199829101563 152.9132232666016 411.4199829101563 155.8783569335938 C 411.4199829101563 158.8434600830078 410.2653198242188 161.631103515625 408.168701171875 163.7277221679688 C 406.0720520019531 165.8243408203125 403.2844543457031 166.9790191650391 400.3193359375 166.9790191650391 C 397.3539428710938 166.9790191650391 394.5661010742188 165.8243560791016 392.4693908691406 163.7277374267578 C 390.3726806640625 161.6311492919922 389.2179870605469 158.8435211181641 389.2179870605469 155.8783569335938 C 389.2179870605469 152.9129791259766 390.372802734375 150.1251220703125 392.4696350097656 148.0283508300781 C 394.5664367675781 145.9316864013672 397.3541564941406 144.7769927978516 400.3193359375 144.7769927978516 Z" stroke="none" fill="#fff"/>
    </g>
  </g>
</svg>
