<svg xmlns="http://www.w3.org/2000/svg" width="360.586" height="360.588" viewBox="0 0 360.586 360.588">
  <g id="icon-bank" transform="translate(1 1)">
    <g id="Group_4" data-name="Group 4">
      <g id="Group_3" data-name="Group 3">
        <g id="Path_84" data-name="Path 84" transform="translate(-0.001 0.001)" fill="#fff">
          <path d="M 352.6109313964844 359.0878295898438 L 5.977416515350342 359.0878295898438 C 2.406325817108154 359.0878295898438 -0.4989923536777496 356.1825256347656 -0.4989923536777496 352.6113891601563 L -0.4989923536777496 304.7998962402344 C -0.4989923536777496 301.228759765625 2.406325817108154 298.3234252929688 5.977416515350342 298.3234252929688 L 17.43032646179199 298.3234252929688 L 17.43032646179199 292.8469848632813 C 17.44614410400391 289.0267028808594 18.62314414978027 285.363037109375 20.83409881591797 282.2499694824219 C 22.97650146484375 279.2333679199219 25.92691802978516 276.963134765625 29.3831901550293 275.6672973632813 L 29.3831901550293 154.63916015625 C 25.92687606811523 153.3433532714844 22.97650146484375 151.0731353759766 20.83409881591797 148.0565185546875 C 18.62314414978027 144.9434814453125 17.44614410400391 141.2798004150391 17.43032646179199 137.4616241455078 L 17.43032646179199 131.9764862060547 C 15.11915302276611 131.9154968261719 12.87639904022217 131.4312286376953 10.75659847259521 130.5346221923828 C 8.561962127685547 129.6063842773438 6.59114408493042 128.2776641845703 4.898780345916748 126.5852966308594 C 3.206416606903076 124.892936706543 1.877689480781555 122.922119140625 0.9494621753692627 120.7274780273438 C -0.01167418342083693 118.4551162719727 -0.4989923536777496 116.0415267944336 -0.4989923536777496 113.5537567138672 C -0.4989923536777496 111.0659790039063 -0.01167418342083693 108.6523895263672 0.9494621753692627 106.3800277709961 C 1.877689480781555 104.1853866577148 3.206416606903076 102.2145690917969 4.898780345916748 100.5222091674805 C 6.59114408493042 98.82984161376953 8.561962127685547 97.50111389160156 10.75659847259521 96.57289123535156 C 13.02896213531494 95.61175537109375 15.44255352020264 95.12443542480469 17.93032646179199 95.12443542480469 L 22.07391357421875 95.12443542480469 L 175.9005126953125 0.4600714147090912 C 176.9217376708984 -0.1683376729488373 178.0952301025391 -0.5005195140838623 179.294189453125 -0.5005195140838623 C 180.4931030273438 -0.5005195140838623 181.6666412353516 -0.1683376729488373 182.6878662109375 0.4600714147090912 L 336.5144653320313 95.12443542480469 L 340.6580505371094 95.12443542480469 C 343.1458129882813 95.12443542480469 345.5594177246094 95.61175537109375 347.831787109375 96.57289123535156 C 350.0264282226563 97.50111389160156 351.9972229003906 98.82984161376953 353.6896057128906 100.5222091674805 C 355.3819580078125 102.2145690917969 356.710693359375 104.1853866577148 357.638916015625 106.3800277709961 C 358.6000671386719 108.6523895263672 359.0873718261719 111.0659790039063 359.0873718261719 113.5537567138672 C 359.0873718261719 116.0415267944336 358.6000671386719 118.4551162719727 357.638916015625 120.7274780273438 C 356.710693359375 122.922119140625 355.3819580078125 124.892936706543 353.6896057128906 126.5852966308594 C 351.9972229003906 128.2776641845703 350.0264282226563 129.6063842773438 347.831787109375 130.5346221923828 C 345.7119750976563 131.4312286376953 343.46923828125 131.9154968261719 341.1580505371094 131.9764862060547 L 341.1580505371094 137.4595184326172 C 341.1422424316406 141.2798004150391 339.9652404785156 144.9434814453125 337.7542724609375 148.0565185546875 C 335.6118774414063 151.0731353759766 332.6614990234375 153.3433532714844 329.2052001953125 154.63916015625 L 329.2052001953125 275.6672973632813 C 332.6614685058594 276.963134765625 335.6118774414063 279.2333679199219 337.7542724609375 282.2499694824219 C 339.9652404785156 285.363037109375 341.1422424316406 289.0267028808594 341.1580505371094 292.8448791503906 L 341.1580505371094 298.3234252929688 L 352.6109313964844 298.3234252929688 C 356.1820678710938 298.3234252929688 359.0873718261719 301.228759765625 359.0873718261719 304.7998962402344 L 359.0873718261719 352.6113891601563 C 359.0873718261719 356.1825256347656 356.1820678710938 359.0878295898438 352.6109313964844 359.0878295898438 Z M 281.3936462402344 346.1349487304688 L 346.134521484375 346.1349487304688 L 346.134521484375 311.2763061523438 L 281.3936462402344 311.2763061523438 L 281.3936462402344 346.1349487304688 Z M 90.14759826660156 346.1349487304688 L 268.4407653808594 346.1349487304688 L 268.4407653808594 311.2763061523438 L 90.14759826660156 311.2763061523438 L 90.14759826660156 322.2292175292969 L 233.0821380615234 322.2292175292969 L 233.5821380615234 322.2292175292969 L 233.5821380615234 322.7292175292969 L 233.5821380615234 334.6820678710938 L 233.5821380615234 335.1820678710938 L 233.0821380615234 335.1820678710938 L 90.14759826660156 335.1820678710938 L 90.14759826660156 346.1349487304688 Z M 12.45387172698975 346.1349487304688 L 77.19473266601563 346.1349487304688 L 77.19473266601563 311.2763061523438 L 12.45387172698975 311.2763061523438 L 12.45387172698975 346.1349487304688 Z M 293.3465576171875 298.3234252929688 L 328.2052001953125 298.3234252929688 L 328.2052001953125 292.8469848632813 C 328.2052001953125 289.8273010253906 325.7484741210938 287.3705749511719 322.7287292480469 287.3705749511719 L 298.8229675292969 287.3705749511719 C 295.8032836914063 287.3705749511719 293.3465576171875 289.8273010253906 293.3465576171875 292.8469848632813 L 293.3465576171875 298.3234252929688 Z M 269.4407653808594 298.3234252929688 L 280.3936462402344 298.3234252929688 L 280.3936462402344 292.8469848632813 C 280.4094543457031 289.0267028808594 281.5864562988281 285.363037109375 283.7974243164063 282.2499694824219 C 285.9398498535156 279.2333679199219 288.8902893066406 276.963134765625 292.3465576171875 275.6672973632813 L 292.3465576171875 154.63916015625 C 288.8902282714844 153.3433074951172 285.9398498535156 151.0731353759766 283.7974243164063 148.0565185546875 C 281.5864562988281 144.9434814453125 280.4094543457031 141.2798004150391 280.3936462402344 137.4616241455078 L 280.3936462402344 131.9830780029297 L 269.4407653808594 131.9830780029297 L 269.4407653808594 137.4595184326172 C 269.4249572753906 141.2798004150391 268.2479553222656 144.9434814453125 266.0370178222656 148.0565185546875 C 263.8945617675781 151.0731353759766 260.9441833496094 153.3433532714844 257.4878845214844 154.63916015625 L 257.4878845214844 275.6672973632813 C 260.9441528320313 276.963134765625 263.8945617675781 279.2333679199219 266.0370178222656 282.2499694824219 C 268.2479553222656 285.363037109375 269.4249572753906 289.0267028808594 269.4407653808594 292.8448791503906 L 269.4407653808594 298.3234252929688 Z M 221.6292877197266 298.3234252929688 L 256.4878845214844 298.3234252929688 L 256.4878845214844 292.8469848632813 C 256.4878845214844 289.8273010253906 254.0311431884766 287.3705749511719 251.0114593505859 287.3705749511719 L 227.1057281494141 287.3705749511719 C 224.0860137939453 287.3705749511719 221.6292877197266 289.8273010253906 221.6292877197266 292.8469848632813 L 221.6292877197266 298.3234252929688 Z M 149.9120025634766 298.3234252929688 L 208.6763763427734 298.3234252929688 L 208.6763763427734 292.8469848632813 C 208.6922302246094 289.0267028808594 209.8692321777344 285.363037109375 212.0801391601563 282.2499694824219 C 214.2225952148438 279.2333679199219 217.1730041503906 276.963134765625 220.6292877197266 275.6672973632813 L 220.6292877197266 154.63916015625 C 217.1729736328125 153.3433532714844 214.2225952148438 151.0731353759766 212.0801391601563 148.0565185546875 C 209.8692321777344 144.9434814453125 208.6922302246094 141.2798004150391 208.6763763427734 137.4616241455078 L 208.6763763427734 131.9830780029297 L 149.9120025634766 131.9830780029297 L 149.9120025634766 137.4595184326172 C 149.8961944580078 141.2798004150391 148.7191925048828 144.9434814453125 146.5082397460938 148.0565185546875 C 144.3658294677734 151.0731353759766 141.4154510498047 153.3433532714844 137.9591369628906 154.63916015625 L 137.9591369628906 275.6672973632813 C 141.4154052734375 276.963134765625 144.3657836914063 279.2333679199219 146.5082397460938 282.2499694824219 C 148.7191467285156 285.363037109375 149.8961486816406 289.0267028808594 149.9120025634766 292.8448791503906 L 149.9120025634766 298.3234252929688 Z M 102.1004638671875 298.3234252929688 L 136.9591369628906 298.3234252929688 L 136.9591369628906 292.8469848632813 C 136.9591369628906 289.8273010253906 134.5024108886719 287.3705749511719 131.4826965332031 287.3705749511719 L 107.5769195556641 287.3705749511719 C 104.5571899414063 287.3705749511719 102.1004638671875 289.8273010253906 102.1004638671875 292.8469848632813 L 102.1004638671875 298.3234252929688 Z M 78.19473266601563 298.3234252929688 L 89.14759826660156 298.3234252929688 L 89.14759826660156 292.8469848632813 C 89.16341400146484 289.0267028808594 90.34041595458984 285.363037109375 92.55136871337891 282.2499694824219 C 94.69377136230469 279.2333679199219 97.64418792724609 276.963134765625 101.1004638671875 275.6672973632813 L 101.1004638671875 154.63916015625 C 97.64414978027344 153.3433532714844 94.69377136230469 151.0731353759766 92.55136871337891 148.0565185546875 C 90.34041595458984 144.9434814453125 89.16341400146484 141.2798004150391 89.14759826660156 137.4616241455078 L 89.14759826660156 131.9830780029297 L 78.19473266601563 131.9830780029297 L 78.19473266601563 137.4595184326172 C 78.17887115478516 141.2798004150391 77.00186920166016 144.9434814453125 74.79096221923828 148.0565185546875 C 72.64851379394531 151.0731353759766 69.69813537597656 153.3433532714844 66.24182891845703 154.63916015625 L 66.24182891845703 275.6672973632813 C 69.69809722900391 276.963134765625 72.64851379394531 279.2333679199219 74.79096221923828 282.2499694824219 C 77.00186920166016 285.363037109375 78.17887115478516 289.0267028808594 78.19473266601563 292.8448791503906 L 78.19473266601563 298.3234252929688 Z M 30.3831901550293 298.3234252929688 L 65.24182891845703 298.3234252929688 L 65.24182891845703 292.8469848632813 C 65.24182891845703 289.8273010253906 62.78509902954102 287.3705749511719 59.76541519165039 287.3705749511719 L 35.85964584350586 287.3705749511719 C 32.83991622924805 287.3705749511719 30.3831901550293 289.8273010253906 30.3831901550293 292.8469848632813 L 30.3831901550293 298.3234252929688 Z M 305.2994079589844 274.4176635742188 L 316.2522888183594 274.4176635742188 L 316.2522888183594 155.8888397216797 L 305.2994079589844 155.8888397216797 L 305.2994079589844 274.4176635742188 Z M 233.5821380615234 274.4176635742188 L 244.5350494384766 274.4176635742188 L 244.5350494384766 155.8888397216797 L 233.5821380615234 155.8888397216797 L 233.5821380615234 274.4176635742188 Z M 114.0533676147461 274.4176635742188 L 125.006233215332 274.4176635742188 L 125.006233215332 155.8888397216797 L 114.0533676147461 155.8888397216797 L 114.0533676147461 274.4176635742188 Z M 42.33609771728516 274.4176635742188 L 53.28896331787109 274.4176635742188 L 53.28896331787109 155.8888397216797 L 42.33609771728516 155.8888397216797 L 42.33609771728516 274.4176635742188 Z M 293.3465576171875 131.9830780029297 L 293.3465576171875 137.4595184326172 C 293.3465576171875 140.479248046875 295.8032836914063 142.9359741210938 298.8229675292969 142.9359741210938 L 322.7287292480469 142.9359741210938 C 325.7484741210938 142.9359741210938 328.2052001953125 140.479248046875 328.2052001953125 137.4595184326172 L 328.2052001953125 131.9830780029297 L 293.3465576171875 131.9830780029297 Z M 221.6292877197266 131.9830780029297 L 221.6292877197266 137.4595184326172 C 221.6292877197266 140.479248046875 224.0860137939453 142.9359741210938 227.1057281494141 142.9359741210938 L 251.0114593505859 142.9359741210938 C 254.0311431884766 142.9359741210938 256.4878845214844 140.479248046875 256.4878845214844 137.4595184326172 L 256.4878845214844 131.9830780029297 L 221.6292877197266 131.9830780029297 Z M 102.1004638671875 131.9830780029297 L 102.1004638671875 137.4595184326172 C 102.1004638671875 140.479248046875 104.5571899414063 142.9359741210938 107.5769195556641 142.9359741210938 L 131.4826965332031 142.9359741210938 C 134.5024108886719 142.9359741210938 136.9591369628906 140.479248046875 136.9591369628906 137.4595184326172 L 136.9591369628906 131.9830780029297 L 102.1004638671875 131.9830780029297 Z M 30.3831901550293 131.9830780029297 L 30.3831901550293 137.4595184326172 C 30.3831901550293 140.479248046875 32.83991622924805 142.9359741210938 35.85964584350586 142.9359741210938 L 59.76541519165039 142.9359741210938 C 62.78509902954102 142.9359741210938 65.24182891845703 140.479248046875 65.24182891845703 137.4595184326172 L 65.24182891845703 131.9830780029297 L 30.3831901550293 131.9830780029297 Z M 17.93032646179199 108.0773010253906 C 14.91059875488281 108.0773010253906 12.45387172698975 110.5340270996094 12.45387172698975 113.5537567138672 C 12.45387172698975 116.5734329223633 14.91059875488281 119.030158996582 17.93032646179199 119.030158996582 L 340.6580505371094 119.030158996582 C 343.6777954101563 119.030158996582 346.134521484375 116.5734329223633 346.134521484375 113.5537567138672 C 346.134521484375 110.5340270996094 343.6777954101563 108.0773010253906 340.6580505371094 108.0773010253906 L 95.62405395507813 108.0773010253906 L 95.12405395507813 108.0773010253906 L 95.12405395507813 107.5773010253906 L 95.12405395507813 95.62443542480469 L 95.12405395507813 95.12443542480469 L 95.62405395507813 95.12443542480469 L 311.8003540039063 95.12443542480469 L 179.294189453125 13.5812406539917 L 46.78799057006836 95.12443542480469 L 59.76541519165039 95.12443542480469 L 60.26541519165039 95.12443542480469 L 60.26541519165039 95.62443542480469 L 60.26541519165039 107.5773010253906 L 60.26541519165039 108.0773010253906 L 59.76541519165039 108.0773010253906 L 17.93032646179199 108.0773010253906 Z" stroke="none"/>
          <path d="M 352.6109313964844 358.5878295898438 C 355.9114074707031 358.5878295898438 358.5873718261719 355.9118957519531 358.5873718261719 352.6113891601563 L 358.5873718261719 304.7998962402344 C 358.5873718261719 301.4993896484375 355.9114074707031 298.8234252929688 352.6109313964844 298.8234252929688 L 340.6580505371094 298.8234252929688 L 340.6580505371094 292.8469848632813 C 340.6266784667969 285.2763366699219 335.8432922363281 278.5408935546875 328.7052001953125 276.0173034667969 L 328.7052001953125 154.2891693115234 C 335.8432922363281 151.7656097412109 340.6266784667969 145.0301666259766 340.6580505371094 137.4595184326172 L 340.6580505371094 131.4830780029297 C 350.5602722167969 131.4830780029297 358.5873718261719 123.4559783935547 358.5873718261719 113.5537567138672 C 358.5873718261719 103.6515274047852 350.5602722167969 95.62443542480469 340.6580505371094 95.62443542480469 L 336.3729553222656 95.62443542480469 L 182.4258270263672 0.8858895897865295 C 181.4654846191406 0.2949577867984772 180.3798217773438 -0.0005081232520751655 179.2941741943359 -0.0005081232520751655 C 178.2085266113281 -0.0005081232520751655 177.1228637695313 0.2949577867984772 176.1625518798828 0.8858895897865295 L 22.21541595458984 95.62443542480469 L 17.93032646179199 95.62443542480469 C 8.028098106384277 95.62443542480469 0.001007634913548827 103.6515274047852 0.001007634913548827 113.5537567138672 C 0.001007634913548827 123.4559783935547 8.028098106384277 131.4830780029297 17.93032646179199 131.4830780029297 L 17.93032646179199 137.4595184326172 C 17.96168899536133 145.0301666259766 22.74509811401367 151.7656097412109 29.8831901550293 154.2891693115234 L 29.8831901550293 276.0173034667969 C 22.74509811401367 278.5408935546875 17.96168899536133 285.2763366699219 17.93032646179199 292.8469848632813 L 17.93032646179199 298.8234252929688 L 5.977416515350342 298.8234252929688 C 2.67696213722229 298.8234252929688 0.001007634913548827 301.4993896484375 0.001007634913548827 304.7998962402344 L 0.001007634913548827 352.6113891601563 C 0.001007634913548827 355.9118957519531 2.67696213722229 358.5878295898438 5.977416515350342 358.5878295898438 L 352.6109313964844 358.5878295898438 M 280.8936462402344 310.7763061523438 L 346.634521484375 310.7763061523438 L 346.634521484375 346.6349487304688 L 280.8936462402344 346.6349487304688 L 280.8936462402344 310.7763061523438 M 89.64759826660156 334.6820678710938 L 233.0821380615234 334.6820678710938 L 233.0821380615234 322.7292175292969 L 89.64759826660156 322.7292175292969 L 89.64759826660156 310.7763061523438 L 268.9407653808594 310.7763061523438 L 268.9407653808594 346.6349487304688 L 89.64759826660156 346.6349487304688 L 89.64759826660156 334.6820678710938 M 11.95387172698975 310.7763061523438 L 77.69473266601563 310.7763061523438 L 77.69473266601563 346.6349487304688 L 11.95387172698975 346.6349487304688 L 11.95387172698975 310.7763061523438 M 298.8229675292969 286.8705749511719 L 322.7287292480469 286.8705749511719 C 326.0291748046875 286.8705749511719 328.7052001953125 289.5465393066406 328.7052001953125 292.8469848632813 L 328.7052001953125 298.8234252929688 L 292.8465576171875 298.8234252929688 L 292.8465576171875 292.8469848632813 C 292.8465576171875 289.5465393066406 295.5225219726563 286.8705749511719 298.8229675292969 286.8705749511719 M 268.9407653808594 131.4830780029297 L 280.8936462402344 131.4830780029297 L 280.8936462402344 137.4595184326172 C 280.9250183105469 145.0301666259766 285.7084655761719 151.7656097412109 292.8465576171875 154.2891693115234 L 292.8465576171875 276.0173034667969 C 285.7084655761719 278.5408935546875 280.9250183105469 285.2763366699219 280.8936462402344 292.8469848632813 L 280.8936462402344 298.8234252929688 L 268.9407653808594 298.8234252929688 L 268.9407653808594 292.8469848632813 C 268.909423828125 285.2763366699219 264.1260070800781 278.5408935546875 256.9878845214844 276.0173034667969 L 256.9878845214844 154.2891693115234 C 264.1260070800781 151.7656097412109 268.909423828125 145.0301666259766 268.9407653808594 137.4595184326172 L 268.9407653808594 131.4830780029297 M 227.1057281494141 286.8705749511719 L 251.0114593505859 286.8705749511719 C 254.3119659423828 286.8705749511719 256.9878845214844 289.5465393066406 256.9878845214844 292.8469848632813 L 256.9878845214844 298.8234252929688 L 221.1292877197266 298.8234252929688 L 221.1292877197266 292.8469848632813 C 221.1292877197266 289.5465393066406 223.8052368164063 286.8705749511719 227.1057281494141 286.8705749511719 M 149.4120025634766 131.4830780029297 L 209.1763763427734 131.4830780029297 L 209.1763763427734 137.4595184326172 C 209.2077789306641 145.0301666259766 213.9911499023438 151.7656097412109 221.1292877197266 154.2891693115234 L 221.1292877197266 276.0173034667969 C 213.9911499023438 278.5408935546875 209.2077789306641 285.2763366699219 209.1763763427734 292.8469848632813 L 209.1763763427734 298.8234252929688 L 149.4120025634766 298.8234252929688 L 149.4120025634766 292.8469848632813 C 149.3805999755859 285.2763366699219 144.5972290039063 278.5408935546875 137.4591369628906 276.0173034667969 L 137.4591369628906 154.2891693115234 C 144.5972290039063 151.7656097412109 149.3806457519531 145.0301666259766 149.4120025634766 137.4595184326172 L 149.4120025634766 131.4830780029297 M 107.5769195556641 286.8705749511719 L 131.4826965332031 286.8705749511719 C 134.7831878662109 286.8705749511719 137.4591369628906 289.5465393066406 137.4591369628906 292.8469848632813 L 137.4591369628906 298.8234252929688 L 101.6004638671875 298.8234252929688 L 101.6004638671875 292.8469848632813 C 101.6004638671875 289.5465393066406 104.2764129638672 286.8705749511719 107.5769195556641 286.8705749511719 M 77.69473266601563 131.4830780029297 L 89.64759826660156 131.4830780029297 L 89.64759826660156 137.4595184326172 C 89.67896270751953 145.0301666259766 94.46237182617188 151.7656097412109 101.6004638671875 154.2891693115234 L 101.6004638671875 276.0173034667969 C 94.46237182617188 278.5408935546875 89.67896270751953 285.2763366699219 89.64759826660156 292.8469848632813 L 89.64759826660156 298.8234252929688 L 77.69473266601563 298.8234252929688 L 77.69473266601563 292.8469848632813 C 77.66332244873047 285.2763366699219 72.87995910644531 278.5408935546875 65.74182891845703 276.0173034667969 L 65.74182891845703 154.2891693115234 C 72.87995910644531 151.7656097412109 77.66332244873047 145.0301666259766 77.69473266601563 137.4595184326172 L 77.69473266601563 131.4830780029297 M 35.85964584350586 286.8705749511719 L 59.76541519165039 286.8705749511719 C 63.06587219238281 286.8705749511719 65.74182891845703 289.5465393066406 65.74182891845703 292.8469848632813 L 65.74182891845703 298.8234252929688 L 29.8831901550293 298.8234252929688 L 29.8831901550293 292.8469848632813 C 29.8831901550293 289.5465393066406 32.55914306640625 286.8705749511719 35.85964584350586 286.8705749511719 M 304.7994079589844 155.3888397216797 L 316.7522888183594 155.3888397216797 L 316.7522888183594 274.9176635742188 L 304.7994079589844 274.9176635742188 L 304.7994079589844 155.3888397216797 M 233.0821380615234 155.3888397216797 L 245.0350494384766 155.3888397216797 L 245.0350494384766 274.9176635742188 L 233.0821380615234 274.9176635742188 L 233.0821380615234 155.3888397216797 M 113.5533676147461 155.3888397216797 L 125.506233215332 155.3888397216797 L 125.506233215332 274.9176635742188 L 113.5533676147461 274.9176635742188 L 113.5533676147461 155.3888397216797 M 41.83609771728516 155.3888397216797 L 53.78896331787109 155.3888397216797 L 53.78896331787109 274.9176635742188 L 41.83609771728516 274.9176635742188 L 41.83609771728516 155.3888397216797 M 292.8465576171875 131.4830780029297 L 328.7052001953125 131.4830780029297 L 328.7052001953125 137.4595184326172 C 328.7052001953125 140.7599792480469 326.0291748046875 143.4359741210938 322.7287292480469 143.4359741210938 L 298.8229675292969 143.4359741210938 C 295.5225219726563 143.4359741210938 292.8465576171875 140.7599792480469 292.8465576171875 137.4595184326172 L 292.8465576171875 131.4830780029297 M 221.1292877197266 131.4830780029297 L 256.9878845214844 131.4830780029297 L 256.9878845214844 137.4595184326172 C 256.9878845214844 140.7607574462891 254.3119659423828 143.4359741210938 251.0114593505859 143.4359741210938 L 227.1057281494141 143.4359741210938 C 223.8052368164063 143.4359741210938 221.1292877197266 140.7599792480469 221.1292877197266 137.4595184326172 L 221.1292877197266 131.4830780029297 M 101.6004638671875 131.4830780029297 L 137.4591369628906 131.4830780029297 L 137.4591369628906 137.4595184326172 C 137.4591369628906 140.7607574462891 134.7831878662109 143.4359741210938 131.4826965332031 143.4359741210938 L 107.5769195556641 143.4359741210938 C 104.2764129638672 143.4359741210938 101.6004638671875 140.7599792480469 101.6004638671875 137.4595184326172 L 101.6004638671875 131.4830780029297 M 29.8831901550293 131.4830780029297 L 65.74182891845703 131.4830780029297 L 65.74182891845703 137.4595184326172 C 65.74182891845703 140.7599792480469 63.06587219238281 143.4359741210938 59.76541519165039 143.4359741210938 L 35.85964584350586 143.4359741210938 C 32.55914306640625 143.4359741210938 29.8831901550293 140.7599792480469 29.8831901550293 137.4595184326172 L 29.8831901550293 131.4830780029297 M 17.93032646179199 107.5773010253906 L 59.76541519165039 107.5773010253906 L 59.76541519165039 95.62443542480469 L 45.02150726318359 95.62443542480469 L 179.294189453125 12.99416255950928 L 313.5668334960938 95.62443542480469 L 95.62405395507813 95.62443542480469 L 95.62405395507813 107.5773010253906 L 340.6580505371094 107.5773010253906 C 343.9585571289063 107.5773010253906 346.634521484375 110.2532501220703 346.634521484375 113.5537567138672 C 346.634521484375 116.8542556762695 343.9585571289063 119.530158996582 340.6580505371094 119.530158996582 L 17.93032646179199 119.530158996582 C 14.62982559204102 119.530158996582 11.95387172698975 116.8542556762695 11.95387172698975 113.5537567138672 C 11.95387172698975 110.2532501220703 14.62982559204102 107.5773010253906 17.93032646179199 107.5773010253906 M 352.6109313964844 359.5878295898438 L 5.977416515350342 359.5878295898438 C 2.130598545074463 359.5878295898438 -0.998992383480072 356.4582214355469 -0.998992383480072 352.6113891601563 L -0.998992383480072 304.7998962402344 C -0.998992383480072 300.9530639648438 2.130598545074463 297.8234252929688 5.977416515350342 297.8234252929688 L 16.93032646179199 297.8234252929688 L 16.93032646179199 292.8469848632813 C 16.94659805297852 288.9210205078125 18.15550804138184 285.1579895019531 20.42641639709473 281.9604797363281 C 22.55963706970215 278.9568786621094 25.47293281555176 276.673583984375 28.8831901550293 275.3241271972656 L 28.8831901550293 154.9823455810547 C 25.47293281555176 153.6329193115234 22.55963706970215 151.3496246337891 20.42641639709473 148.3460235595703 C 18.15550804138184 145.1485290527344 16.94659805297852 141.3854827880859 16.93032646179199 137.4636688232422 L 16.93032646179199 132.4573364257813 C 14.7282600402832 132.3435668945313 12.59043121337891 131.8531188964844 10.5618257522583 130.9951171875 C 8.307598114013672 130.0416564941406 6.283325672149658 128.6769409179688 4.545234680175781 126.9388427734375 C 2.807143926620483 125.2007522583008 1.442416667938232 123.1764831542969 0.4889621734619141 120.9222564697266 C -0.4983560144901276 118.587890625 -0.998992383480072 116.1087951660156 -0.998992383480072 113.5537567138672 C -0.998992383480072 110.9987106323242 -0.4983560144901276 108.5196151733398 0.4889621734619141 106.1852569580078 C 1.442416667938232 103.931022644043 2.807143926620483 101.9067535400391 4.545234680175781 100.1686630249023 C 6.283325672149658 98.43057250976563 8.307598114013672 97.06584167480469 10.5618257522583 96.11238861083984 C 12.89618968963623 95.12506866455078 15.37528038024902 94.62443542480469 17.93032646179199 94.62443542480469 L 21.93241119384766 94.62443542480469 L 175.6384582519531 0.03425323963165283 C 176.7386016845703 -0.6427013278007507 178.0027313232422 -1.000519514083862 179.294189453125 -1.000519514083862 C 180.5856475830078 -1.000519514083862 181.8497772216797 -0.6427013278007507 182.9498748779297 0.0342077873647213 L 336.6559753417969 94.62443542480469 L 340.6580505371094 94.62443542480469 C 343.2131042480469 94.62443542480469 345.6921997070313 95.12506866455078 348.0265502929688 96.11238861083984 C 350.2807922363281 97.06584167480469 352.3050537109375 98.43057250976563 354.0431518554688 100.1686630249023 C 355.78125 101.9067535400391 357.1459655761719 103.931022644043 358.0994262695313 106.1852569580078 C 359.0867309570313 108.5196151733398 359.5873718261719 110.9987106323242 359.5873718261719 113.5537567138672 C 359.5873718261719 116.1087951660156 359.0867309570313 118.587890625 358.0994262695313 120.9222564697266 C 357.1459655761719 123.1764831542969 355.78125 125.2007522583008 354.0431518554688 126.9388427734375 C 352.3050537109375 128.6769409179688 350.2807922363281 130.0416564941406 348.0265502929688 130.9951171875 C 345.9979553222656 131.8531188964844 343.860107421875 132.3435668945313 341.6580505371094 132.4573364257813 L 341.6580505371094 137.4595184326172 C 341.6417846679688 141.3854827880859 340.432861328125 145.1485290527344 338.1619567871094 148.3460235595703 C 336.0287475585938 151.3496246337891 333.1154479980469 153.6329193115234 329.7052001953125 154.9823455810547 L 329.7052001953125 275.3241271972656 C 333.1154479980469 276.673583984375 336.0287475585938 278.9568786621094 338.1619567871094 281.9604797363281 C 340.432861328125 285.1579895019531 341.6417846679688 288.9210205078125 341.6580505371094 292.8428344726563 L 341.6580505371094 297.8234252929688 L 352.6109313964844 297.8234252929688 C 356.4577331542969 297.8234252929688 359.5873718261719 300.9530639648438 359.5873718261719 304.7998962402344 L 359.5873718261719 352.6113891601563 C 359.5873718261719 356.4582214355469 356.4577331542969 359.5878295898438 352.6109313964844 359.5878295898438 Z M 281.8936462402344 345.6349487304688 L 345.634521484375 345.6349487304688 L 345.634521484375 311.7763061523438 L 281.8936462402344 311.7763061523438 L 281.8936462402344 345.6349487304688 Z M 90.64759826660156 345.6349487304688 L 267.9407653808594 345.6349487304688 L 267.9407653808594 311.7763061523438 L 90.64759826660156 311.7763061523438 L 90.64759826660156 321.7292175292969 L 233.0821380615234 321.7292175292969 L 234.0821380615234 321.7292175292969 L 234.0821380615234 322.7292175292969 L 234.0821380615234 334.6820678710938 L 234.0821380615234 335.6820678710938 L 233.0821380615234 335.6820678710938 L 90.64759826660156 335.6820678710938 L 90.64759826660156 345.6349487304688 Z M 12.95387172698975 345.6349487304688 L 76.69473266601563 345.6349487304688 L 76.69473266601563 311.7763061523438 L 12.95387172698975 311.7763061523438 L 12.95387172698975 345.6349487304688 Z M 293.8465576171875 297.8234252929688 L 327.7052001953125 297.8234252929688 L 327.7052001953125 292.8469848632813 C 327.7052001953125 290.1029663085938 325.4727783203125 287.8705749511719 322.7287292480469 287.8705749511719 L 298.8229675292969 287.8705749511719 C 296.0789489746094 287.8705749511719 293.8465576171875 290.1029663085938 293.8465576171875 292.8469848632813 L 293.8465576171875 297.8234252929688 Z M 269.9407653808594 297.8234252929688 L 279.8936462402344 297.8234252929688 L 279.8936462402344 292.8469848632813 C 279.909912109375 288.9210205078125 281.1188354492188 285.1579895019531 283.3897705078125 281.9604797363281 C 285.52294921875 278.9568786621094 288.436279296875 276.673583984375 291.8465576171875 275.3241271972656 L 291.8465576171875 154.9823455810547 C 288.4363098144531 153.6329193115234 285.5230102539063 151.3496246337891 283.3897705078125 148.3460235595703 C 281.1188354492188 145.1485290527344 279.909912109375 141.3854827880859 279.8936462402344 137.4636688232422 L 279.8936462402344 132.4830780029297 L 269.9407653808594 132.4830780029297 L 269.9407653808594 137.4595184326172 C 269.9244995117188 141.3854827880859 268.7156066894531 145.1485290527344 266.4446411132813 148.3460235595703 C 264.3114624023438 151.3496246337891 261.3981323242188 153.6329193115234 257.9878845214844 154.9823455810547 L 257.9878845214844 275.3241271972656 C 261.3981323242188 276.673583984375 264.3114624023438 278.9568786621094 266.4446411132813 281.9604797363281 C 268.7156066894531 285.1579895019531 269.9244995117188 288.9210205078125 269.9407653808594 292.8428344726563 L 269.9407653808594 297.8234252929688 Z M 222.1292877197266 297.8234252929688 L 255.9878692626953 297.8234252929688 L 255.9878692626953 292.8469848632813 C 255.9878692626953 290.1029663085938 253.7554626464844 287.8705749511719 251.0114593505859 287.8705749511719 L 227.1057281494141 287.8705749511719 C 224.3616943359375 287.8705749511719 222.1292877197266 290.1029663085938 222.1292877197266 292.8469848632813 L 222.1292877197266 297.8234252929688 Z M 150.4120025634766 297.8234252929688 L 208.1763763427734 297.8234252929688 L 208.1763763427734 292.8469848632813 C 208.1926422119141 288.9210205078125 209.4015960693359 285.1579895019531 211.6725006103516 281.9604797363281 C 213.8056793212891 278.9568786621094 216.7190246582031 276.673583984375 220.1292877197266 275.3241271972656 L 220.1292877197266 154.9823455810547 C 216.7190246582031 153.6329193115234 213.8056793212891 151.3496246337891 211.6725006103516 148.3460235595703 C 209.4015960693359 145.1485290527344 208.1926422119141 141.3854827880859 208.1763763427734 137.4636688232422 L 208.1763763427734 132.4830780029297 L 150.4120025634766 132.4830780029297 L 150.4120025634766 137.4595184326172 C 150.3957366943359 141.3854827880859 149.1868286132813 145.1485290527344 146.9159240722656 148.3460235595703 C 144.7826995849609 151.3496246337891 141.8694000244141 153.6329193115234 138.4591369628906 154.9823455810547 L 138.4591369628906 275.3241271972656 C 141.8694000244141 276.673583984375 144.7826995849609 278.9568786621094 146.9158782958984 281.9604797363281 C 149.1867828369141 285.1579895019531 150.3957366943359 288.9210205078125 150.4120025634766 292.8428344726563 L 150.4120025634766 297.8234252929688 Z M 102.6004638671875 297.8234252929688 L 136.4591369628906 297.8234252929688 L 136.4591369628906 292.8469848632813 C 136.4591369628906 290.1029663085938 134.2267303466797 287.8705749511719 131.4826965332031 287.8705749511719 L 107.5769195556641 287.8705749511719 C 104.8328704833984 287.8705749511719 102.6004638671875 290.1029663085938 102.6004638671875 292.8469848632813 L 102.6004638671875 297.8234252929688 Z M 78.69473266601563 297.8234252929688 L 88.64759826660156 297.8234252929688 L 88.64759826660156 292.8469848632813 C 88.66387176513672 288.9210205078125 89.87277984619141 285.1579895019531 92.14369201660156 281.9604797363281 C 94.27690887451172 278.9568786621094 97.19020843505859 276.673583984375 100.6004638671875 275.3241271972656 L 100.6004638671875 154.9823455810547 C 97.19020843505859 153.6329193115234 94.27690887451172 151.3496246337891 92.14369201660156 148.3460235595703 C 89.87277984619141 145.1485290527344 88.66387176513672 141.3854827880859 88.64759826660156 137.4636688232422 L 88.64759826660156 132.4830780029297 L 78.69473266601563 132.4830780029297 L 78.69473266601563 137.4595184326172 C 78.67845916748047 141.3854827880859 77.46950531005859 145.1485290527344 75.19860076904297 148.3460235595703 C 73.06542205810547 151.3496246337891 70.15208435058594 153.6329193115234 66.74182891845703 154.9823455810547 L 66.74182891845703 275.3241271972656 C 70.15208435058594 276.673583984375 73.06542205810547 278.9568786621094 75.19860076904297 281.9604797363281 C 77.46950531005859 285.1579895019531 78.67845916748047 288.9210205078125 78.69473266601563 292.8428344726563 L 78.69473266601563 297.8234252929688 Z M 30.8831901550293 297.8234252929688 L 64.74182891845703 297.8234252929688 L 64.74182891845703 292.8469848632813 C 64.74182891845703 290.1029663085938 62.50941848754883 287.8705749511719 59.76541519165039 287.8705749511719 L 35.85964584350586 287.8705749511719 C 33.11559677124023 287.8705749511719 30.8831901550293 290.1029663085938 30.8831901550293 292.8469848632813 L 30.8831901550293 297.8234252929688 Z M 305.7994079589844 273.9176635742188 L 315.7522888183594 273.9176635742188 L 315.7522888183594 156.3888397216797 L 305.7994079589844 156.3888397216797 L 305.7994079589844 273.9176635742188 Z M 234.0821380615234 273.9176635742188 L 244.0350494384766 273.9176635742188 L 244.0350494384766 156.3888397216797 L 234.0821380615234 156.3888397216797 L 234.0821380615234 273.9176635742188 Z M 114.5533676147461 273.9176635742188 L 124.506233215332 273.9176635742188 L 124.506233215332 156.3888397216797 L 114.5533676147461 156.3888397216797 L 114.5533676147461 273.9176635742188 Z M 42.83609771728516 273.9176635742188 L 52.78896331787109 273.9176635742188 L 52.78896331787109 156.3888397216797 L 42.83609771728516 156.3888397216797 L 42.83609771728516 273.9176635742188 Z M 293.8465576171875 132.4830780029297 L 293.8465576171875 137.4595184326172 C 293.8465576171875 140.2035675048828 296.0789489746094 142.4359741210938 298.8229675292969 142.4359741210938 L 322.7287292480469 142.4359741210938 C 325.4727783203125 142.4359741210938 327.7052001953125 140.2035675048828 327.7052001953125 137.4595184326172 L 327.7052001953125 132.4830780029297 L 293.8465576171875 132.4830780029297 Z M 222.1292877197266 132.4830780029297 L 222.1292877197266 137.4595184326172 C 222.1292877197266 140.2035675048828 224.3616943359375 142.4359741210938 227.1057281494141 142.4359741210938 L 251.0114593505859 142.4359741210938 C 253.7554626464844 142.4359741210938 255.9878692626953 140.2035675048828 255.9878692626953 137.4595184326172 L 255.9878692626953 132.4830780029297 L 222.1292877197266 132.4830780029297 Z M 102.6004638671875 132.4830780029297 L 102.6004638671875 137.4595184326172 C 102.6004638671875 140.2035675048828 104.8328704833984 142.4359741210938 107.5769195556641 142.4359741210938 L 131.4826965332031 142.4359741210938 C 134.2267303466797 142.4359741210938 136.4591369628906 140.2035675048828 136.4591369628906 137.4595184326172 L 136.4591369628906 132.4830780029297 L 102.6004638671875 132.4830780029297 Z M 30.8831901550293 132.4830780029297 L 30.8831901550293 137.4595184326172 C 30.8831901550293 140.2035675048828 33.11559677124023 142.4359741210938 35.85964584350586 142.4359741210938 L 59.76541519165039 142.4359741210938 C 62.50941848754883 142.4359741210938 64.74182891845703 140.2035675048828 64.74182891845703 137.4595184326172 L 64.74182891845703 132.4830780029297 L 30.8831901550293 132.4830780029297 Z M 17.93032646179199 108.5773010253906 C 15.18628025054932 108.5773010253906 12.95387172698975 110.8097076416016 12.95387172698975 113.5537567138672 C 12.95387172698975 116.2977523803711 15.18628025054932 118.530158996582 17.93032646179199 118.530158996582 L 340.6580505371094 118.530158996582 C 343.402099609375 118.530158996582 345.634521484375 116.2977523803711 345.634521484375 113.5537567138672 C 345.634521484375 110.8097076416016 343.402099609375 108.5773010253906 340.6580505371094 108.5773010253906 L 95.62405395507813 108.5773010253906 L 94.62405395507813 108.5773010253906 L 94.62405395507813 107.5773010253906 L 94.62405395507813 95.62443542480469 L 94.62405395507813 94.62443542480469 L 95.62405395507813 94.62443542480469 L 310.0338745117188 94.62443542480469 L 179.294189453125 14.16831970214844 L 48.55447387695313 94.62443542480469 L 59.76541519165039 94.62443542480469 L 60.76541519165039 94.62443542480469 L 60.76541519165039 95.62443542480469 L 60.76541519165039 107.5773010253906 L 60.76541519165039 108.5773010253906 L 59.76541519165039 108.5773010253906 L 17.93032646179199 108.5773010253906 Z" stroke="none" fill="#fff"/>
        </g>
      </g>
    </g>
    <g id="Group_6" data-name="Group 6" transform="translate(245.034 322.728)">
      <g id="Group_5" data-name="Group 5" transform="translate(0 0)">
        <g id="Rectangle_41" data-name="Rectangle 41" transform="translate(-0.034 0.272)" fill="#fff" stroke="#fff" stroke-width="1">
          <rect width="12" height="12" stroke="none"/>
          <rect x="-0.5" y="-0.5" width="13" height="13" fill="none"/>
        </g>
      </g>
    </g>
    <g id="Group_8" data-name="Group 8" transform="translate(71.717 95.623)">
      <g id="Group_7" data-name="Group 7" transform="translate(0 0)">
        <g id="Rectangle_42" data-name="Rectangle 42" transform="translate(0.282 0.377)" fill="#fff" stroke="#fff" stroke-width="1">
          <rect width="12" height="12" stroke="none"/>
          <rect x="-0.5" y="-0.5" width="13" height="13" fill="none"/>
        </g>
      </g>
    </g>
    <g id="Group_10" data-name="Group 10" transform="translate(155.387 35.861)">
      <g id="Group_9" data-name="Group 9">
        <g id="Path_85" data-name="Path 85" transform="translate(-208.001 -48.002)" fill="#fff">
          <path d="M 231.9067535400391 96.31352996826172 C 228.6122436523438 96.31352996826172 225.4160003662109 95.66816711425781 222.4068145751953 94.39539337158203 C 219.5005340576172 93.16613006591797 216.8905334472656 91.40644073486328 214.6493225097656 89.16520690917969 C 212.4080963134766 86.92398834228516 210.6484069824219 84.31398010253906 209.4191436767578 81.40770721435547 C 208.1463623046875 78.39852142333984 207.5010070800781 75.20227813720703 207.5010070800781 71.90776062011719 C 207.5010070800781 68.61325073242188 208.1463623046875 65.41699981689453 209.4191436767578 62.40782165527344 C 210.6484069824219 59.50154113769531 212.4080963134766 56.89154052734375 214.6493225097656 54.65031051635742 C 216.8905334472656 52.40909194946289 219.5005340576172 50.64939880371094 222.4068145751953 49.42013931274414 C 225.4160003662109 48.14736175537109 228.6122436523438 47.50199890136719 231.9067535400391 47.50199890136719 C 235.2012634277344 47.50199890136719 238.3975067138672 48.14736175537109 241.4066925048828 49.42013931274414 C 244.3129730224609 50.64939880371094 246.9229736328125 52.40909194946289 249.1642150878906 54.65031051635742 C 251.4054412841797 56.89154052734375 253.1651153564453 59.50154113769531 254.3943786621094 62.40782165527344 C 255.6671600341797 65.41699981689453 256.3125305175781 68.61325073242188 256.3125305175781 71.90776062011719 C 256.3125305175781 75.20227813720703 255.6671600341797 78.39852142333984 254.3943786621094 81.40770721435547 C 253.1651153564453 84.31398010253906 251.4054412841797 86.92398834228516 249.1642150878906 89.16520690917969 C 246.9229736328125 91.40644073486328 244.3129730224609 93.16613006591797 241.4066925048828 94.39539337158203 C 238.3975067138672 95.66816711425781 235.2012634277344 96.31352996826172 231.9067535400391 96.31352996826172 Z M 231.9067535400391 60.45487976074219 C 225.5916137695313 60.45487976074219 220.4538879394531 65.59262084960938 220.4538879394531 71.90776062011719 C 220.4538879394531 78.222900390625 225.5916137695313 83.36064147949219 231.9067535400391 83.36064147949219 C 238.2218933105469 83.36064147949219 243.3596343994141 78.222900390625 243.3596343994141 71.90776062011719 C 243.3596343994141 65.59262084960938 238.2218933105469 60.45487976074219 231.9067535400391 60.45487976074219 Z" stroke="none"/>
          <path d="M 231.9067535400391 48.00199890136719 C 218.7040557861328 48.00199890136719 208.0010070800781 58.70506286621094 208.0010070800781 71.90776062011719 C 208.0010070800781 85.1104736328125 218.7040557861328 95.81352996826172 231.9067535400391 95.81352996826172 C 245.1094665527344 95.81352996826172 255.8125152587891 85.1104736328125 255.8125152587891 71.90776062011719 C 255.8125152587891 58.70504760742188 245.1094665527344 48.00199890136719 231.9067535400391 48.00199890136719 M 231.9067535400391 83.86064147949219 C 225.3050384521484 83.86064147949219 219.9538879394531 78.50949096679688 219.9538879394531 71.90776062011719 C 219.9538879394531 65.30603790283203 225.3050384521484 59.95487976074219 231.9067535400391 59.95487976074219 C 238.5084838867188 59.95487976074219 243.8596343994141 65.30603790283203 243.8596343994141 71.90776062011719 C 243.8596343994141 78.50949096679688 238.5084838867188 83.86064147949219 231.9067535400391 83.86064147949219 M 231.9067535400391 47.00199890136719 C 235.2685546875 47.00199890136719 238.5303344726563 47.66065216064453 241.6014862060547 48.95964050292969 C 244.5673522949219 50.214111328125 247.2307739257813 52.00977325439453 249.5177612304688 54.29676055908203 C 251.8047485351563 56.583740234375 253.6004028320313 59.24716186523438 254.8548736572266 62.21304321289063 C 256.1538696289063 65.28418731689453 256.8125 68.54595947265625 256.8125 71.90776062011719 C 256.8125 75.26956176757813 256.1538696289063 78.53133392333984 254.8548736572266 81.60247802734375 C 253.6004028320313 84.568359375 251.8047485351563 87.23178100585938 249.5177612304688 89.51876831054688 C 247.2307739257813 91.80575561523438 244.5673522949219 93.60142517089844 241.6014862060547 94.85589599609375 C 238.5303344726563 96.15487670898438 235.2685546875 96.81352996826172 231.9067535400391 96.81352996826172 C 228.5449523925781 96.81352996826172 225.2831878662109 96.15487670898438 222.2120361328125 94.85589599609375 C 219.2461700439453 93.60142517089844 216.5827484130859 91.80575561523438 214.2957611083984 89.51876831054688 C 212.0087738037109 87.23178100585938 210.2131195068359 84.568359375 208.9586486816406 81.60247802734375 C 207.65966796875 78.53133392333984 207.0010070800781 75.26956176757813 207.0010070800781 71.90776062011719 C 207.0010070800781 68.54596710205078 207.65966796875 65.28418731689453 208.9586486816406 62.21304321289063 C 210.2131195068359 59.24716949462891 212.0087738037109 56.58374786376953 214.2957611083984 54.29676055908203 C 216.5827484130859 52.00978088378906 219.2461700439453 50.214111328125 222.2120361328125 48.95964050292969 C 225.2831878662109 47.66065216064453 228.5449523925781 47.00199890136719 231.9067535400391 47.00199890136719 Z M 231.9067535400391 82.86064147949219 C 237.9461822509766 82.86064147949219 242.8596343994141 77.94719696044922 242.8596343994141 71.90776062011719 C 242.8596343994141 65.86832427978516 237.9461822509766 60.95487976074219 231.9067535400391 60.95487976074219 C 225.8673248291016 60.95487976074219 220.9538879394531 65.86832427978516 220.9538879394531 71.90776062011719 C 220.9538879394531 77.94719696044922 225.8673248291016 82.86064147949219 231.9067535400391 82.86064147949219 Z" stroke="none" fill="#fff"/>
        </g>
      </g>
    </g>
  </g>
</svg>
