<svg xmlns="http://www.w3.org/2000/svg" width="384.318" height="359.588" viewBox="0 0 384.318 359.588">
  <g id="icon-manufacturing" transform="translate(0.5 0.5)">
    <path id="Path_95" data-name="Path 95" d="M6.183,153.4h34.3a91.949,91.949,0,0,0,8.709,20.948L24.914,198.611a6.186,6.186,0,0,0,0,8.747l26.228,26.235a6.189,6.189,0,0,0,8.743,0l24.279-24.281a91.885,91.885,0,0,0,20.941,8.706v34.3a6.182,6.182,0,0,0,6.183,6.183h37.1a6.182,6.182,0,0,0,6.183-6.183v-34.3a91.887,91.887,0,0,0,20.941-8.706l24.279,24.281a6.364,6.364,0,0,0,8.743,0l26.232-26.235a6.186,6.186,0,0,0,0-8.747l-24.281-24.267a91.948,91.948,0,0,0,8.709-20.948h34.3a6.182,6.182,0,0,0,6.183-6.183v-37.1a6.184,6.184,0,0,0-6.183-6.183h-34.3a91.977,91.977,0,0,0-8.709-20.946l24.276-24.267a6.186,6.186,0,0,0,0-8.747L208.526,23.741a6.185,6.185,0,0,0-8.743,0L175.5,48.022a92.148,92.148,0,0,0-20.941-8.706V5.015a6.184,6.184,0,0,0-6.183-6.183h-37.1A6.184,6.184,0,0,0,105.1,5.015v34.3a92.15,92.15,0,0,0-20.941,8.706L59.884,23.741a6.364,6.364,0,0,0-8.743,0L24.909,49.976a6.186,6.186,0,0,0,0,8.747L49.19,82.99a91.973,91.973,0,0,0-8.709,20.946H6.183A6.184,6.184,0,0,0,0,110.118v37.1A6.182,6.182,0,0,0,6.183,153.4Zm6.183-37.1H45.319a6.181,6.181,0,0,0,6.04-4.859A79.543,79.543,0,0,1,62.19,85.388a6.184,6.184,0,0,0-.836-7.709L38.023,54.347l17.49-17.492L78.84,60.187a6.184,6.184,0,0,0,7.716.838,79.668,79.668,0,0,1,26.054-10.832,6.189,6.189,0,0,0,4.859-6.042V11.2H142.2V44.151a6.189,6.189,0,0,0,4.859,6.042,79.668,79.668,0,0,1,26.054,10.832,6.184,6.184,0,0,0,7.716-.838l23.327-23.332L221.64,54.347,198.313,77.672a6.185,6.185,0,0,0-.836,7.716A79.522,79.522,0,0,1,208.3,111.446a6.188,6.188,0,0,0,6.04,4.862H247.3v24.73H214.342a6.185,6.185,0,0,0-6.04,4.859,79.447,79.447,0,0,1-10.824,26.046,6.187,6.187,0,0,0,.836,7.711l23.332,23.327-17.49,17.5-23.327-23.334a6.187,6.187,0,0,0-7.716-.836,79.482,79.482,0,0,1-26.046,10.832,6.183,6.183,0,0,0-4.866,6.04v32.954h-24.73V213.181a6.183,6.183,0,0,0-4.866-6.04,79.484,79.484,0,0,1-26.046-10.832,6.187,6.187,0,0,0-7.716.836L55.513,220.479,38.028,202.987,61.355,179.66a6.184,6.184,0,0,0,.836-7.716,79.567,79.567,0,0,1-10.832-26.059,6.179,6.179,0,0,0-6.04-4.854H12.365Zm0,0" transform="translate(0 1.168)" fill="#fff" stroke="#fff" stroke-width="1"/>
    <path id="Path_96" data-name="Path 96" d="M179.46,227.753A49.46,49.46,0,1,0,130,178.292,49.458,49.458,0,0,0,179.46,227.753Zm0-86.556a37.1,37.1,0,1,1-37.1,37.1A37.1,37.1,0,0,1,179.46,141.2Zm0,0" transform="translate(-49.627 -48.459)" fill="#fff" stroke="#fff" stroke-width="1"/>
    <path id="Path_97" data-name="Path 97" d="M168.008,234.848A68.008,68.008,0,1,0,100,166.84,68.008,68.008,0,0,0,168.008,234.848Zm0-123.651a55.643,55.643,0,1,1-55.643,55.643A55.642,55.642,0,0,1,168.008,111.2Zm0,0" transform="translate(-38.174 -37.006)" fill="#fff" stroke="#fff" stroke-width="1"/>
    <path id="Path_98" data-name="Path 98" d="M352.406,390.118v-49.46a6.184,6.184,0,0,0-6.183-6.183H333.858v-49.46a6.184,6.184,0,0,0-6.183-6.183H272.033a6.184,6.184,0,0,0-6.183,6.183v49.46H234.937a6.184,6.184,0,0,0-6.183,6.183v49.46H30.913A30.951,30.951,0,0,0,0,421.031V433.4a30.948,30.948,0,0,0,30.913,30.913H352.406A30.948,30.948,0,0,0,383.319,433.4V421.031A30.951,30.951,0,0,0,352.406,390.118Zm-12.365,0H296.763V346.84h43.278ZM278.215,291.2h43.278v43.278H278.215Zm-37.1,55.643H284.4v43.278H241.12ZM370.953,433.4a18.548,18.548,0,0,1-18.548,18.548H30.913A18.548,18.548,0,0,1,12.365,433.4V421.031a18.549,18.549,0,0,1,18.548-18.548H352.406a18.549,18.549,0,0,1,18.548,18.548Zm0,0" transform="translate(0 -105.72)" fill="#fff" stroke="#fff" stroke-width="1"/>
    <path id="Path_99" data-name="Path 99" d="M298.548,488.832A18.548,18.548,0,1,0,317.1,507.38a18.549,18.549,0,0,0-18.548-18.548Zm0,24.73a6.183,6.183,0,1,1,6.183-6.183A6.182,6.182,0,0,1,298.548,513.562Zm0,0" transform="translate(-106.888 -185.887)" fill="#fff" stroke="#fff" stroke-width="1"/>
    <path id="Path_100" data-name="Path 100" d="M198.548,488.832A18.548,18.548,0,1,0,217.1,507.38a18.549,18.549,0,0,0-18.548-18.548Zm0,24.73a6.183,6.183,0,1,1,6.183-6.183A6.182,6.182,0,0,1,198.548,513.562Zm0,0" transform="translate(-68.714 -185.887)" fill="#fff" stroke="#fff" stroke-width="1"/>
    <path id="Path_101" data-name="Path 101" d="M398.548,488.832A18.548,18.548,0,1,0,417.1,507.38a18.549,18.549,0,0,0-18.548-18.548Zm0,24.73a6.183,6.183,0,1,1,6.183-6.183A6.182,6.182,0,0,1,398.548,513.562Zm0,0" transform="translate(-145.063 -185.887)" fill="#fff" stroke="#fff" stroke-width="1"/>
    <path id="Path_102" data-name="Path 102" d="M98.548,488.832A18.548,18.548,0,1,0,117.1,507.38a18.549,18.549,0,0,0-18.548-18.548Zm0,24.73a6.183,6.183,0,1,1,6.183-6.183A6.182,6.182,0,0,1,98.548,513.562Zm0,0" transform="translate(-30.54 -185.887)" fill="#fff" stroke="#fff" stroke-width="1"/>
    <path id="Path_103" data-name="Path 103" d="M498.548,488.832A18.548,18.548,0,1,0,517.1,507.38a18.549,18.549,0,0,0-18.548-18.548Zm0,24.73a6.183,6.183,0,1,1,6.183-6.183A6.182,6.182,0,0,1,498.548,513.562Zm0,0" transform="translate(-183.237 -185.887)" fill="#fff" stroke="#fff" stroke-width="1"/>
  </g>
</svg>
